<svg width="300" height="273" viewBox="0 0 300 273" fill="none" xmlns="http://www.w3.org/2000/svg">
<g style="mix-blend-mode:multiply">
<path d="M294.643 179.122C303.043 160.531 301.816 140.344 289.175 124.598C279.474 112.512 263.767 112.635 253.74 99.9425C243.689 87.2188 249.681 71.7711 250.44 56.6087C252.513 15.2788 205.739 -16.3249 175.222 9.13588C161.379 20.6866 147.249 25.9494 130.745 17.6622C117.685 11.1023 99.0211 -1.61388 85.6059 11.5939C62.6029 34.2291 99.4295 72.8006 58.2919 81.1162C32.4488 86.3462 -0.304568 82.0232 0.00213804 134.76C0.113241 153.676 20.8268 163.214 26.8326 179.185C31.1594 190.691 26.6621 203.008 34.7944 213.217C60.2432 245.16 113.494 231.405 147.529 231.405C176.823 231.405 205.628 242.025 233.928 228.488C256.305 217.782 283.362 204.085 294.643 179.122Z" fill="#C6E8FB"/>
</g>
<g style="mix-blend-mode:multiply">
<path d="M10.5367 157.148C13.8286 153.409 17.904 150.758 22.5987 149.866C29.7924 148.5 36.8297 151.417 43.9156 152.3C55.4177 153.73 65.2496 148.081 70.9796 137.042C73.4426 132.299 75.3271 125.332 79.9357 122.545C86.8323 118.365 97.0145 122.042 103.539 125.531C110.334 129.163 116.913 134.028 124.582 135.013C130.556 135.778 136.761 134.712 142.016 131.375C150.353 126.078 155.335 116.72 159.508 107.48C163.4 98.8589 166.834 88.2786 173.895 82.1063C183.153 74.0168 196.36 79.7341 205.153 85.8913C219.503 95.9402 225.21 113.817 235.06 128.184C239.596 134.801 244.833 140.345 251.794 143.679C259.015 147.132 267.187 148.603 275.007 147.432C283.118 146.22 290.333 142.495 296.244 136.978C301.854 150.414 301.063 165.615 294.651 179.882C283.377 204.964 256.337 218.73 233.973 229.483C205.691 243.084 176.904 232.414 147.629 232.414C113.615 232.414 60.397 246.227 34.9641 214.139C26.832 203.882 31.3312 191.498 27.0072 179.945C23.8169 171.414 16.4715 164.71 10.274 157.446C10.3663 157.355 10.4476 157.247 10.5367 157.148Z" fill="#C6E8FB"/>
</g>
<path d="M48.536 209.312C62.5546 199.978 86.8541 198.16 103.627 195.828C121.559 193.339 139.615 195.019 157.568 193.604C179.468 191.874 201.533 196.472 223.041 199.643C230.977 200.812 257.37 205.195 258.251 215.489C258.922 223.321 240.311 221.355 246.592 228.841C250.41 233.39 286.459 237.876 270.334 250.198C261.458 256.983 239.544 256.648 228.72 257.937C209.769 260.193 190.609 261.356 171.534 262.812C144.13 264.897 117.852 264.897 90.8961 260.426C79.0715 258.466 67.0163 257.247 55.992 252.438C47.3355 248.664 46.6963 245.757 46.5865 238.195C46.5324 234.367 47.341 235.461 45.2207 231.732C43.4894 228.683 41.1995 228.013 40.3755 224.217C38.8915 217.371 42.9766 213.015 48.536 209.312Z" fill="#8096AA"/>
<path d="M225.214 243.018C217.437 242.026 211.708 246.302 205.589 249.557C199.346 252.876 192.732 254.694 185.228 254.398C177.797 254.106 170.64 252.628 163.653 250.594C148.975 246.323 134.759 241.411 118.998 245.278C111.865 247.027 105.316 249.954 98.2677 251.887C92.1223 253.572 84.6729 254.909 78.6274 252.206C75.2869 250.714 69.788 248.258 69.2456 244.724C68.8641 242.25 71.4846 240.459 73.7416 239.226C77.1125 237.387 80.9981 236.043 84.0583 233.84C87.242 231.549 88.7638 227.338 84.9739 224.668C82.2425 222.745 78.454 223.638 75.3938 222.456C73.159 221.593 72.6651 219.827 72.8454 218C66.9789 218.746 61.1373 219.53 55.3373 220.231C47.4149 221.187 21.0646 224.771 20.1851 233.191C19.5151 239.597 38.0955 237.989 31.8253 244.112C28.0132 247.833 -7.97688 251.502 8.12183 261.58C16.9834 267.13 38.8613 266.856 49.6677 267.91C68.588 269.755 87.7165 270.706 106.76 271.897C134.119 273.602 160.354 273.602 187.266 269.946C199.072 268.345 211.107 267.348 222.113 263.414C230.756 260.327 231.394 257.95 231.503 251.765C231.557 248.634 230.75 249.529 232.867 246.479C234.595 243.985 236.882 243.437 237.704 240.332C237.95 239.422 238.043 238.489 237.982 237.558C235.192 241.222 230.721 243.722 225.214 243.018Z" fill="#728698"/>
<path d="M73.4237 229.981C81.2132 228.769 86.9518 233.997 93.0809 237.977C99.3336 242.034 105.959 244.257 113.474 243.896C120.918 243.538 128.086 241.731 135.085 239.245C149.788 234.022 164.027 228.017 179.813 232.745C186.958 234.883 193.518 238.462 200.578 240.825C206.733 242.885 214.195 244.52 220.25 241.216C223.596 239.39 229.104 236.388 229.647 232.068C230.029 229.043 227.405 226.852 225.144 225.346C221.767 223.096 217.875 221.453 214.81 218.759C211.621 215.959 210.097 210.81 213.893 207.546C216.629 205.195 220.424 206.287 223.489 204.841C225.728 203.786 226.222 201.627 226.042 199.393C231.918 200.305 237.769 201.264 243.578 202.121C251.514 203.29 277.907 207.673 278.788 217.967C279.459 225.799 260.848 223.833 267.129 231.319C270.947 235.868 306.996 240.354 290.871 252.676C281.995 259.461 260.081 259.126 249.257 260.415C230.306 262.671 211.146 263.834 192.071 265.29C164.668 267.375 138.389 267.375 111.433 262.904C99.6087 260.947 87.5535 259.728 76.5292 254.919C67.8727 251.145 67.2335 248.238 67.1238 240.676C67.0696 236.848 67.8783 237.942 65.7579 234.213C64.0266 231.164 61.7367 230.494 60.9127 226.698C60.6668 225.585 60.5733 224.444 60.6348 223.306C63.4291 227.785 67.9074 230.842 73.4237 229.981Z" fill="#728698"/>
<path d="M93.963 103.07C93.963 110.17 94.7884 119.215 96.2633 129.127C101.417 163.727 114.499 208.892 128.093 218.762C134.588 223.479 139.838 224.029 143.871 222.571C150.7 220.1 153.598 211.916 154.043 208.321C154.708 202.948 155.601 167.892 162.948 165.05C163.26 164.929 163.583 164.866 163.916 164.866C172.095 164.866 174.352 198.445 174.352 204.371C174.352 209.943 175.101 221.758 185.977 223.149C186.668 223.237 187.399 223.283 188.173 223.283C201.148 223.283 233.869 168.534 233.869 106.737C233.869 106.737 235.682 72.7298 214.523 65.6805C212.077 64.8643 209.324 64.4099 206.225 64.4099C203.125 64.4099 200.531 64.5443 198.285 64.7699C185.62 66.0421 184.099 70.2093 165.89 69.4908C144.453 68.6442 136.556 63 122.734 63C120.759 63 118.761 63.168 116.785 63.5473C104.945 65.8229 93.963 75.7415 93.963 103.07Z" fill="white"/>
<path d="M163.536 164.769C171.715 164.769 173.972 198.348 173.972 204.274C173.972 209.846 174.721 221.661 185.597 223.052C180.989 218.3 178.437 212.787 177.226 202.158C175.355 185.727 172.51 164.404 163.536 164.769Z" fill="#ECECEC"/>
<path d="M145.089 222.285C151.918 219.815 154.628 212.455 155.261 208.035C156.031 202.677 156.819 167.607 164.166 164.765C152.147 167.727 152.233 194.178 151.42 203.738C150.984 208.877 148.543 216.017 145.089 222.285Z" fill="#ECECEC"/>
<path d="M118.735 71.9836C125.291 77.8743 137.075 83.1393 158.26 83.1393C178.867 83.1393 191.979 78.5032 200.235 73.2063C187.57 74.4785 186.049 78.6457 167.84 77.9271C146.403 77.0806 138.506 71.4364 124.684 71.4364C122.709 71.4364 120.711 71.6044 118.735 71.9836Z" fill="#ECECEC"/>
<path d="M226.148 187.374C226.34 188.205 227.397 188.67 228.51 188.414C229.622 188.157 230.369 187.275 230.177 186.443C229.985 185.612 228.927 185.146 227.815 185.403C226.702 185.659 225.956 186.541 226.148 187.374ZM242.599 191.131C244.579 191.941 246.435 191.988 246.744 191.234C247.052 190.478 245.697 189.208 243.717 188.398C241.737 187.586 239.881 187.541 239.572 188.294C239.263 189.05 240.617 190.319 242.599 191.131ZM227.805 159.596C227.403 158.613 226.699 157.971 226.232 158.162C225.764 158.353 225.711 159.306 226.113 160.289C226.513 161.271 227.218 161.914 227.686 161.723C228.152 161.531 228.205 160.579 227.805 159.596ZM239.529 169.744C239.573 169.244 238.753 168.761 237.695 168.668C236.638 168.574 235.744 168.904 235.7 169.405C235.655 169.906 236.476 170.388 237.534 170.482C238.591 170.577 239.483 170.247 239.529 169.744ZM238.343 179.14C239.595 179.762 240.917 179.646 241.297 178.881C241.675 178.117 240.968 176.993 239.716 176.372C238.463 175.749 237.141 175.865 236.762 176.631C236.382 177.395 237.09 178.519 238.343 179.14ZM228.079 180.088C228.333 180.571 229.235 180.599 230.094 180.148C230.952 179.697 231.441 178.941 231.188 178.456C230.935 177.973 230.033 177.945 229.174 178.396C228.317 178.847 227.826 179.604 228.079 180.088ZM218.337 178.085C219.841 178.87 225.074 184.766 225.645 180.048C226.214 175.331 222.691 176.523 222.691 176.523C217.509 177.923 213.725 172.272 213.725 172.272C213.692 171.223 214.089 169.889 214.648 168.556C214.689 168.456 214.731 168.356 214.774 168.258C215.989 165.475 217.82 162.784 217.82 162.784C219.944 166.776 228.961 173.827 229.842 171.702C230.723 169.576 228.339 168.85 228.339 168.85C219.944 167.088 219.633 160.919 219.633 160.919C219.79 160.505 220.096 160.064 220.5 159.614C220.57 159.537 220.642 159.46 220.716 159.382C222.936 157.08 227.458 154.646 227.458 154.646C227.769 159.26 230.983 161.593 230.983 161.593C236.527 161.904 233.573 158.43 233.573 158.43C229.272 157.29 229.634 153.091 229.634 153.091C229.936 153.091 230.361 152.927 230.846 152.662C230.929 152.618 231.016 152.569 231.103 152.517C233.03 151.391 235.697 148.995 235.697 148.995C235.902 150.833 238.014 151.464 238.08 151.483C237.51 151.166 237.252 148.374 237.252 148.374C237.414 148.304 237.611 148.187 237.831 148.032C237.909 147.978 237.991 147.917 238.075 147.854C239.426 146.833 241.454 144.759 242.37 143.799C242.669 143.486 242.85 143.293 242.85 143.293C242.826 143.368 242.815 143.458 242.815 143.558C242.815 143.719 242.844 143.908 242.9 144.122C243.234 145.441 244.51 147.633 245.511 149.222C245.569 149.316 245.628 149.409 245.685 149.498C246.309 150.481 246.787 151.173 246.787 151.173C245.181 155.216 238.341 153.92 241.243 157.429C244.144 160.937 248.291 153.454 248.291 153.454C248.21 153.916 248.681 154.842 249.371 155.902C249.43 155.992 249.49 156.084 249.554 156.176C250.059 156.93 250.658 157.734 251.237 158.48C251.301 158.562 251.365 158.644 251.428 158.725C252.566 160.172 253.575 161.333 253.575 161.333C253.575 161.333 253.057 165.636 246.943 167.088C240.828 168.539 241.708 169.732 241.708 169.732C247.72 172.324 254.043 162.992 254.043 162.992C255.293 164.35 256.3 166.139 257.092 167.933C257.135 168.033 257.178 168.132 257.22 168.232C258.762 171.833 259.431 175.36 259.431 175.36C253.679 183.267 250.466 179.219 247.669 179.219C244.87 179.219 243.471 180.048 243.471 180.826C243.471 181.604 244.144 184.196 249.586 184.196C255.027 184.196 259.898 178.648 259.898 178.648C259.419 181.671 258.823 184.25 258.135 186.444C258.1 186.554 258.066 186.664 258.031 186.773C251.471 207.065 236.903 193.25 235.019 191.351C234.886 191.217 234.817 191.142 234.817 191.142C234.817 191.142 234.801 191.319 234.725 191.596V191.597C234.671 191.793 234.587 192.036 234.456 192.305V192.307C234.138 192.964 233.542 193.76 232.433 194.304C227.032 196.952 214.14 193.372 214.71 186.984C214.815 185.811 214.782 184.678 214.662 183.61C214.65 183.5 214.636 183.391 214.622 183.283C214.017 178.692 211.809 175.36 211.809 175.36C211.809 175.36 216.836 177.3 218.337 178.085Z" fill="#4E9A35"/>
<path d="M233.841 181.841C233.847 181.96 233.852 182.079 233.859 182.199C233.957 184.149 234.08 186.1 234.197 187.966C234.289 189.446 234.381 190.906 234.456 192.305V192.307C234.725 197.202 234.81 201.352 234.125 202.942L234.691 203.185C235.471 201.369 235.339 196.861 235.019 191.351C234.955 190.246 234.884 189.101 234.81 187.929C234.697 186.113 234.578 184.218 234.481 182.323C234.474 182.181 234.467 182.038 234.459 181.897C234.317 179.05 234.225 176.218 234.272 173.668C234.274 173.56 234.276 173.454 234.279 173.347C234.295 172.674 234.319 172.021 234.357 171.394C234.468 169.522 234.832 167.403 235.358 165.185C235.382 165.081 235.407 164.978 235.432 164.875C236.024 162.427 236.804 159.869 237.645 157.396C237.683 157.286 237.721 157.176 237.759 157.065C238.667 154.42 239.641 151.885 240.524 149.703C240.563 149.607 240.601 149.512 240.64 149.417C241.563 147.151 242.376 145.291 242.9 144.122C242.844 143.908 242.815 143.719 242.815 143.558C242.815 143.458 242.826 143.368 242.85 143.293C242.85 143.293 242.669 143.486 242.37 143.799C241.849 144.962 241.024 146.843 240.087 149.147C240.049 149.241 240.009 149.336 239.971 149.432C239.09 151.609 238.117 154.139 237.206 156.784C237.173 156.884 237.139 156.984 237.103 157.084C236.219 159.673 235.4 162.364 234.787 164.93C234.762 165.038 234.736 165.145 234.712 165.252C234.204 167.429 233.852 169.512 233.742 171.359C233.704 172.003 233.677 172.675 233.662 173.367C233.66 173.479 233.658 173.59 233.656 173.702C233.611 176.232 233.701 179.03 233.841 181.841Z" fill="#3E722E"/>
<path d="M232.821 183.773C231.681 183.72 230.723 184.367 230.682 185.219C230.642 186.071 231.534 186.807 232.674 186.86C233.814 186.915 234.772 186.268 234.813 185.415C234.853 184.564 233.962 183.828 232.821 183.773ZM221.767 188.717C221.329 188.03 219.511 188.405 217.707 189.557C215.903 190.708 214.796 192.199 215.234 192.888C215.672 193.575 217.49 193.198 219.295 192.047C221.1 190.896 222.206 189.404 221.767 188.717ZM228.728 160.45C229.221 160.554 229.8 159.796 230.019 158.758C230.239 157.719 230.017 156.793 229.523 156.688C229.029 156.584 228.451 157.34 228.232 158.379C228.011 159.419 228.234 160.346 228.728 160.45ZM220.599 170.825C221.623 170.545 222.345 169.924 222.211 169.439C222.078 168.954 221.139 168.788 220.117 169.07C219.093 169.35 218.371 169.971 218.504 170.456C218.638 170.942 219.574 171.107 220.599 170.825ZM222.454 176.738C221.945 176.053 220.623 176.175 219.502 177.011C218.379 177.845 217.883 179.077 218.393 179.762C218.902 180.447 220.224 180.325 221.345 179.489C222.467 178.655 222.963 177.423 222.454 176.738ZM230.235 177.122C229.309 176.832 228.427 177.02 228.263 177.541C228.1 178.062 228.716 178.72 229.642 179.01C230.567 179.3 231.45 179.113 231.613 178.591C231.776 178.07 231.159 177.412 230.235 177.122ZM246.78 171.036C246.78 171.036 245.201 174.711 245.425 179.335C245.429 179.443 245.436 179.554 245.443 179.664C245.515 180.737 245.686 181.858 245.997 182.992C247.697 189.176 235.65 194.999 229.864 193.357C228.675 193.02 227.947 192.342 227.517 191.753V191.751C227.338 191.509 227.212 191.285 227.125 191.101V191.1C227.001 190.841 226.955 190.671 226.955 190.671C226.955 190.671 226.899 190.756 226.792 190.912C225.277 193.117 213.405 209.308 203.333 190.512C203.28 190.411 203.226 190.309 203.172 190.207C202.105 188.171 201.057 185.739 200.049 182.85C200.049 182.85 205.83 187.44 211.183 186.469C216.538 185.498 216.738 182.829 216.599 182.062C216.461 181.298 214.937 180.732 212.183 181.231C209.43 181.73 206.99 186.286 199.921 179.531C199.921 179.531 199.951 175.943 200.826 172.123C200.849 172.019 200.874 171.913 200.9 171.806C201.358 169.9 202.03 167.96 203.02 166.401C203.02 166.401 210.903 174.455 216.357 170.832C216.357 170.832 217.01 169.501 210.734 169.164C204.46 168.827 203.183 164.685 203.183 164.685C203.183 164.685 203.97 163.363 204.831 161.735C204.879 161.644 204.928 161.552 204.975 161.461C205.412 160.624 205.858 159.726 206.221 158.893C206.267 158.791 206.31 158.691 206.352 158.59C206.842 157.425 207.14 156.43 206.978 155.989C206.978 155.989 212.392 162.613 214.622 158.644C216.853 154.673 210.353 157.169 208.051 153.476C208.051 153.476 208.398 152.71 208.838 151.633C208.878 151.535 208.919 151.433 208.96 151.329C209.66 149.587 210.525 147.203 210.621 145.845C210.636 145.625 210.632 145.433 210.604 145.274C210.585 145.177 210.558 145.09 210.522 145.02C210.522 145.02 210.734 145.179 211.084 145.434C212.156 146.213 214.522 147.894 216.032 148.657C216.126 148.704 216.218 148.749 216.304 148.789C216.55 148.902 216.763 148.981 216.934 149.021C216.934 149.021 217.179 151.814 216.676 152.229C216.737 152.198 218.701 151.2 218.575 149.356C218.575 149.356 221.627 151.237 223.724 152.002C223.819 152.038 223.912 152.07 224.003 152.099C224.528 152.273 224.974 152.358 225.27 152.305C225.27 152.305 226.377 156.372 222.348 158.261C222.348 158.261 220.06 162.205 225.46 160.911C225.46 160.911 228.207 158.042 227.69 153.447C227.69 153.447 232.574 155.034 235.168 156.904C235.255 156.968 235.34 157.03 235.421 157.094C235.899 157.464 236.279 157.844 236.508 158.222C236.508 158.222 237.301 164.348 229.355 167.58C229.355 167.58 227.139 168.72 228.384 170.654C229.63 172.589 237.245 164.042 238.625 159.736C238.625 159.736 240.906 162.057 242.597 164.577C242.656 164.667 242.715 164.758 242.774 164.849C243.561 166.06 244.19 167.302 244.344 168.341C244.344 168.341 241.628 174.575 236.279 174.122C236.279 174.122 232.601 173.577 234.002 178.118C235.404 182.658 239.503 175.923 240.842 174.883C242.18 173.843 246.78 171.036 246.78 171.036Z" fill="#64C431"/>
<path d="M226.257 181.344C226.272 181.463 226.289 181.581 226.302 181.699C226.553 183.636 226.78 185.576 226.998 187.435C227.17 188.906 227.342 190.36 227.515 191.751L227.517 191.753C228.125 196.616 228.781 200.715 229.738 202.158L229.225 202.498C228.133 200.85 227.46 196.39 226.792 190.912C226.659 189.814 226.525 188.674 226.387 187.507C226.175 185.701 225.955 183.815 225.713 181.934C225.694 181.792 225.676 181.65 225.658 181.508C225.291 178.683 224.876 175.88 224.376 173.379C224.353 173.273 224.333 173.169 224.311 173.064C224.176 172.405 224.035 171.767 223.887 171.157C223.444 169.335 222.707 167.315 221.795 165.226C221.753 165.128 221.71 165.031 221.667 164.934C220.648 162.63 219.424 160.252 218.157 157.969C218.099 157.868 218.042 157.766 217.985 157.665C216.62 155.224 215.21 152.903 213.953 150.914C213.897 150.826 213.843 150.739 213.787 150.653C212.475 148.587 211.344 146.902 210.621 145.845C210.637 145.625 210.632 145.433 210.604 145.274C210.585 145.177 210.558 145.09 210.522 145.02C210.522 145.02 210.734 145.179 211.084 145.433C211.804 146.485 212.951 148.189 214.283 150.288C214.339 150.374 214.393 150.461 214.448 150.548C215.703 152.533 217.111 154.849 218.479 157.289C218.53 157.381 218.581 157.473 218.633 157.566C219.965 159.956 221.251 162.457 222.311 164.874C222.355 164.975 222.399 165.074 222.442 165.176C223.331 167.228 224.048 169.214 224.485 171.013C224.637 171.639 224.784 172.296 224.922 172.975C224.944 173.084 224.966 173.193 224.988 173.303C225.482 175.785 225.892 178.554 226.257 181.344Z" fill="#529F35"/>
<path d="M222.484 221.767H241.252C242.233 221.767 243.057 221.028 243.164 220.052L244.993 203.267C245.116 202.128 244.224 201.134 243.08 201.134H220.657C219.512 201.134 218.62 202.128 218.743 203.267L220.572 220.052C220.678 221.028 221.502 221.767 222.484 221.767Z" fill="#D58A18"/>
<path d="M217.526 206.677H245.939C246.701 206.677 247.317 206.059 247.317 205.297V202.513C247.317 201.751 246.701 201.134 245.939 201.134H217.526C216.765 201.134 216.148 201.751 216.148 202.513V205.297C216.148 206.059 216.765 206.677 217.526 206.677Z" fill="#F9A70D"/>
<path d="M20.8464 140.613C20.877 142.346 24.39 160.194 54.9442 171.838C54.9442 171.838 50.9316 164.935 39.7782 157.068C28.8759 149.38 21.7334 142.917 20.9648 140.755C20.9463 140.707 20.9321 140.658 20.9218 140.613C20.877 140.425 20.8423 140.433 20.8464 140.613Z" fill="#74C93F"/>
<path d="M53.9677 174.109L53.9717 174.106C54.2674 173.964 73.287 164.847 76.9959 160.864C80.8619 156.711 84.3606 150.238 87.3681 145.643C88.9157 143.279 90.3328 141.412 91.6052 140.613C91.6766 140.565 91.7498 140.524 91.8213 140.484C91.0771 140.876 67.1577 153.564 53.9677 174.109Z" fill="#74C93F"/>
<path d="M15.9937 125.508C15.9937 125.508 21.558 129.783 22.6551 131.849C24.7408 135.781 31.7468 140.383 39.7457 143.969C44.6903 146.185 47.2634 147.982 55.3092 158.172L55.2969 158.15C54.9117 157.397 46.5335 141.277 35.1702 136.183C23.5357 130.965 25.1406 127.673 22.4938 126.39C19.8453 125.106 15.9937 125.508 15.9937 125.508Z" fill="#74C93F"/>
<path d="M54.4487 162.297C59.1833 155.474 69.2925 150.259 72.1022 148.493C74.9099 146.726 78.5211 142.391 81.5693 137.336C84.6196 132.279 95.2916 130.271 95.2916 130.271C85.2597 127.702 76.9162 133.08 74.9099 136.29C72.9036 139.501 68.9725 143.757 63.2755 147.929C57.5786 152.105 54.4487 162.297 54.4487 162.297Z" fill="#74C93F"/>
<path d="M16.9602 101.906C17.2007 107.365 22.335 119.484 33.007 124.541C43.5117 129.518 54.0165 139.786 54.3429 140.106L54.3346 140.093C54.2206 139.96 54.1063 139.809 53.988 139.641C51.678 136.365 48.2117 126.931 35.4149 120.609C21.9334 113.945 16.9602 101.906 16.9602 101.906Z" fill="#74C93F"/>
<path d="M95.3566 110.275C95.6279 110.245 95.7727 110.234 95.7727 110.234C95.7727 110.234 95.6422 110.223 95.3566 110.275Z" fill="#74C93F"/>
<path d="M53.9678 143.789C53.9678 143.789 58.4595 146.185 74.7102 127.836C85.6003 115.536 91.4176 111.825 94.0254 110.709L94.0458 110.7C94.6432 110.446 95.0695 110.33 95.3487 110.275C92.7204 110.569 78.4904 112.678 71.2989 124.523C63.3633 137.594 56.9487 142.014 53.9757 143.785L53.9678 143.789Z" fill="#74C93F"/>
<path d="M24.119 95.6665L24.1209 95.6745L24.1332 95.6984C24.4513 96.4213 29.6344 108.048 34.0652 113.724C38.6018 119.54 53.0154 128.037 53.2417 128.17C53.15 128.001 47.6385 118.094 39.8436 112.841C32.0404 107.585 24.2393 95.85 24.119 95.6665Z" fill="#74C93F"/>
<path d="M52.8379 129.848L52.8481 129.847C53.2826 129.773 67.2821 127.332 77.4711 113.425C87.8229 99.2967 82.7682 98.1733 91.1933 89.5038L91.1851 89.5086C90.8671 89.6889 80.6437 95.6218 73.2197 111.82C73.2197 111.82 67.9224 122.111 52.8379 129.848Z" fill="#74C93F"/>
<path d="M38.0718 102.595C41.485 106.047 50.5625 115.064 52.0917 116.582V116.585L52.0998 116.59C52.2386 116.728 52.312 116.802 52.312 116.802C52.312 116.802 52.3038 116.738 52.2834 116.615C52.051 115.098 50.1527 104.713 41.3178 98.1399C31.9181 91.1459 28.0401 79.8402 27.9195 79.4859L27.9176 79.478C27.6769 88.9485 34.3383 98.8213 38.0718 102.595Z" fill="#74C93F"/>
<path d="M52.0978 118.485L52.1163 118.479C52.6872 118.238 64.9109 113.001 70.6323 101.792C76.4861 90.3208 78.4926 84.8619 81.8589 82.13H81.8568C81.5223 82.3263 70.7791 88.6916 64.9353 102.996C64.9353 102.996 62.454 108.282 52.1305 118.455L52.0978 118.485Z" fill="#74C93F"/>
<path d="M51.5698 105.356C52.475 104.564 59.5851 98.1287 64.3113 87.6209C69.3598 76.3966 71.0481 72.6179 73.0504 71.8105C72.9893 71.8233 72.5366 71.9238 71.819 72.2015C71.7965 72.2094 71.7719 72.219 71.7496 72.2286C68.9459 73.3312 62.3192 77.078 58.7754 88.5847C55.5315 99.1148 53.2173 103.187 52.1446 104.663C51.8695 105.043 51.6779 105.25 51.5698 105.356Z" fill="#74C93F"/>
<path d="M51.4792 105.435V105.437L51.482 105.435H51.4792Z" fill="#74C93F"/>
<path d="M38.7099 69.6014L38.6975 69.6307C38.7058 69.6112 38.7099 69.6014 38.7099 69.6014Z" fill="#74C93F"/>
<path d="M42.4412 89.1879C50.3403 99.6191 51.6309 101.376 51.6675 101.427V101.422C51.6106 101.204 49.751 94.1202 45.0899 86.298C40.5593 78.6913 38.2329 71.6015 38.6387 69.8095C38.6427 69.7936 38.6487 69.7776 38.6529 69.7616C38.6652 69.7122 38.6794 69.6691 38.6977 69.6308C38.4449 70.1845 34.6768 78.9354 42.4412 89.1879Z" fill="#74C93F"/>
<path d="M52.3732 188.363C52.5098 188.158 52.5536 188.051 52.6323 187.905C52.7099 187.765 52.7584 187.639 52.8176 187.506L52.9881 187.114C53.039 186.985 53.0827 186.855 53.1302 186.726C53.2197 186.468 53.325 186.208 53.4001 185.949L53.6284 185.174L53.7421 184.786C53.7783 184.657 53.8053 184.527 53.837 184.398L54.0211 183.621C54.0793 183.361 54.1508 183.102 54.1977 182.844L54.343 182.065L54.4881 181.286C54.5371 181.026 54.5874 180.768 54.6199 180.508L54.8411 178.947L54.9517 178.168L55.0318 177.386L55.1913 175.826L55.271 175.046L55.3246 174.264L55.4283 172.703C55.4608 172.183 55.5023 171.663 55.5272 171.141L55.5809 169.58L55.6344 168.02C55.6508 167.499 55.6767 166.979 55.6725 166.459L55.6886 163.339C55.6803 155.024 55.145 146.736 54.3961 138.48C54.0469 134.347 53.6107 130.236 53.2405 126.111C52.8661 121.989 52.5005 117.866 52.2091 113.74C52.1405 112.707 52.0531 111.675 51.9998 110.642L51.8307 107.545C51.757 105.48 51.6707 103.412 51.7604 101.35C51.7666 100.833 51.814 100.32 51.8558 99.8058C51.885 99.2904 51.9695 98.783 52.0343 98.2707C52.1103 97.7601 52.2057 97.2527 52.3002 96.7452C52.3995 96.2362 52.4971 95.7288 52.5857 95.2181C52.9551 93.1756 53.1181 91.1076 53.243 89.0411C53.0757 91.1044 52.8706 93.166 52.4605 95.1942C52.3619 95.7016 52.2539 96.2075 52.144 96.7133C52.0392 97.2192 51.9328 97.7282 51.8456 98.2404C51.7698 98.7542 51.6741 99.2665 51.6339 99.7835C51.5811 100.3 51.5229 100.818 51.506 101.336C51.3732 103.411 51.4171 105.487 51.4487 107.558L51.5543 110.666C51.5865 111.702 51.6527 112.734 51.7004 113.77C51.9071 117.909 52.1885 122.041 52.4783 126.173C52.7638 130.303 53.1167 134.436 53.3799 138.561C53.9579 146.809 54.3208 155.078 54.1594 163.325L54.0801 166.416C54.0736 166.931 54.0375 167.445 54.0107 167.959L53.9262 169.5L53.8417 171.042C53.8066 171.554 53.755 172.065 53.7126 172.577L53.5789 174.11L53.5107 174.878L53.4167 175.641L53.2295 177.165L53.1357 177.927L53.0125 178.682L52.7666 180.193C52.7299 180.445 52.6763 180.693 52.6241 180.942L52.4692 181.687L52.3147 182.43C52.2647 182.679 52.1922 182.919 52.132 183.165L51.9435 183.894C51.911 184.015 51.883 184.14 51.8468 184.258L51.7342 184.613L51.5101 185.322C51.4363 185.56 51.3396 185.778 51.256 186.008C51.2123 186.12 51.1708 186.235 51.1254 186.345L50.9794 186.662C50.9308 186.764 50.8842 186.879 50.8327 186.964C50.787 187.047 50.7189 187.173 50.7106 187.183C50.3452 187.613 50.398 188.258 50.8285 188.623C51.259 188.989 51.9043 188.936 52.2698 188.507C52.2946 188.477 52.3175 188.446 52.3384 188.416L52.3732 188.363Z" fill="#8E531D"/>
<path d="M51.3984 81.4183C52.7706 92.1 52.1141 96.9797 52.047 97.4361L52.0407 97.4712C52.0407 97.4712 55.9718 91.7729 55.6517 78.5284C55.3745 67.1637 57.1667 63.1282 57.6805 62.209C57.6969 62.1835 57.7111 62.1612 57.7234 62.1388C57.7336 62.1197 57.7437 62.1037 57.7539 62.0894C57.7722 62.0575 57.7885 62.0319 57.8009 62.016L57.8111 62C57.5377 62.2856 49.9792 70.3807 51.3984 81.4183Z" fill="#74C93F"/>
<path d="M20.9648 140.755C20.9484 140.709 20.9363 140.659 20.9219 140.613C20.9321 140.658 20.9463 140.707 20.9648 140.755Z" fill="#A4C5C9"/>
<path d="M53.8147 171.399C53.8212 171.319 53.8274 171.24 53.8332 171.158C48.369 167.775 24.4591 152.425 20.9648 140.755C20.9463 140.707 20.9321 140.658 20.9219 140.613H20.8464C20.8766 142.325 24.3025 159.752 53.8147 171.399Z" fill="#68AE3E"/>
<path d="M54.9442 171.838C54.9442 171.838 54.5448 171.6 53.8328 171.158C53.827 171.24 53.8208 171.319 53.8142 171.399C54.1865 171.546 54.5636 171.693 54.9442 171.838Z" fill="#7C4B1F"/>
<path d="M55.3805 173.421C59.8963 171.211 73.8729 164.219 76.9958 160.864C80.8618 156.711 84.3605 150.238 87.368 145.643C74.4955 160.159 59.935 170.217 55.3957 173.193L55.3805 173.421Z" fill="#68AE3E"/>
<path d="M53.9712 174.106C54.0179 174.083 54.5328 173.836 55.3807 173.421L55.3958 173.193C54.5228 173.766 54.0198 174.075 53.9712 174.106Z" fill="#7C4B1F"/>
<path d="M16.0296 125.503C16.0456 125.502 16.0666 125.5 16.0927 125.498C16.0603 125.49 16.0282 125.484 15.9958 125.478C15.9958 125.478 16.0074 125.487 16.0296 125.503Z" fill="#A4C5C9"/>
<path d="M54.1825 156.723C54.1812 156.617 54.1799 156.508 54.1785 156.401C51.5184 152.453 44.6025 142.991 37.8942 140.484C29.3551 137.294 24.168 130.638 23.8008 130.271C23.4389 129.907 19.9842 126.349 16.0925 125.498C16.0665 125.5 16.0455 125.502 16.0295 125.503C16.4945 125.864 21.6101 129.847 22.6571 131.819C24.7429 135.753 31.7488 140.353 39.7477 143.94C44.4532 146.048 47.0118 147.778 54.1825 156.723Z" fill="#68AE3E"/>
<path d="M55.3113 158.142L55.2991 158.12C55.2176 157.989 54.8228 157.357 54.1781 156.401C54.1796 156.508 54.1809 156.617 54.1821 156.723C54.5464 157.178 54.9222 157.651 55.3113 158.142Z" fill="#7C4B1F"/>
<path d="M55.6687 160.708C60.739 154.67 69.5152 150.119 72.1022 148.493C74.9099 146.726 78.5211 142.391 81.5693 137.335C84.6196 132.279 95.2916 130.271 95.2916 130.271C95.2916 130.271 84.4197 130.586 82.1668 134.412C79.9136 138.239 73.0504 145.365 67.7062 147.829C63.4234 149.804 58.0958 156.763 55.6636 160.365C55.6653 160.48 55.6671 160.593 55.6687 160.708Z" fill="#68AE3E"/>
<path d="M54.4483 162.297C54.8236 161.756 55.2323 161.227 55.6687 160.708C55.6671 160.593 55.6654 160.48 55.6636 160.365C55.0606 161.259 54.6355 161.945 54.4483 162.297Z" fill="#7C4B1F"/>
<path d="M53.4265 139.231C53.4188 139.123 53.4113 139.013 53.4037 138.902C50.7259 135.563 42.7839 126.256 35.1702 123.196C25.8298 119.44 17.3457 106.77 16.9602 101.906C17.2007 107.365 22.335 119.484 33.0069 124.541C41.8101 128.712 50.6134 136.598 53.4265 139.231Z" fill="#68AE3E"/>
<path d="M54.3429 140.106L54.3346 140.093C54.2939 140.037 54.1757 139.882 53.9878 139.641C53.8371 139.448 53.6408 139.199 53.4033 138.902C53.411 139.013 53.4185 139.123 53.4262 139.231C53.9701 139.74 54.2901 140.053 54.3429 140.106Z" fill="#7C4B1F"/>
<path d="M52.5927 127.782C52.5854 127.683 52.5781 127.582 52.5709 127.482C50.6478 125.519 45.0286 119.858 41.2303 116.802C36.5935 113.074 27.3814 102.625 24.1333 95.6984C24.4513 96.4212 29.6344 108.048 34.0653 113.724C38.0592 118.844 49.7083 126.043 52.5927 127.782Z" fill="#68AE3E"/>
<path d="M53.2417 128.17C53.2128 128.139 52.9725 127.892 52.5705 127.482C52.5777 127.582 52.5851 127.683 52.5924 127.782C52.9845 128.018 53.2146 128.154 53.2417 128.17Z" fill="#7C4B1F"/>
<path d="M54.8521 143.883C56.8155 143.739 62.3755 141.764 74.7102 127.836C85.6003 115.536 91.4177 111.825 94.0254 110.709C83.4859 114.747 79.5503 118.426 76.4209 122.743C65.4331 137.9 57.3661 142.327 54.8183 143.45C54.8296 143.594 54.8409 143.739 54.8521 143.883Z" fill="#68AE3E"/>
<path d="M54.6103 143.891C54.6838 143.891 54.7644 143.889 54.852 143.883C54.8409 143.739 54.8295 143.594 54.8182 143.45C54.3191 143.669 54.0315 143.763 53.9753 143.785L53.9674 143.789C53.9674 143.789 54.1603 143.891 54.6103 143.891Z" fill="#7C4B1F"/>
<path d="M52.2834 116.615L52.0997 116.59C52.2385 116.728 52.312 116.802 52.312 116.802C52.312 116.802 52.3038 116.738 52.2834 116.615Z" fill="#74C93F"/>
<path d="M51.8373 116.329C51.8327 116.248 51.8281 116.168 51.8236 116.087C50.6062 113.874 45.486 104.965 40.1107 101.429C33.9553 97.3803 29.3694 87.6687 27.9196 79.4859L27.9177 79.4779C27.9135 79.6455 27.9115 79.8114 27.9115 79.979C27.9103 89.2948 34.404 98.8882 38.0719 102.595C41.3297 105.89 49.7478 114.255 51.8373 116.329Z" fill="#68AE3E"/>
<path d="M52.0916 116.582C52.0715 116.543 51.9795 116.369 51.8234 116.087C51.8279 116.168 51.8325 116.248 51.8371 116.329C51.9369 116.428 52.0221 116.513 52.0916 116.582Z" fill="#7C4B1F"/>
<path d="M38.6387 69.8095C38.6427 69.7936 38.6487 69.7776 38.6529 69.7617C38.6712 69.7058 38.6917 69.6532 38.7099 69.6021C38.7099 69.6021 38.7059 69.6117 38.6977 69.6308C38.6957 69.6356 38.6933 69.6404 38.6906 69.6468C38.6756 69.6803 38.6636 69.7186 38.6529 69.7617C38.6487 69.7776 38.6427 69.7936 38.6387 69.8095Z" fill="#A4C5C9"/>
<path d="M38.6975 69.6307C38.7058 69.6112 38.7099 69.6014 38.7099 69.6014L38.6975 69.6307Z" fill="#68AE3E"/>
<path d="M51.5108 101.215C51.5122 101.183 51.5137 101.153 51.5153 101.121C50.6293 99.3749 46.1227 90.616 42.2803 85.5161C38.1004 79.9678 37.6946 72.7201 38.6387 69.8095C38.6427 69.7935 38.6488 69.7776 38.6529 69.7616C38.6636 69.7185 38.6756 69.6802 38.6906 69.6467C38.5374 69.9866 37.5622 72.3036 37.563 75.7934C37.564 79.3295 38.5666 84.072 42.4413 89.1879C48.9842 97.8287 50.993 100.517 51.5108 101.215Z" fill="#68AE3E"/>
<path d="M51.6675 101.427V101.422C51.6546 101.397 51.6024 101.293 51.5151 101.121C51.5135 101.153 51.5121 101.183 51.5107 101.215C51.6181 101.358 51.6613 101.417 51.6675 101.427Z" fill="#7C4B1F"/>
<path d="M57.6804 62.2091C57.6969 62.1835 57.7111 62.1612 57.7234 62.1389C57.7355 62.1197 57.7457 62.1054 57.7538 62.0894C57.7743 62.0591 57.7907 62.032 57.8009 62.016L57.8111 62L57.8009 62.016C57.7885 62.032 57.7722 62.0575 57.7538 62.0894C57.7436 62.1038 57.7336 62.1197 57.7234 62.1389C57.7111 62.1612 57.6969 62.1835 57.6804 62.2091Z" fill="#A4C5C9"/>
<path d="M52.0469 97.4362C54.1673 85.8098 52.9949 81.7136 52.3119 76.6903C51.6901 72.1089 56.7711 63.6724 57.6805 62.2091C57.6969 62.1836 57.7111 62.1612 57.7234 62.1389C57.7336 62.1197 57.7437 62.1038 57.7539 62.0894C57.7722 62.0575 57.7885 62.032 57.8009 62.016L57.8111 62.0001C57.5613 62.2602 51.2245 69.0468 51.2212 78.6418C51.2208 79.5434 51.2765 80.4705 51.3984 81.4184C52.0819 86.7385 52.262 90.6193 52.2624 93.2315C52.2629 95.8644 52.0806 97.208 52.0469 97.4362Z" fill="#68AE3E"/>
<path d="M53.5757 129.698C56.6272 129.011 68.5198 125.642 77.4711 113.425C87.8229 99.2968 82.7682 98.1734 91.1933 89.5038L91.1851 89.5086C90.9037 89.7352 82.6907 96.3559 73.5031 114.544C73.5031 114.544 66.0842 125.423 53.5677 129.615C53.5704 129.643 53.5731 129.671 53.5757 129.698Z" fill="#68AE3E"/>
<path d="M52.8477 129.847C52.9006 129.837 53.1536 129.794 53.5755 129.698C53.573 129.671 53.5703 129.643 53.5676 129.615C53.3292 129.695 53.0898 129.772 52.8477 129.847Z" fill="#7C4B1F"/>
<path d="M52.5569 118.284C54.8851 117.221 65.4382 111.967 70.6323 101.792C76.4861 90.3208 78.4926 84.8619 81.8589 82.13H81.8568C81.5714 82.3327 73.3093 88.2512 67.9837 101.159C63.2132 112.718 54.5645 117.325 52.5555 118.267C52.5559 118.273 52.5564 118.278 52.5569 118.284Z" fill="#68AE3E"/>
<path d="M52.1161 118.479C52.1687 118.457 52.3205 118.393 52.5568 118.284C52.5563 118.278 52.5558 118.273 52.5554 118.267C52.2811 118.394 52.1303 118.455 52.1303 118.455L52.1161 118.479Z" fill="#7C4B1F"/>
<path d="M51.7517 105.193C53.1824 103.908 59.8221 97.6005 64.3113 87.6209C69.3598 76.3966 71.048 72.618 73.0504 71.8105L73.0564 71.8089C73.0564 71.8089 72.5814 71.8696 71.8189 72.2015C72.5366 71.9238 72.9893 71.8233 73.0504 71.8105C71.048 72.618 69.3598 76.3966 64.3113 87.6209C59.8221 97.6005 53.1824 103.908 51.7517 105.193ZM51.7509 105.163C51.8541 105.046 51.9854 104.883 52.1446 104.663C51.9875 104.851 51.8548 105.008 51.75 105.129C51.7503 105.14 51.7506 105.151 51.7509 105.163Z" fill="#A4C5C9"/>
<path d="M51.7518 105.193C53.1824 103.908 59.8221 97.6005 64.3113 87.6209C69.3598 76.3966 71.0481 72.6179 73.0504 71.8105C72.9893 71.8233 72.5366 71.9238 71.819 72.2015C71.7965 72.2094 71.7719 72.219 71.7496 72.2286C69.6962 73.1413 65.704 75.9562 63.2388 84.4662C60.3986 94.2702 54.194 102.22 52.1446 104.663C51.9854 104.883 51.8542 105.046 51.751 105.163C51.7511 105.174 51.7514 105.183 51.7518 105.193Z" fill="#68AE3E"/>
<path d="M51.48 105.437L51.4819 105.436L51.4861 105.432L51.4921 105.426L51.4963 105.423L51.5063 105.415L51.5248 105.399L51.5451 105.38L51.5697 105.356C51.615 105.316 51.6761 105.262 51.7517 105.193C51.7514 105.183 51.7511 105.174 51.7509 105.163C51.7506 105.152 51.7503 105.14 51.75 105.129C51.5976 105.305 51.5041 105.408 51.48 105.436V105.437Z" fill="#7C4B1F"/>
<path d="M41.4339 202.975H66.2403C67.7882 202.975 69.0877 201.809 69.2553 200.271L71.6544 178.248C71.8499 176.453 70.4443 174.886 68.6393 174.886H39.0349C37.2299 174.886 35.8243 176.453 36.0199 178.248L38.4187 200.271C38.5865 201.809 39.8861 202.975 41.4339 202.975Z" fill="#D58A18"/>
<path d="M34.3118 182.431H72.9936C74.0301 182.431 74.8702 181.591 74.8702 180.554V176.763C74.8702 175.727 74.0301 174.886 72.9936 174.886H34.3118C33.2755 174.886 32.4352 175.727 32.4352 176.763V180.554C32.4352 181.591 33.2755 182.431 34.3118 182.431Z" fill="#F9A70D"/>
<path d="M225.762 64.4873C223.736 65.7298 215.596 66.4972 203.769 66.3615L205.944 55.2674C207.655 55.0352 210.121 55.1038 213.196 54.7674C222.387 53.7617 232.331 55.2925 233.582 56.3531C240.565 62.2746 227.115 73.2559 218.91 89.9218C218.729 90.2885 214.157 89.4687 213.643 87.5746C214.363 82.1628 216.217 77.8495 218.375 73.3305C221.383 67.0331 228.106 63.0515 225.762 64.4873Z" fill="#1C4767"/>
<path d="M227.592 68.1726C228.778 67.7147 231.533 67.1695 231.948 65.9398C233.05 62.6735 232.858 61.287 231.681 59.918C227.638 56.7527 216.368 56.5005 210.633 55.6166C210.483 55.5938 209.211 55.2465 209.083 55.1942L208.304 53.002L205.496 52L191.956 52.0795C191.956 52.0795 191.217 65.6698 196.899 65.9756C198.038 66.0367 202.316 66.3661 203.769 66.3615C213.754 67.0326 224.85 67.7786 224.85 67.7786C224.85 67.7786 226.3 68.672 227.592 68.1726Z" fill="#28628B"/>
<path d="M232.314 60.849C231.721 60.1342 223.072 61.2505 222.34 62.7746C221.766 63.9688 224.85 67.7786 224.85 67.7786L227.296 80.2967L232.845 98.093C236.392 98.2083 238.881 95.8782 238.881 95.8782C238.881 95.8782 234.711 73.7317 232.314 60.849Z" fill="#28628B"/>
<path d="M192.509 58.1072C192.509 58.1072 196.446 58.3867 197.942 58.0724C197.942 58.0724 198.672 62.9159 199.896 64.0167L199.188 65.6008C199.188 65.6008 195.968 65.6926 194.887 64.4979C194.887 64.4979 192.992 62.4591 192.509 58.1072Z" fill="#1C4767"/>
<path d="M237.01 95.0568L233.611 96.4305L235.795 101.839L239.194 100.465L237.01 95.0568Z" fill="#F7BD94"/>
<path d="M253.568 99.6682L236.87 106.417L236.448 105.372L234.791 100.253C236.247 99.5674 237.045 100.308 237.045 100.308C238.194 100.675 238.128 99.8697 238.128 99.8697C237.735 99.0614 238.309 98.8315 238.309 98.8315L240.057 98.1987L242.266 98.3198L252.087 97.8351C252.087 97.8351 253.48 97.6504 253.56 99.6714" fill="#0D3953"/>
<path d="M253.367 98.6686C253.47 98.9226 253.831 99.8159 253.436 100.175L237.03 106.806L236.497 105.487L253.367 98.6686Z" fill="#F8FFF0"/>
<path d="M238.167 97.9505L242.273 98.3115L248.495 98.0068L248.554 97.983C248.524 98.2669 248.521 98.5528 248.475 98.8361C248.386 99.3744 247.736 99.4536 246.938 99.5779C246.938 99.5779 241.609 100.01 237.625 99.088C237.625 99.088 237.29 99.0432 237.322 98.8323C237.322 98.8323 237.44 98.3165 237.692 98.0796C237.75 98.0141 237.826 97.967 237.91 97.944C237.994 97.9211 238.084 97.9234 238.167 97.9505Z" fill="#0A2E44"/>
<path fill-rule="evenodd" clip-rule="evenodd" d="M244.475 98.0204C244.605 98.0623 244.676 98.2016 244.634 98.3315C244.518 98.6913 244.42 99.0452 244.35 99.3098C244.316 99.4419 244.288 99.5513 244.27 99.6275C244.26 99.6656 244.253 99.6954 244.248 99.7155L244.243 99.7384L244.242 99.744L244.241 99.7457C244.241 99.7457 244.241 99.7457 244.241 99.7457C244.211 99.8787 244.078 99.9617 243.945 99.9309C243.812 99.9002 243.729 99.7675 243.76 99.6345L244.001 99.6901C243.76 99.6345 243.76 99.6345 243.76 99.6345L243.76 99.6321L243.762 99.6257L243.768 99.6014C243.773 99.5802 243.78 99.5493 243.79 99.5101C243.809 99.4316 243.837 99.3195 243.872 99.1843C243.943 98.9144 244.044 98.5511 244.164 98.1797C244.206 98.0498 244.345 97.9784 244.475 98.0204Z" fill="#F8FFF0"/>
<path fill-rule="evenodd" clip-rule="evenodd" d="M246.04 97.9012C246.17 97.9434 246.241 98.0828 246.199 98.2126C246.082 98.5726 245.984 98.9266 245.914 99.1912C245.879 99.3233 245.852 99.4327 245.833 99.5089C245.824 99.547 245.817 99.5768 245.812 99.5969L245.806 99.6197L245.805 99.6254L245.805 99.6271C245.805 99.6271 245.805 99.6271 245.805 99.6271C245.774 99.7601 245.641 99.843 245.508 99.8123C245.375 99.7816 245.292 99.6488 245.323 99.5158L245.564 99.5715C245.323 99.5158 245.323 99.5158 245.323 99.5158L245.324 99.5134L245.325 99.507L245.331 99.4827C245.336 99.4615 245.343 99.4306 245.353 99.3914C245.372 99.3128 245.4 99.2007 245.436 99.0655C245.507 98.7954 245.608 98.4318 245.729 98.0601C245.771 97.9302 245.911 97.8591 246.04 97.9012Z" fill="#F8FFF0"/>
<path fill-rule="evenodd" clip-rule="evenodd" d="M247.635 97.8269C247.765 97.8686 247.837 98.0078 247.795 98.1378C247.679 98.4986 247.581 98.8527 247.511 99.1171C247.477 99.2491 247.449 99.3584 247.43 99.4346C247.421 99.4726 247.414 99.5024 247.409 99.5225L247.404 99.5453L247.402 99.551L247.402 99.5527C247.371 99.6856 247.238 99.7684 247.105 99.7375C246.972 99.7066 246.89 99.5738 246.921 99.4408L247.161 99.4967C246.921 99.4408 246.921 99.4408 246.921 99.4408L246.921 99.4384L246.923 99.432L246.928 99.4078C246.933 99.3867 246.941 99.3559 246.951 99.3167C246.97 99.2383 246.998 99.1264 247.033 98.9914C247.104 98.7218 247.205 98.3586 247.325 97.9867C247.366 97.8567 247.506 97.7852 247.635 97.8269Z" fill="#F8FFF0"/>
<path fill-rule="evenodd" clip-rule="evenodd" d="M242.952 97.9983C243.082 98.0403 243.153 98.1796 243.111 98.3095C242.995 98.6705 242.896 99.0246 242.826 99.2891C242.791 99.4211 242.764 99.5304 242.745 99.6066C242.736 99.6446 242.729 99.6743 242.724 99.6945L242.718 99.7173L242.717 99.7229L242.717 99.7246C242.686 99.8575 242.553 99.9403 242.42 99.9094C242.287 99.8785 242.204 99.7457 242.235 99.6127L242.476 99.6687C242.235 99.6127 242.235 99.6127 242.235 99.6127L242.236 99.6103L242.237 99.6039L242.243 99.5797C242.248 99.5586 242.256 99.5277 242.265 99.4885C242.285 99.4102 242.313 99.2982 242.348 99.1631C242.419 98.8934 242.521 98.5299 242.641 98.1576C242.683 98.0277 242.822 97.9564 242.952 97.9983Z" fill="#F8FFF0"/>
<path fill-rule="evenodd" clip-rule="evenodd" d="M241.446 97.9717C241.575 98.0138 241.647 98.1532 241.604 98.283C241.488 98.6431 241.389 98.9971 241.319 99.2616C241.284 99.3937 241.257 99.5031 241.238 99.5793C241.229 99.6174 241.222 99.6472 241.217 99.6674L241.212 99.6902L241.21 99.6958L241.21 99.6975C241.21 99.6975 241.21 99.6975 241.21 99.6975C241.179 99.8305 241.047 99.9134 240.914 99.8827C240.781 99.852 240.698 99.7193 240.728 99.5863L240.969 99.6419C240.728 99.5863 240.728 99.5863 240.728 99.5863L240.729 99.5839L240.731 99.5775L240.736 99.5531C240.741 99.532 240.749 99.5011 240.758 99.4618C240.778 99.3833 240.806 99.2711 240.841 99.1359C240.912 98.8658 241.014 98.5023 241.134 98.1305C241.176 98.0007 241.316 97.9295 241.446 97.9717Z" fill="#F8FFF0"/>
<path d="M218.52 88.1371L215.05 86.9548L213.17 92.4763L216.64 93.6586L218.52 88.1371Z" fill="#F7BD94"/>
<path d="M228.04 102.453L210.993 96.6445L211.356 95.5775L213.446 90.6198C214.997 91.0529 215.117 92.1346 215.117 92.1346C215.747 93.1643 216.223 92.5115 216.223 92.5115C216.453 91.6427 217.037 91.8435 217.037 91.8435L218.774 92.5076L220.367 94.0436L228.118 100.098C228.118 100.098 229.292 100.869 228.033 102.45" fill="#0D3953"/>
<path d="M228.542 101.566C228.454 101.825 228.143 102.737 227.609 102.751L210.86 97.0439L211.319 95.6971L228.542 101.566Z" fill="#F8FFF0"/>
<path d="M217.506 91.084L220.378 94.0421L225.286 97.8789L225.346 97.8994C225.139 98.095 224.949 98.3092 224.729 98.4937C224.311 98.8432 223.767 98.4779 223.082 98.0504C223.082 98.0504 218.766 94.8934 216.353 91.5909C216.353 91.5909 216.128 91.3381 216.29 91.1992C216.29 91.1992 216.716 90.8856 217.062 90.871C217.148 90.8593 217.237 90.8733 217.316 90.9111C217.394 90.949 217.461 91.0091 217.506 91.084Z" fill="#0A2E44"/>
<path fill-rule="evenodd" clip-rule="evenodd" d="M222.235 95.2611C222.306 95.3778 222.269 95.5298 222.152 95.6007C221.829 95.7971 221.523 96.0007 221.298 96.1556C221.186 96.2329 221.093 96.2978 221.029 96.3433C220.997 96.366 220.973 96.3839 220.956 96.396L220.937 96.4098L220.932 96.4132L220.931 96.4142C220.931 96.4142 220.931 96.4142 220.931 96.4142C220.821 96.4948 220.666 96.4708 220.585 96.3606C220.505 96.2504 220.529 96.0958 220.639 96.0152L220.785 96.2147C220.639 96.0152 220.639 96.0152 220.639 96.0152L220.641 96.0138L220.646 96.0099L220.666 95.9953C220.684 95.9825 220.71 95.964 220.743 95.9406C220.809 95.8937 220.903 95.8272 221.018 95.7481C221.248 95.5901 221.562 95.3811 221.895 95.1784C222.012 95.1074 222.164 95.1445 222.235 95.2611Z" fill="#F8FFF0"/>
<path fill-rule="evenodd" clip-rule="evenodd" d="M223.497 96.1944C223.568 96.3112 223.531 96.4631 223.414 96.5339C223.091 96.73 222.785 96.9333 222.559 97.0881C222.446 97.1653 222.354 97.2302 222.29 97.2757C222.258 97.2984 222.233 97.3163 222.217 97.3284L222.198 97.3422L222.193 97.3456L222.192 97.3466C222.192 97.3466 222.192 97.3466 222.192 97.3466C222.081 97.4271 221.927 97.4032 221.846 97.293C221.766 97.1828 221.79 97.0281 221.9 96.9476L222.046 97.1471C221.9 96.9476 221.9 96.9476 221.9 96.9476L221.902 96.9461L221.907 96.9422L221.927 96.9276C221.945 96.9148 221.971 96.8963 222.004 96.8729C222.07 96.826 222.164 96.7595 222.279 96.6804C222.51 96.5225 222.824 96.3136 223.158 96.1111C223.275 96.0403 223.427 96.0776 223.497 96.1944Z" fill="#F8FFF0"/>
<path fill-rule="evenodd" clip-rule="evenodd" d="M224.753 97.181C224.824 97.2975 224.788 97.4496 224.671 97.5207C224.348 97.718 224.042 97.9217 223.816 98.0763C223.704 98.1536 223.612 98.2184 223.548 98.2638C223.516 98.2865 223.491 98.3043 223.474 98.3164L223.455 98.3301L223.451 98.3336L223.449 98.3346C223.339 98.415 223.184 98.3908 223.104 98.2805C223.023 98.1702 223.048 98.0156 223.158 97.9352L223.303 98.1349C223.158 97.9352 223.158 97.9352 223.158 97.9352L223.16 97.9337L223.165 97.9299L223.185 97.9153C223.203 97.9026 223.229 97.8841 223.262 97.8608C223.327 97.8141 223.422 97.7477 223.537 97.6687C223.767 97.511 224.08 97.3021 224.414 97.0987C224.53 97.0276 224.682 97.0644 224.753 97.181Z" fill="#F8FFF0"/>
<path fill-rule="evenodd" clip-rule="evenodd" d="M221.096 94.2488C221.167 94.3654 221.13 94.5175 221.014 94.5884C220.69 94.7854 220.383 94.9888 220.158 95.1434C220.045 95.2206 219.953 95.2854 219.889 95.3307C219.857 95.3534 219.832 95.3712 219.816 95.3833L219.797 95.397L219.792 95.4005L219.791 95.4015C219.68 95.4819 219.526 95.4577 219.445 95.3474C219.365 95.2371 219.389 95.0825 219.499 95.0021L219.645 95.2018C219.499 95.0021 219.499 95.0021 219.499 95.0021L219.501 95.0006L219.507 94.9968L219.527 94.9822C219.544 94.9695 219.57 94.951 219.603 94.9277C219.669 94.8809 219.763 94.8146 219.878 94.7356C220.109 94.5779 220.423 94.3691 220.757 94.1659C220.874 94.095 221.026 94.1321 221.096 94.2488Z" fill="#F8FFF0"/>
<path fill-rule="evenodd" clip-rule="evenodd" d="M219.974 93.2437C220.044 93.3605 220.007 93.5125 219.89 93.5832C219.567 93.7793 219.261 93.9827 219.035 94.1374C218.923 94.2147 218.83 94.2795 218.766 94.325C218.735 94.3477 218.71 94.3656 218.693 94.3777L218.674 94.3915L218.669 94.3949L218.668 94.3959C218.668 94.3959 218.668 94.3959 218.668 94.3959C218.558 94.4765 218.403 94.4525 218.322 94.3423C218.242 94.2321 218.266 94.0774 218.376 93.9969L218.522 94.1964C218.376 93.9969 218.376 93.9969 218.376 93.9969L218.378 93.9954L218.383 93.9916L218.404 93.9769C218.421 93.9642 218.447 93.9456 218.48 93.9222C218.546 93.8753 218.64 93.8088 218.756 93.7297C218.986 93.5718 219.3 93.3629 219.634 93.1604C219.751 93.0896 219.903 93.127 219.974 93.2437Z" fill="#F8FFF0"/>
<path d="M210.506 39.6015C210.506 39.6015 214.451 59.2119 211.012 73.9681C211.012 73.9681 210.106 77.9716 208.842 78.78C208.842 78.78 207.234 79.2698 208.359 73.7417C208.359 73.7417 207.701 74.2707 206.942 74.1141L209.846 70.7284C209.846 70.7284 209.56 62.7594 205.933 45.9792C205.931 45.9813 205.169 39.3465 210.506 39.6015Z" fill="#F7BD94"/>
<path d="M209.035 10.4435C209.035 10.4435 211.709 18.167 210.769 29.7629C210.769 29.7629 211.795 35.3895 199.142 35.3144C186.488 35.3895 187.509 29.7629 187.509 29.7629C186.569 18.1713 189.243 10.4435 189.243 10.4435C189.243 10.4435 199.142 5.2264 209.035 10.4435Z" fill="#713F28"/>
<path d="M202.156 26.299H195.634V32.7582H202.156V26.299Z" fill="#F7BD94"/>
<path d="M195.634 29.7746V26.299H202.156V31.4114C199.624 31.6632 196.914 31.259 195.634 29.7746Z" fill="#E79B74"/>
<path d="M192.009 21.9632C191.789 22.1697 191.504 22.2932 191.203 22.3123C190.274 22.4023 189.405 21.6204 189.266 20.5655C189.128 19.5107 189.765 18.586 190.694 18.4971C190.912 18.4795 191.13 18.5054 191.338 18.5734C191.545 18.6413 191.737 18.7499 191.902 18.8928C192.399 19.3097 192.509 20.1677 192.47 20.7719C192.442 21.2543 192.302 21.6775 192.009 21.9632Z" fill="#F7BD94"/>
<path d="M191.182 19.4345C191.065 18.8854 190.002 19.5404 190.208 19.8345C190.326 20.0027 190.537 20.1127 190.706 20.2217C190.812 20.2801 190.904 20.3612 190.975 20.4592C191.046 20.5573 191.095 20.6698 191.117 20.7888C191.125 20.8206 191.143 20.9158 191.117 20.9422C190.983 21.0586 190.447 20.5709 190.329 20.4693C190.1 20.2672 190.029 19.8863 190.095 19.5964C190.167 19.2896 190.346 19.1277 190.666 19.1129C190.919 19.0992 191.177 19.0875 191.195 19.4028C191.195 19.4092 191.195 19.4621 191.184 19.4345H191.182Z" fill="#E79B74"/>
<path d="M190.886 20.0503C190.991 19.9191 191.111 20.0048 191.24 20.0768C191.354 20.1456 191.438 20.2542 191.477 20.3815C191.582 20.6886 191.569 21.0238 191.441 21.3221C191.388 21.4297 191.307 21.5219 191.208 21.5897C191.109 21.6575 190.994 21.6987 190.874 21.7093C190.537 21.7379 190.402 21.4511 190.358 21.1665C190.345 21.0914 190.319 20.9105 190.388 20.8544C190.458 20.7983 190.534 20.9137 190.595 20.9602C190.683 21.0177 190.788 21.0445 190.893 21.0364C190.989 21.0303 191.082 21.0019 191.165 20.9534C191.248 20.9049 191.318 20.8377 191.37 20.7571C191.389 20.7285 191.403 20.697 191.411 20.664C191.433 20.8512 191.426 20.8925 191.396 20.792C191.376 20.7467 191.35 20.7046 191.317 20.6671C191.225 20.5476 191.082 20.4725 190.982 20.3593C190.933 20.3064 190.833 20.1149 190.886 20.0493V20.0503Z" fill="#E79B74"/>
<path d="M205.817 21.9632C206.036 22.1679 206.32 22.2902 206.619 22.3092C207.549 22.3991 208.417 21.6172 208.556 20.5624C208.694 19.5075 208.058 18.5828 207.129 18.4939C206.912 18.4762 206.693 18.5021 206.485 18.57C206.278 18.638 206.086 18.7466 205.921 18.8897C205.423 19.3065 205.313 20.1646 205.352 20.7687C205.384 21.2543 205.525 21.6775 205.817 21.9632Z" fill="#F7BD94"/>
<path d="M206.644 19.4345C206.76 18.8854 207.822 19.5404 207.618 19.8345C207.5 20.0027 207.289 20.1127 207.12 20.2217C207.013 20.2797 206.921 20.3607 206.85 20.4588C206.779 20.5569 206.73 20.6696 206.708 20.7888C206.701 20.8206 206.683 20.9158 206.708 20.9422C206.843 21.0586 207.379 20.5709 207.495 20.4693C207.725 20.2672 207.797 19.8863 207.729 19.5964C207.657 19.2896 207.478 19.1277 207.16 19.1129C206.907 19.0992 206.648 19.0875 206.631 19.4028C206.631 19.4092 206.631 19.4621 206.642 19.4345H206.644Z" fill="#E79B74"/>
<path d="M206.939 20.0503C206.833 19.9191 206.714 20.0048 206.585 20.0768C206.47 20.1456 206.386 20.2541 206.347 20.3815C206.243 20.6888 206.256 21.0238 206.384 21.3221C206.437 21.4297 206.517 21.5219 206.617 21.5897C206.716 21.6575 206.831 21.6987 206.951 21.7093C207.288 21.7379 207.423 21.4511 207.467 21.1665C207.479 21.0914 207.506 20.9105 207.436 20.8544C207.366 20.7983 207.289 20.9137 207.225 20.9602C207.137 21.0179 207.032 21.0447 206.927 21.0364C206.831 21.0302 206.738 21.0017 206.655 20.9532C206.572 20.9047 206.502 20.8376 206.449 20.7571C206.431 20.7282 206.417 20.6969 206.408 20.664C206.388 20.8512 206.393 20.8925 206.425 20.792C206.445 20.7467 206.471 20.7046 206.503 20.6671C206.595 20.5476 206.737 20.4725 206.839 20.3593C206.886 20.3064 206.987 20.1149 206.935 20.0493L206.939 20.0503Z" fill="#E79B74"/>
<path d="M198.85 6.58066C198.202 6.59124 191.263 6.84728 190.812 12.5595C190.812 12.5595 191.104 22.4065 192.276 25.4547C192.276 25.4547 192.497 26.4788 194.12 27.649L196.216 28.8911C196.216 28.8911 198.063 29.7111 198.847 29.7629C199.631 29.7111 201.914 28.5261 201.914 28.5261L203.577 27.649C204.554 26.9411 205.292 25.9515 205.692 24.8125C206.865 21.7643 206.889 12.5595 206.889 12.5595C206.439 6.84728 199.499 6.59124 198.85 6.58066Z" fill="#F7BD94"/>
<path d="M202.948 17.6317C202.948 18.1036 202.736 18.4866 202.484 18.4866C202.233 18.4866 202.021 18.1036 202.021 17.6317C202.021 17.1598 202.233 16.7758 202.484 16.7758C202.736 16.7758 202.948 17.1588 202.948 17.6317Z" fill="#56301B"/>
<path d="M194.861 17.6317C194.861 18.1036 195.073 18.4866 195.324 18.4866C195.576 18.4866 195.788 18.1036 195.788 17.6317C195.788 17.1598 195.576 16.7758 195.324 16.7758C195.073 16.7758 194.861 17.1588 194.861 17.6317Z" fill="#56301B"/>
<path d="M204.378 10.4054C204.378 10.4054 205.267 9.95362 205.686 9.67325C205.686 9.67325 204.794 10.3081 204.758 10.8847L204.378 10.4054Z" fill="#F7BD94"/>
<path d="M201.412 22.6435C201.01 22.6784 200.082 22.7409 198.913 22.7356C197.743 22.7303 196.816 22.6784 196.415 22.6435C196.383 22.6417 196.352 22.648 196.324 22.6619C196.296 22.6757 196.272 22.6966 196.254 22.7225C196.237 22.7484 196.226 22.7785 196.224 22.8097C196.221 22.8409 196.227 22.8722 196.24 22.9006C196.834 25.114 197.988 25.6335 198.913 25.6335C199.908 25.6335 200.992 25.114 201.585 22.9006C201.655 22.6414 201.412 22.6435 201.412 22.6435Z" fill="#481214"/>
<path d="M200.762 24.7088C200.208 25.424 199.543 25.6335 198.913 25.6335C198.328 25.6335 197.65 25.4219 197.081 24.7088C197.081 24.7088 198.703 23.6434 200.762 24.7088Z" fill="#B54C6B"/>
<path d="M201.109 22.6668C200.629 22.7007 199.848 22.7398 198.913 22.7356C197.978 22.7314 197.197 22.7007 196.717 22.6668C196.717 22.6668 196.593 23.5915 198.913 23.5397C198.913 23.5397 201.002 23.6095 201.109 22.6668Z" fill="#F8FFF0"/>
<path d="M204.912 52.0173C207.967 46.6468 209.023 36.821 209.023 36.821C208.865 35.2202 206.975 34.5854 206.975 34.5854L202.156 32.754H195.634L190.816 34.5854C190.816 34.5854 188.924 35.2202 188.77 36.821C188.77 36.821 189.828 46.6511 192.881 52.0173C192.878 52.0173 197.882 55.5681 204.912 52.0173Z" fill="#F7BD94"/>
<path d="M196.336 15.2057C195.324 14.865 194.056 15.2194 193.649 15.5051C193.601 15.686 193.681 16.0013 193.834 16.0605C194.876 15.6722 196.462 15.9822 196.462 15.9822C196.625 15.2152 196.336 15.2057 196.336 15.2057Z" fill="#713F28"/>
<path d="M201.276 15.2057C202.289 14.865 203.557 15.2194 203.964 15.5051C204.011 15.686 203.932 16.0013 203.779 16.0605C202.737 15.6722 201.151 15.9822 201.151 15.9822C200.988 15.2152 201.276 15.2057 201.276 15.2057Z" fill="#713F28"/>
<path d="M196.219 8.93372C196.219 8.93372 192.072 10.9069 191.158 18.4866C191.158 18.4866 190.068 18.2951 189.627 19.1076C189.627 19.1076 186.366 6.21884 194.703 4.54188C194.703 4.53765 196.571 6.21884 196.219 8.93372Z" fill="#6B3C25"/>
<path d="M195.634 9.35164C195.634 9.35164 198.115 12.7468 205.421 14.209C205.95 16.9599 205.844 16.5811 206.393 18.8728C206.393 18.8728 207.196 18.1713 208.075 18.9606C208.075 18.9606 211.381 7.73286 205.686 4.8085C205.686 4.8085 202.24 1.46621 195.638 3.86897C195.634 3.86897 192.374 5.01693 195.634 9.35164Z" fill="#713F28"/>
<path d="M202.156 32.7571L206.975 34.5854C206.975 34.5854 208.865 35.2202 209.023 36.821C209.023 36.821 209.048 46.6511 205.993 52.0173C198.962 55.5681 191.586 52.0173 191.586 52.0173C188.532 46.6468 188.77 36.821 188.77 36.821C188.924 35.2202 190.816 34.5854 190.816 34.5854L195.634 32.754C195.634 32.754 195.761 34.3875 199.142 34.4394C199.142 34.4426 202 34.3886 202.156 32.7571Z" fill="#F29EBB"/>
<path d="M196.068 51.5846C195.196 51.4206 194.083 51.2418 193.473 50.5181C192.898 49.8336 192.728 48.857 192.91 47.9873C193.283 46.2014 195.125 46.1019 196.374 45.1698C194.509 45.064 192.269 45.4756 190.722 44.2663C189.737 43.4971 189.181 42.3618 189.009 41.1419C188.821 39.7993 189.136 38.4419 188.945 37.096C188.943 37.0817 188.943 37.0671 188.945 37.0527H188.936C188.882 37.0527 188.823 37.0527 188.764 37.0527C188.751 38.5625 188.808 47.1356 191.586 52.0173C191.586 52.0173 198.962 55.568 205.993 52.0173C206.427 51.2389 206.793 50.4247 207.088 49.5839C205.954 50.3681 204.71 50.9792 203.397 51.3973C200.974 52.1295 198.53 52.0427 196.068 51.5846Z" fill="#EF7DA8"/>
<path d="M181.62 51.5346C187.094 44.9943 191.644 38.019 191.644 38.019C187.901 34.2037 183.951 39.5834 183.951 39.5834C182.021 42.8424 180.263 45.6791 178.697 48.1178C178.698 48.1197 176.6 51.356 181.62 51.5346Z" fill="#F7BD94"/>
<path d="M192.276 58.1294C188.037 56.6757 183.564 54.2967 179.405 51.6015C175.317 48.0487 182.466 48.2757 182.466 48.2757C190.29 54.8712 193.092 56.4784 193.092 56.4784C193.092 56.4784 193.846 58.3331 192.276 58.1294Z" fill="#F7BD94"/>
<path d="M192.121 57.9677L199.303 60.928C199.303 60.928 200.172 59.9857 195.143 56.8867C195.143 56.8867 196.84 56.9882 197.248 56.3282C197.248 56.3282 193.792 55.3253 191.406 56.45C191.406 56.45 190.666 57.3623 192.121 57.9677Z" fill="#F7BD94"/>
<path d="M190.991 35.0636C194.28 37.0474 191.791 41.0647 191.791 41.0647C190.674 43.2611 184.969 47.7048 184.969 47.7048C181.373 44.1647 181.726 40.9007 181.726 40.9007C181.726 40.9007 187.017 33.903 190.991 35.0636Z" fill="#F29EBB"/>
<path d="M207.798 34.8922C203.96 34.7864 203.884 39.5147 203.884 39.5147C203.649 41.9682 206.05 48.7903 206.05 48.7903C210.986 47.7482 212.45 44.8101 212.45 44.8101C212.45 44.8101 211.772 36.0666 207.798 34.8922Z" fill="#F29EBB"/>
<path d="M198.55 18.8812C198.505 18.961 198.452 19.0368 198.394 19.1076C198.316 19.2134 198.237 19.3192 198.16 19.425C198.129 19.4674 198.098 19.5086 198.069 19.552C198.059 19.5668 198.049 19.5816 198.039 19.5975L198.031 19.6123L198.039 19.5975C198.033 19.6091 198.019 19.6155 198.039 19.5975C197.934 19.6589 197.834 19.7279 197.739 19.8038C197.677 19.8692 197.641 19.9544 197.637 20.0441C197.633 20.1338 197.661 20.2219 197.716 20.2926L197.695 20.2143C197.709 20.2819 197.735 20.3461 197.774 20.4032C197.812 20.4602 197.862 20.509 197.92 20.5465C198.018 20.6296 198.141 20.678 198.27 20.6841L198.192 20.6629C198.294 20.7198 198.403 20.7635 198.516 20.793C198.677 20.8248 198.834 20.7624 198.844 20.5814C198.844 20.5394 198.828 20.499 198.798 20.4692C198.768 20.4395 198.728 20.4227 198.686 20.4227C198.644 20.4227 198.603 20.4395 198.573 20.4692C198.544 20.499 198.527 20.5394 198.527 20.5814C198.53 20.5623 198.538 20.5443 198.55 20.5291C198.562 20.5139 198.578 20.502 198.596 20.4947C198.576 20.5 198.63 20.4947 198.607 20.4947C198.585 20.4947 198.571 20.4947 198.607 20.4947C198.565 20.4875 198.524 20.4755 198.485 20.4587L198.456 20.4481C198.48 20.4577 198.456 20.4481 198.456 20.4481L198.401 20.4227L198.356 20.4005C198.341 20.3926 198.326 20.3858 198.31 20.3804C198.328 20.3804 198.238 20.373 198.254 20.3751C198.206 20.3667 198.161 20.3467 198.123 20.3169C198.099 20.2979 198.078 20.2767 198.057 20.2556C198.036 20.2344 198.03 20.2249 198.015 20.2122C198 20.1995 197.986 20.1783 198.004 20.2048C198.033 20.2482 197.984 20.1371 197.985 20.1392C197.979 20.1279 197.972 20.1169 197.965 20.1064C197.959 20.0958 197.953 20.0852 197.948 20.0746C197.958 20.0958 197.948 20.0746 197.948 20.0746C197.945 20.0657 197.943 20.0565 197.942 20.0471C197.948 20.0852 197.942 20.0471 197.942 20.0471C197.942 20.0471 197.942 20.0757 197.942 20.0556C197.942 20.0355 197.942 20.0556 197.942 20.0556C197.966 20.0313 197.922 20.0704 197.956 20.0387C197.963 20.0323 197.998 20.0027 197.969 20.0239C198.001 20.0006 198.035 19.9805 198.069 19.9604C198.156 19.9188 198.233 19.8588 198.295 19.7848C198.371 19.6705 198.451 19.5594 198.533 19.4504C198.638 19.3257 198.733 19.1931 198.818 19.0537C198.837 19.0178 198.842 18.9761 198.831 18.9368C198.821 18.8976 198.796 18.8637 198.762 18.8421C198.726 18.8224 198.684 18.8173 198.645 18.8278C198.605 18.8382 198.572 18.8634 198.55 18.8981V18.8812Z" fill="#E79B74"/>
<path d="M193.542 20.2344C193.542 20.7201 194.2 21.1126 195.011 21.1126C195.822 21.1126 196.48 20.7201 196.48 20.2344C196.48 19.7488 195.823 19.3573 195.011 19.3573C194.199 19.3573 193.542 19.7499 193.542 20.2344Z" fill="#F4A88B"/>
<path d="M201.22 20.2344C201.22 20.7201 201.878 21.1126 202.689 21.1126C203.501 21.1126 204.159 20.7201 204.159 20.2344C204.159 19.7488 203.502 19.3573 202.689 19.3573C201.877 19.3573 201.22 19.7499 201.22 20.2344Z" fill="#F4A88B"/>
<path d="M85.8245 210.046L81.7203 210.046L81.7203 216.577L85.8245 216.577L85.8245 210.046Z" fill="#F7BD94"/>
<path d="M101.08 221.781L80.9162 221.781L80.9162 220.519L81.3424 214.509C83.1421 214.409 83.6598 215.512 83.6598 215.512C84.699 216.375 84.9681 215.512 84.9681 215.512C84.8989 214.508 85.5904 214.509 85.5904 214.509L87.6706 214.586L89.9133 215.639L100.312 219.257C100.312 219.257 101.835 219.649 101.071 221.781" fill="#0D3953"/>
<path d="M101.291 220.659C101.291 220.966 101.291 222.044 100.731 222.252L80.9199 222.252L80.9199 220.659L101.291 220.659Z" fill="#F8FFF0"/>
<path d="M85.8127 213.535L89.9243 215.633L96.5105 217.927L96.5815 217.927C96.432 218.21 96.3086 218.505 96.1423 218.78C95.8246 219.302 95.1162 219.111 94.236 218.905C94.236 218.905 88.5226 217.118 84.7736 214.489C84.7736 214.489 84.4446 214.302 84.5661 214.096C84.5661 214.096 84.9044 213.61 85.2651 213.47C85.3528 213.426 85.4514 213.409 85.5487 213.421C85.6459 213.433 85.7377 213.472 85.8127 213.535Z" fill="#0A2E44"/>
<path fill-rule="evenodd" clip-rule="evenodd" d="M92.3319 216.255C92.4492 216.353 92.4648 216.527 92.3668 216.645C92.0954 216.969 91.8449 217.295 91.6619 217.541C91.5705 217.664 91.4962 217.766 91.4449 217.837C91.4192 217.873 91.3993 217.9 91.3859 217.919L91.3707 217.941L91.367 217.946L91.3659 217.948C91.3659 217.948 91.3659 217.948 91.3659 217.948C91.2782 218.073 91.1056 218.103 90.9805 218.016C90.8553 217.928 90.8249 217.755 90.9126 217.63L91.1392 217.789C90.9126 217.63 90.9126 217.63 90.9126 217.63L90.9142 217.628L90.9184 217.622L90.9346 217.599C90.9487 217.579 90.9693 217.55 90.9957 217.514C91.0486 217.44 91.1247 217.336 91.2182 217.21C91.4049 216.96 91.662 216.625 91.9421 216.29C92.0401 216.172 92.2146 216.157 92.3319 216.255Z" fill="#F8FFF0"/>
<path fill-rule="evenodd" clip-rule="evenodd" d="M94.007 216.788C94.1241 216.886 94.1394 217.061 94.0412 217.178C93.769 217.502 93.5181 217.828 93.3349 218.074C93.2434 218.196 93.1691 218.299 93.1177 218.37C93.0921 218.405 93.0722 218.433 93.0588 218.452L93.0436 218.474L93.0398 218.479L93.0388 218.481C93.0388 218.481 93.0388 218.481 93.0388 218.481C92.9511 218.606 92.7785 218.636 92.6533 218.548C92.5282 218.461 92.4978 218.288 92.5855 218.163L92.8121 218.322C92.5855 218.163 92.5855 218.163 92.5855 218.163L92.5871 218.161L92.5913 218.155L92.6075 218.132C92.6216 218.112 92.6422 218.083 92.6687 218.046C92.7216 217.973 92.7978 217.868 92.8914 217.743C93.0784 217.492 93.336 217.157 93.6172 216.822C93.7154 216.705 93.8899 216.69 94.007 216.788Z" fill="#F8FFF0"/>
<path fill-rule="evenodd" clip-rule="evenodd" d="M95.6939 217.38C95.8113 217.478 95.8272 217.652 95.7293 217.77C95.4578 218.096 95.2071 218.422 95.0241 218.667C94.9327 218.79 94.8583 218.892 94.807 218.963C94.7813 218.998 94.7614 219.026 94.748 219.045L94.7328 219.067L94.7291 219.072L94.728 219.074C94.6401 219.199 94.4675 219.229 94.3424 219.141C94.2174 219.053 94.1872 218.88 94.2751 218.755L94.5015 218.914C94.2751 218.755 94.2751 218.755 94.2751 218.755L94.2767 218.753L94.2809 218.747L94.297 218.724C94.3111 218.705 94.3317 218.676 94.3582 218.639C94.411 218.566 94.4871 218.461 94.5805 218.336C94.7672 218.086 95.0242 217.751 95.3042 217.415C95.402 217.298 95.5765 217.282 95.6939 217.38Z" fill="#F8FFF0"/>
<path fill-rule="evenodd" clip-rule="evenodd" d="M90.7602 215.593C90.8774 215.691 90.893 215.865 90.795 215.983C90.5226 216.309 90.2715 216.635 90.0883 216.88C89.9968 217.002 89.9224 217.104 89.8711 217.176C89.8454 217.211 89.8255 217.239 89.8121 217.258L89.7969 217.279L89.7931 217.285L89.792 217.286C89.7042 217.411 89.5316 217.441 89.4065 217.353C89.2815 217.266 89.2513 217.093 89.3392 216.968L89.5656 217.127C89.3392 216.968 89.3392 216.968 89.3392 216.968L89.3408 216.966L89.345 216.96L89.3611 216.937C89.3752 216.917 89.3959 216.888 89.4223 216.852C89.4752 216.778 89.5514 216.674 89.6449 216.549C89.8319 216.299 90.0894 215.964 90.3704 215.628C90.4684 215.51 90.643 215.495 90.7602 215.593Z" fill="#F8FFF0"/>
<path fill-rule="evenodd" clip-rule="evenodd" d="M89.2076 214.933C89.3247 215.031 89.34 215.206 89.2418 215.323C88.9695 215.648 88.7186 215.974 88.5354 216.219C88.4439 216.342 88.3696 216.444 88.3183 216.515C88.2926 216.551 88.2727 216.579 88.2593 216.597L88.2442 216.619L88.2404 216.624L88.2393 216.626C88.2393 216.626 88.2393 216.626 88.2393 216.626C88.1516 216.751 87.9791 216.781 87.8539 216.694C87.7287 216.606 87.6984 216.433 87.786 216.308L88.0127 216.467C87.786 216.308 87.786 216.308 87.786 216.308L87.7876 216.306L87.7919 216.3L87.808 216.277C87.8221 216.257 87.8428 216.228 87.8692 216.192C87.9221 216.118 87.9983 216.014 88.0919 215.888C88.2789 215.638 88.5366 215.303 88.8177 214.967C88.9159 214.85 89.0905 214.835 89.2076 214.933Z" fill="#F8FFF0"/>
<path d="M71.7609 210.046L75.865 210.046L75.865 216.577L71.7609 216.577L71.7609 210.046Z" fill="#F7BD94"/>
<path d="M56.5052 221.781L76.6691 221.781L76.6691 220.519L76.243 214.509C74.4432 214.409 73.9255 215.512 73.9255 215.512C72.8864 216.375 72.6173 215.512 72.6173 215.512C72.6864 214.508 71.9949 214.509 71.9949 214.509L69.9148 214.586L67.6721 215.639L57.2733 219.257C57.2733 219.257 55.7501 219.649 56.5145 221.781" fill="#0D3953"/>
<path d="M56.2941 220.659C56.2941 220.966 56.2941 222.044 56.8548 222.252L76.6655 222.252L76.6655 220.659L56.2941 220.659Z" fill="#F8FFF0"/>
<path d="M71.7726 213.535L67.6609 215.633L61.0748 217.927L61.0038 217.927C61.1533 218.21 61.2767 218.505 61.443 218.78C61.7607 219.301 62.469 219.111 63.3493 218.905C63.3493 218.905 69.0626 217.118 72.8117 214.489C72.8117 214.489 73.1406 214.302 73.0192 214.096C73.0192 214.096 72.6809 213.61 72.3202 213.47C72.2325 213.426 72.1339 213.409 72.0366 213.421C71.9393 213.433 71.8476 213.472 71.7726 213.535Z" fill="#0A2E44"/>
<path fill-rule="evenodd" clip-rule="evenodd" d="M65.2534 216.255C65.1362 216.353 65.1205 216.527 65.2185 216.645C65.49 216.969 65.7405 217.295 65.9235 217.541C66.0149 217.664 66.0891 217.766 66.1405 217.837C66.1661 217.873 66.186 217.9 66.1994 217.919L66.2146 217.941L66.2184 217.946L66.2194 217.948C66.2194 217.948 66.2194 217.948 66.2194 217.948C66.3071 218.073 66.4797 218.103 66.6049 218.016C66.73 217.928 66.7604 217.755 66.6727 217.63L66.4461 217.789C66.6727 217.63 66.6727 217.63 66.6727 217.63L66.6712 217.628L66.6669 217.622L66.6508 217.599C66.6367 217.579 66.6161 217.55 66.5896 217.514C66.5368 217.44 66.4606 217.336 66.3672 217.21C66.1804 216.96 65.9233 216.625 65.6432 216.29C65.5452 216.172 65.3707 216.157 65.2534 216.255Z" fill="#F8FFF0"/>
<path fill-rule="evenodd" clip-rule="evenodd" d="M63.5783 216.788C63.4612 216.886 63.4459 217.061 63.5441 217.178C63.8164 217.502 64.0673 217.828 64.2505 218.074C64.342 218.196 64.4163 218.299 64.4676 218.37C64.4933 218.405 64.5132 218.433 64.5266 218.452L64.5417 218.474L64.5455 218.479L64.5466 218.481C64.5466 218.481 64.5466 218.481 64.5466 218.481C64.6343 218.606 64.8068 218.636 64.932 218.548C65.0572 218.461 65.0876 218.288 64.9999 218.163L64.7732 218.322C64.9999 218.163 64.9999 218.163 64.9999 218.163L64.9983 218.161L64.9941 218.155L64.9779 218.132C64.9638 218.112 64.9431 218.083 64.9167 218.046C64.8638 217.973 64.7876 217.868 64.694 217.743C64.507 217.492 64.2493 217.157 63.9682 216.822C63.87 216.705 63.6954 216.69 63.5783 216.788Z" fill="#F8FFF0"/>
<path fill-rule="evenodd" clip-rule="evenodd" d="M61.8914 217.38C61.774 217.478 61.7581 217.652 61.856 217.77C62.1275 218.096 62.3782 218.422 62.5612 218.667C62.6526 218.79 62.7269 218.892 62.7783 218.963C62.804 218.998 62.8239 219.026 62.8373 219.045L62.8525 219.067L62.8562 219.072L62.8573 219.074C62.9452 219.199 63.1178 219.229 63.2429 219.141C63.3679 219.053 63.3981 218.88 63.3102 218.755L63.0838 218.914C63.3102 218.755 63.3102 218.755 63.3102 218.755L63.3086 218.753L63.3044 218.747L63.2883 218.724C63.2742 218.705 63.2536 218.676 63.2271 218.639C63.1743 218.566 63.0982 218.461 63.0048 218.336C62.8181 218.086 62.5611 217.751 62.2811 217.415C62.1833 217.298 62.0088 217.282 61.8914 217.38Z" fill="#F8FFF0"/>
<path fill-rule="evenodd" clip-rule="evenodd" d="M66.8251 215.593C66.7079 215.691 66.6923 215.865 66.7903 215.983C67.0628 216.309 67.3138 216.635 67.497 216.88C67.5885 217.002 67.6629 217.104 67.7142 217.176C67.7399 217.211 67.7598 217.239 67.7732 217.258L67.7884 217.279L67.7922 217.285L67.7933 217.286C67.8811 217.411 68.0537 217.441 68.1788 217.353C68.3038 217.266 68.334 217.093 68.2461 216.968L68.0197 217.127C68.2461 216.968 68.2461 216.968 68.2461 216.968L68.2446 216.966L68.2403 216.96L68.2242 216.937C68.2101 216.917 68.1894 216.888 68.163 216.852C68.1101 216.778 68.034 216.674 67.9404 216.549C67.7534 216.299 67.4959 215.964 67.2149 215.628C67.1169 215.51 66.9424 215.495 66.8251 215.593Z" fill="#F8FFF0"/>
<path fill-rule="evenodd" clip-rule="evenodd" d="M68.3778 214.933C68.2607 215.031 68.2454 215.206 68.3436 215.323C68.6158 215.648 68.8667 215.974 69.0499 216.219C69.1414 216.342 69.2157 216.444 69.2671 216.515C69.2927 216.551 69.3126 216.579 69.326 216.597L69.3412 216.619L69.3449 216.624L69.346 216.626C69.346 216.626 69.346 216.626 69.346 216.626C69.4337 216.751 69.6063 216.781 69.7315 216.694C69.8566 216.606 69.887 216.433 69.7993 216.308L69.5727 216.467C69.7993 216.308 69.7993 216.308 69.7993 216.308L69.7977 216.306L69.7935 216.3L69.7773 216.277C69.7632 216.257 69.7426 216.228 69.7161 216.192C69.6632 216.118 69.587 216.013 69.4934 215.888C69.3064 215.638 69.0488 215.303 68.7676 214.967C68.6694 214.85 68.4949 214.835 68.3778 214.933Z" fill="#F8FFF0"/>
<path d="M88.7539 104.377C87.6833 98.9106 82.6282 97.3785 82.6282 97.3785L75.1552 97.3674C75.1552 97.3674 69.7474 98.8839 68.6605 104.347L88.7539 104.377Z" fill="#F7BD94"/>
<path d="M68.6462 141.891C68.6462 141.891 69.087 163.97 69.7244 175.654C69.7244 175.654 71.8271 179.803 77.0333 179.306C77.0333 179.306 77.7084 159.319 78.3622 148.061C78.3622 148.062 78.095 139.851 68.6462 141.891Z" fill="#2D324B"/>
<path d="M76.3854 212.781L77.0273 179.307C77.0273 179.307 74.3593 174.683 69.7184 175.655L70.7722 213.101C70.7722 213.101 74.6087 213.925 76.3854 212.781Z" fill="#2D324B"/>
<path d="M76.3854 212.781C74.6075 213.925 70.7781 213.101 70.7781 213.101C70.7781 213.101 70.148 213.161 70.1646 212.366L70.1669 210.826C70.1669 210.826 74.3836 211.621 76.822 210.638L76.8198 212.114C76.8198 212.114 76.6532 212.634 76.3854 212.781Z" fill="#444C70"/>
<path d="M88.929 141.921C88.929 141.921 88.4225 163.999 87.7502 175.68C87.7502 175.68 85.6352 179.823 80.4305 179.311C80.4305 179.311 79.8149 159.322 79.1946 148.062C79.1946 148.063 79.4851 139.853 88.929 141.921Z" fill="#2D324B"/>
<path d="M80.9786 212.788L80.4364 179.312C80.4364 179.312 83.1182 174.696 87.7561 175.682L86.5909 213.125C86.5909 213.125 82.7519 213.938 80.9786 212.788Z" fill="#2D324B"/>
<path d="M80.9787 212.788C82.7532 213.938 86.585 213.125 86.585 213.125C86.585 213.125 87.2149 213.186 87.2006 212.391L87.2029 210.851C87.2029 210.851 82.9839 211.634 80.5485 210.643L80.5463 212.119C80.5463 212.119 80.7148 212.64 80.9787 212.788Z" fill="#444C70"/>
<path d="M109.275 107.923C107.867 112.862 105.419 118.127 102.587 123.052C98.772 127.946 98.5983 119.75 98.5983 119.75C105.67 110.394 107.335 107.087 107.335 107.087C107.335 107.087 109.413 106.114 109.275 107.923Z" fill="#F7BD94"/>
<path d="M63.6667 111.82C63.6667 111.82 59.9205 136.99 64.4414 153.756C64.4414 153.756 65.6354 158.305 67.1154 159.18C67.1154 159.18 68.9761 159.678 67.4698 153.393C67.4698 153.393 68.2433 153.977 69.1069 153.763L65.6477 150.003C65.6477 150.003 65.6651 138.308 69.1587 118.949C69.1587 118.944 69.768 111.32 63.6667 111.82Z" fill="#F7BD94"/>
<path d="M102.644 122.384C97.9476 113.814 92.4021 106.048 92.4021 106.048C86.7716 108.453 90.8649 114.912 90.8649 114.912C93.5395 118.332 95.8286 121.392 97.7808 124.082C97.7808 124.082 100.36 127.669 102.644 122.384Z" fill="#F7BD94"/>
<path d="M70.8448 99.8746C70.8448 99.8746 64.2292 102.187 62.9579 112.237L62.228 118.934C62.228 118.934 65.8109 122.332 71.5532 122.77C71.5532 122.77 73.701 111.741 73.3566 104.458C73.3649 104.458 72.4311 100.967 70.8448 99.8746Z" fill="#1F2236"/>
<path d="M86.9311 99.8619C86.9311 99.8619 89.9641 100.363 95.5819 108.093L100.491 114.821C100.491 114.821 98.3302 119.262 93.1082 121.692C93.1082 121.692 87.3533 117.762 84.9801 105.185C84.9836 105.185 84.4166 101.9 86.9311 99.8619Z" fill="#1F2236"/>
<path d="M68.6532 137.161L68.6462 141.853C68.6379 147.455 73.174 150.01 78.7737 150.018C84.3734 150.027 88.916 147.485 88.9243 141.883L88.9313 137.191L68.6532 137.161Z" fill="#2D324B"/>
<path d="M88.7368 68.9065C88.7368 68.9065 89.143 68.1004 88.6107 66.8925C88.6107 66.8925 88.6371 68.2643 87.4235 68.9792L87.9171 69.9027C87.9171 69.9027 89.6695 69.2017 90.9476 69.6869C90.9571 69.6893 90.0908 68.52 88.7368 68.9065Z" fill="#7E462D"/>
<path d="M82.6404 89.9784L75.1663 89.9673L75.1552 97.3674L82.6294 97.3785L82.6404 89.9784Z" fill="#F7BD94"/>
<path d="M75.1603 93.9498L75.1663 89.9673L82.6381 89.9784L82.6293 95.8409C79.729 96.1209 76.6261 95.6531 75.1603 93.9498Z" fill="#E79B74"/>
<path d="M70.1996 83.839C69.8872 84.1294 69.4841 84.3029 69.0586 84.3301C67.7393 84.4549 66.5083 83.3431 66.3127 81.8455C66.1172 80.3479 67.0274 79.0343 68.3443 78.9107C68.653 78.8859 68.9636 78.9231 69.2577 79.0201C69.5519 79.1172 69.8236 79.2722 70.0569 79.476C70.7665 80.0693 70.9174 81.2861 70.8605 82.1449C70.8157 82.8307 70.6147 83.4381 70.1996 83.839Z" fill="#F7BD94"/>
<path d="M69.0356 80.2468C68.871 79.4671 67.3616 80.3971 67.6524 80.8134C67.8191 81.0505 68.1185 81.2097 68.3623 81.3641C68.6901 81.5766 68.8616 81.7842 68.9463 82.1693C68.9569 82.2143 68.9816 82.3506 68.9389 82.3884C68.7491 82.554 67.992 81.8587 67.8228 81.7139C67.4963 81.4279 67.3964 80.8841 67.493 80.4755C67.5955 80.0397 67.8493 79.8103 68.3019 79.7897C68.6573 79.7712 69.0293 79.7552 69.0559 80.2018C69.0558 80.2113 69.0486 80.2871 69.0404 80.2468L69.0356 80.2468Z" fill="#E79B74"/>
<path d="M68.6102 81.1216C68.7586 80.9358 68.9313 81.0569 69.1148 81.1603C69.2768 81.2576 69.3966 81.412 69.4506 81.5931C69.5862 81.9914 69.5913 82.541 69.3976 82.9281C69.3212 83.0807 69.207 83.2113 69.0659 83.3073C68.9247 83.4033 68.7614 83.4616 68.5913 83.4765C68.1174 83.5173 67.9214 83.1095 67.8592 82.7055C67.8428 82.5976 67.8041 82.3417 67.9025 82.2613C68.0009 82.1809 68.1109 82.3469 68.1972 82.4146C68.3221 82.4967 68.4709 82.5349 68.62 82.523C68.7563 82.5147 68.8887 82.4744 69.0065 82.4055C69.1243 82.3365 69.2242 82.2407 69.2982 82.126C69.3246 82.0859 69.3447 82.042 69.3576 81.9958C69.3868 82.2611 69.3772 82.3204 69.3336 82.177C69.3059 82.1127 69.2684 82.0531 69.2225 82.0003C69.0925 81.8283 68.8901 81.7226 68.7493 81.5613C68.6819 81.4866 68.539 81.2151 68.6126 81.1216L68.6102 81.1216Z" fill="#E79B74"/>
<path d="M87.6204 83.865C87.9313 84.1565 88.3336 84.3313 88.7588 84.3595C90.0778 84.4882 91.3121 83.3801 91.5121 81.883C91.712 80.386 90.8058 79.0698 89.4892 78.9422C89.1806 78.9164 88.8699 78.9527 88.5755 79.0489C88.2811 79.1451 88.0089 79.2993 87.775 79.5024C87.0636 80.0936 86.909 81.3099 86.9634 82.1689C87.0109 82.8548 87.2102 83.4628 87.6204 83.865Z" fill="#F7BD94"/>
<path d="M88.8099 80.2763C88.9769 79.4971 90.4835 80.4316 90.1926 80.8469C90.0241 81.0836 89.7182 81.2419 89.4811 81.3955C89.1526 81.6071 88.9805 81.8141 88.8947 82.199C88.8839 82.244 88.8589 82.3802 88.9015 82.4181C89.0908 82.5843 89.8499 81.8912 90.0195 81.747C90.3469 81.462 90.4484 80.9184 90.3542 80.5096C90.2518 80.0735 89.9998 79.8433 89.5462 79.8213C89.1908 79.8018 88.8201 79.7847 88.791 80.2312C88.791 80.2407 88.798 80.3165 88.8063 80.2763L88.8099 80.2763Z" fill="#E79B74"/>
<path d="M89.2222 81.1523C89.0756 80.9661 88.9013 81.0867 88.7187 81.1895C88.5557 81.2859 88.435 81.44 88.3804 81.6213C88.2436 82.0192 88.2369 82.5688 88.4306 82.9564C88.5061 83.1094 88.6197 83.2403 88.7604 83.3368C88.9011 83.4332 89.0642 83.4919 89.2341 83.5073C89.7138 83.5495 89.9051 83.1422 89.9685 82.7384C89.9864 82.6306 90.0247 82.3748 89.9265 82.2941C89.8283 82.2134 89.7179 82.3791 89.6325 82.4465C89.5068 82.5281 89.3576 82.5658 89.2083 82.5537C89.0721 82.5448 88.9398 82.504 88.8223 82.4347C88.7047 82.3654 88.605 82.2695 88.5313 82.1546C88.5049 82.1145 88.485 82.0705 88.4722 82.0242C88.4434 82.2895 88.4516 82.3488 88.4957 82.2055C88.5236 82.1414 88.5613 82.0819 88.6073 82.0292C88.739 81.8576 88.9406 81.7525 89.0818 81.5916C89.1494 81.5171 89.2931 81.246 89.2198 81.1523L89.2222 81.1523Z" fill="#E79B74"/>
<path d="M88.1946 73.5753C87.6672 66.7039 78.9367 66.7099 78.9367 66.7099C78.9367 66.7099 70.2074 66.6827 69.6596 73.5477C69.6596 73.5477 69.1059 84.361 70.4435 87.8564C70.8988 89.1611 71.7405 90.2961 72.8566 91.1105L76.7484 93.7781C76.7484 93.7781 78.0582 94.4517 78.8954 94.4529C79.7326 94.4542 81.0456 93.7845 81.0456 93.7845L84.9453 91.1285C86.0637 90.3176 86.9084 89.185 87.3669 87.8816C88.7161 84.3902 88.1946 73.5753 88.1946 73.5753Z" fill="#F7BD94"/>
<path d="M69.6912 81.0296C64.8001 63.1564 79.0347 64.5908 79.0347 64.5908C84.372 64.299 87.0731 67.3546 87.0731 67.3546C90.9264 70.4722 88.3256 81.1308 88.3256 81.1308C88.0232 74.2171 85.288 70.9945 85.288 70.9945C85.288 70.9945 79.1672 71.83 73.7261 71.0448C73.7261 71.0413 70.8862 72.1316 69.6912 81.0296Z" fill="#7E462D"/>
<path d="M73.7261 71.0413C86.0451 73.0805 88.1262 68.6841 88.1262 68.6841C88.3313 62.9012 79.2545 62.4577 79.2545 62.4577C74.8734 62.3801 72.7825 62.1661 72.7825 62.1661C72.0198 63.0515 71.4359 64.0765 71.0634 65.1843C70.6691 64.9172 70.3029 64.6106 69.9707 64.2693C68.6643 66.8664 69.9704 69.209 69.9704 69.209C69.9704 69.209 71.9018 70.7389 73.7261 71.0413Z" fill="#8C4D33"/>
<path d="M85.2037 71.1022C85.2037 71.1022 86.222 70.5861 86.7034 70.2646C86.7034 70.2646 85.6789 70.988 85.6353 71.6513L85.2037 71.1022Z" fill="#F7BD94"/>
<path d="M81.9132 77.3116C82.2424 77.305 82.3408 77.2353 82.7303 77.2974C83.2891 77.3409 83.7256 77.6199 83.9234 77.6084C84.2313 77.5887 84.2989 77.4798 84.4287 77.0168C84.5477 76.6083 83.6245 76.3156 83.1841 76.2521C82.6913 76.1939 82.1934 76.1932 81.7005 76.2499C81.7005 76.2499 81.6637 76.2498 81.6637 76.3055C81.6637 76.3055 81.676 76.7794 81.7322 77.1799C81.7311 77.202 81.7356 77.2242 81.7452 77.2442C81.7548 77.2642 81.7692 77.2816 81.7871 77.2946C81.8051 77.3077 81.826 77.3161 81.848 77.3191C81.87 77.322 81.8924 77.3195 81.9132 77.3116Z" fill="#713F28"/>
<path d="M83.5518 79.3801C83.551 79.9214 83.3134 80.3594 83.0196 80.3589C82.7259 80.3585 82.4896 79.9198 82.4904 79.3785C82.4912 78.8371 82.7288 78.398 83.0226 78.3984C83.3163 78.3989 83.5526 78.8387 83.5518 79.3801Z" fill="#56301B"/>
<path d="M75.9299 77.3027C75.6007 77.2951 75.5025 77.2251 75.1129 77.2861C74.5539 77.3279 74.1177 77.6056 73.9188 77.5935C73.611 77.5729 73.5436 77.4638 73.4153 77.0004C73.2975 76.5916 74.2215 76.3015 74.6621 76.2394C75.1551 76.1827 75.653 76.1834 76.1458 76.2416C76.1458 76.2416 76.1825 76.2417 76.1824 76.2974C76.1824 76.2974 76.1687 76.7712 76.1113 77.1715C76.1123 77.1937 76.1078 77.2158 76.0981 77.2358C76.0885 77.2558 76.074 77.2731 76.056 77.2861C76.038 77.2991 76.0171 77.3075 75.9951 77.3104C75.973 77.3133 75.9506 77.3106 75.9299 77.3027Z" fill="#713F28"/>
<path d="M74.2856 79.3662C74.2848 79.9076 74.5211 80.3462 74.8149 80.3467C75.1086 80.3471 75.3462 79.9092 75.347 79.3678C75.3478 78.8265 75.1115 78.3866 74.8178 78.3862C74.524 78.3858 74.2864 78.8249 74.2856 79.3662Z" fill="#56301B"/>
<path fill-rule="evenodd" clip-rule="evenodd" d="M78.6194 81.6655C78.7119 81.7011 78.758 81.805 78.7224 81.8975C78.5187 82.4269 78.1561 82.6276 77.8314 82.7313C77.7527 82.7565 77.6763 82.776 77.6076 82.793C77.595 82.7961 77.5828 82.7991 77.5709 82.802C77.5159 82.8155 77.4679 82.8272 77.4234 82.8402C77.3168 82.8712 77.2767 82.8973 77.2606 82.9163C77.1554 83.1108 77.1867 83.3742 77.4208 83.6271C77.6588 83.8841 78.0998 84.114 78.7539 84.1754C78.8526 84.1847 78.9251 84.2722 78.9158 84.3709C78.9066 84.4696 78.8191 84.5421 78.7204 84.5328C78.0029 84.4654 77.4703 84.2088 77.1575 83.8709C76.8443 83.5327 76.7449 83.0971 76.9534 82.7302C76.956 82.7255 76.9589 82.721 76.9619 82.7167C77.053 82.5851 77.2039 82.5302 77.3232 82.4955C77.3757 82.4802 77.4328 82.4663 77.488 82.4527C77.4992 82.45 77.5105 82.4472 77.5215 82.4445C77.5889 82.4279 77.6555 82.4107 77.7221 82.3894C77.9787 82.3075 78.2344 82.1661 78.3874 81.7686C78.423 81.6761 78.5269 81.6299 78.6194 81.6655Z" fill="#E79B74"/>
<path d="M81.7715 85.805C81.312 85.8446 80.2485 85.9129 78.9081 85.9062C77.5677 85.8994 76.5056 85.8374 76.0462 85.7965C76.0104 85.7943 75.9745 85.8014 75.9423 85.8172C75.91 85.833 75.8824 85.857 75.8621 85.8867C75.8419 85.9164 75.8298 85.9509 75.8269 85.9868C75.824 86.0226 75.8305 86.0586 75.8457 86.0912C76.5228 88.6272 77.8445 89.225 78.9032 89.2266C80.0435 89.2283 81.2865 88.6378 81.9711 86.1003C81.9864 86.0677 81.993 86.0318 81.9903 85.9959C81.9875 85.9601 81.9754 85.9256 81.9553 85.8958C81.9352 85.866 81.9076 85.842 81.8754 85.8261C81.8432 85.8102 81.8073 85.8029 81.7715 85.805Z" fill="#481214"/>
<path d="M81.0244 88.1694C80.3885 88.9882 79.6256 89.2335 78.9032 89.2324C78.233 89.2314 77.4578 88.9933 76.8066 88.1632C76.8066 88.1632 78.6675 86.9458 81.0244 88.1694Z" fill="#B54C6B"/>
<path d="M81.4257 85.8317C80.875 85.8688 79.9798 85.9113 78.9081 85.9061C77.8365 85.901 76.9426 85.8629 76.392 85.8242C76.392 85.8242 76.2483 86.883 78.9068 86.8265C78.9068 86.8265 81.3021 86.9107 81.4257 85.8317Z" fill="#F8FFF0"/>
<path d="M82.627 97.3785C82.627 97.3785 88.4553 98.9272 89.4713 104.482L89.0846 139.203C75.7717 142.235 68.4927 139.172 68.4927 139.172L68.2093 104.45C69.2418 98.8997 75.154 97.3674 75.154 97.3674C75.154 97.3674 75.3491 99.9596 78.8966 100.054C78.8978 100.054 82.2755 100.441 82.627 97.3785Z" fill="#5FC4E2"/>
<path d="M106.522 106.176C106.221 105.222 106.519 104.386 106.312 103.474C106.133 102.682 106.22 101.755 105.842 100.692C106.067 100.154 107.163 100.432 107.348 101.786C107.847 103.135 109.403 103.726 109.957 103.5C109.957 103.5 108.326 106.372 106.522 106.176Z" fill="#F7BD94"/>
<path d="M112.742 105.569L111.986 103.518C111.825 103.08 111.346 102.828 110.867 102.927C110.167 103.072 109.508 103.367 108.941 103.789L106.411 105.672L106.963 108.091C108.308 109.61 111.665 107.676 111.665 107.676L111.943 107.532C112.678 107.148 113.017 106.315 112.742 105.569Z" fill="#F7BD94"/>
</svg>
