<svg width="300" height="305" viewBox="0 0 300 305" fill="none" xmlns="http://www.w3.org/2000/svg">
<path d="M58.0485 63.6031C55.7369 77.2194 54.0743 91.1157 48.9836 103.928C39.5233 127.738 19.1891 145.503 8.22538 168.638C-9.20736 205.425 1.91867 253.865 33.5716 278.987C42.9403 286.423 53.7182 291.888 64.9227 295.914C105.132 310.363 148.705 304.844 187.095 285.959C225.486 267.074 255.454 234.481 276.038 196.494C293.153 164.909 304.246 126.148 296.478 94.8176C293.648 83.4047 285.02 72.0596 275.692 65.0949C259.048 52.6693 236.56 53.977 216.086 51.2748C197.074 48.7659 181.549 44.7455 165.024 34.8606C147.292 24.2535 137.273 3.30949 116.296 0.322124C107.806 -0.886706 97.3587 1.35816 89.8428 6.19348C81.3425 11.6626 72.8785 20.6413 68.1053 29.6887C62.5717 40.1758 60.0241 51.9683 58.0485 63.6031" fill="#7A9EBF"/>
<path d="M75.2026 229.799C89.1512 223.11 113.329 221.807 130.018 220.137C147.861 218.353 165.826 219.557 183.69 218.543C205.48 217.303 227.435 220.598 248.836 222.87C256.731 223.708 282.993 226.849 283.869 234.226C284.537 239.838 266.019 238.429 272.268 243.793C276.068 247.053 311.937 250.268 295.892 259.098C287.06 263.96 265.256 263.72 254.486 264.643C235.629 266.26 216.565 267.094 197.586 268.136C170.319 269.631 144.172 269.631 117.351 266.427C105.586 265.023 93.5905 264.149 82.6214 260.703C74.0081 257.998 73.3721 255.915 73.2629 250.497C73.209 247.753 74.0136 248.537 71.9039 245.865C70.1812 243.68 67.9028 243.2 67.0829 240.48C65.6064 235.574 69.671 232.453 75.2026 229.799Z" fill="#728698"/>
<path d="M101.011 45.3393H26.404V96.7123H101.011V45.3393Z" fill="#B6E3EF"/>
<path d="M102.498 98.1977H24.9169V43.8538H102.498V98.1977ZM27.8912 95.2269H99.5238V46.8247H27.8912V95.2269Z" fill="#3FA3BF"/>
<path d="M76.5748 63.5758C72.594 57.6112 63.3511 60.8563 63.3511 60.8563C63.3511 60.8563 54.1081 57.5884 50.1273 63.5758C47.3819 67.6893 49.6239 74.6137 51.2712 78.5443C52.0262 80.3497 52.5295 82.2693 52.6668 84.2347C52.8041 86.2229 53.3074 89.0109 54.7716 91.639C55.1377 92.2789 56.0986 92.0732 56.1443 91.319C56.396 87.1141 57.6085 78.5901 63.3511 78.5901C69.0936 78.5901 70.3061 87.137 70.5578 91.319C70.6035 92.0503 71.5644 92.2789 71.9305 91.639C73.3947 88.9881 73.8981 86.2 74.0353 84.2347C74.1726 82.2693 74.653 80.3497 75.4309 78.5443C77.101 74.6137 79.3203 67.6893 76.5748 63.5758Z" fill="#FFF5F1"/>
<path d="M63.3515 76.8675H63.3507L55.6182 91.2505H55.5182C55.5182 91.2509 55.5182 91.2512 55.5181 91.2516C55.518 91.2583 55.517 91.2627 55.5162 91.2651C55.5154 91.2677 55.5146 91.2688 55.5144 91.269C55.5141 91.2693 55.5142 91.2693 55.514 91.2693C55.5138 91.2693 55.5137 91.2693 55.5135 91.2693C55.5131 91.2693 55.5125 91.2692 55.5119 91.2689C55.5115 91.2686 55.5107 91.2681 55.5096 91.2669C55.5088 91.2659 55.5075 91.2642 55.5061 91.2614C55.0488 89.8218 54.0567 86.4369 53.4893 82.5406C52.9219 78.6444 52.7814 74.2513 54.0125 70.7814L54.0134 70.7804C54.0234 70.7692 54.0374 70.753 54.0546 70.7316C54.0889 70.6887 54.1361 70.6252 54.1896 70.5402C54.2966 70.37 54.4285 70.114 54.5328 69.7662C54.7418 69.0694 54.8383 68.0098 54.4101 66.5415L54.41 66.5413C54.3381 66.2963 54.3508 66.0982 54.4233 65.9356C54.4963 65.7717 54.6353 65.6318 54.8376 65.5144C55.2457 65.2776 55.8854 65.1479 56.6488 65.0952C58.1707 64.9903 60.1237 65.1946 61.53 65.3888L61.5306 65.3888C62.7518 65.55 63.9732 65.55 65.1718 65.3888L65.1722 65.3888C66.5785 65.1946 68.5315 64.9903 70.0533 65.0952C70.8167 65.1479 71.4565 65.2776 71.8646 65.5144C72.0669 65.6318 72.2059 65.7717 72.2789 65.9356C72.3513 66.0982 72.3641 66.2963 72.2922 66.5413L72.2919 66.5422C71.8753 68.0102 71.9719 69.0694 72.1778 69.7658C72.2806 70.1135 72.4103 70.3694 72.5154 70.5395C72.5679 70.6245 72.6143 70.688 72.648 70.7309C72.6649 70.7523 72.6786 70.7685 72.6884 70.7797L72.6895 70.781C73.9208 74.2509 73.7803 78.6442 73.2129 82.5406C72.6456 86.4358 71.654 89.8199 71.1965 91.2602C71.1918 91.2583 71.188 91.2557 71.1857 91.2533C71.185 91.2525 71.1846 91.2519 71.1844 91.2516C71.1842 91.2512 71.1841 91.2511 71.1841 91.251L71.1841 91.251L71.1841 91.251C71.39 84.0468 69.4521 80.4437 67.4386 78.644C66.4331 77.7453 65.4137 77.3011 64.6447 77.0816C64.2603 76.9719 63.9383 76.9184 63.7117 76.8923C63.5984 76.8792 63.5089 76.873 63.4472 76.8701C63.4164 76.8686 63.3925 76.868 63.3762 76.8677L63.3573 76.8675L63.3522 76.8675L63.352 76.8675L63.3515 76.8675Z" fill="#FFF500" stroke="#F7BD94" stroke-width="0.2"/>
<path d="M95.1997 71.6428H81.7014V72.0998H95.1997V71.6428Z" fill="#576A76"/>
<path d="M95.1997 72.6712H81.7014V73.1282H95.1997V72.6712Z" fill="#576A76"/>
<path d="M95.1997 73.6995H81.7014V74.1566H95.1997V73.6995Z" fill="#576A76"/>
<path d="M95.1997 74.7279H81.7014V75.185H95.1997V74.7279Z" fill="#576A76"/>
<path d="M95.1997 75.7563H81.7014V76.2133H95.1997V75.7563Z" fill="#576A76"/>
<path d="M95.1997 76.7846H81.7014V77.2416H95.1997V76.7846Z" fill="#576A76"/>
<path d="M45.0042 63.5757H31.5059V64.0328H45.0042V63.5757Z" fill="#576A76"/>
<path d="M45.0042 64.6041H31.5059V65.0611H45.0042V64.6041Z" fill="#576A76"/>
<path d="M45.0042 65.6324H31.5059V66.0895H45.0042V65.6324Z" fill="#576A76"/>
<path d="M45.0042 66.6608H31.5059V67.1179H45.0042V66.6608Z" fill="#576A76"/>
<path d="M45.0042 67.6892H31.5059V68.1463H45.0042V67.6892Z" fill="#576A76"/>
<path d="M45.0042 68.7176H31.5059V69.1746H45.0042V68.7176Z" fill="#576A76"/>
<path d="M47.7725 85.0117H34.2742V85.4688H47.7725V85.0117Z" fill="#576A76"/>
<path d="M47.7726 86.04H34.2742V86.4971H47.7726V86.04Z" fill="#576A76"/>
<path d="M47.7726 87.0684H34.2742V87.5254H47.7726V87.0684Z" fill="#576A76"/>
<path d="M47.7726 88.0967H34.2742V88.5538H47.7726V88.0967Z" fill="#576A76"/>
<path d="M47.7726 89.1251H34.2742V89.5821H47.7726V89.1251Z" fill="#576A76"/>
<path d="M47.7726 90.1536H34.2742V90.6106H47.7726V90.1536Z" fill="#576A76"/>
<g opacity="0.8">
<path d="M49.9933 56.8106C49.6319 56.8106 49.4512 56.6299 49.4512 56.2684V51.7316C49.4512 51.3701 49.6319 51.1894 49.9933 51.1894H53.0073C53.2837 51.1894 53.4219 51.3223 53.4219 51.588C53.4219 51.8644 53.2837 52.0027 53.0073 52.0027H50.4319V53.5335H51.9947C52.5953 53.5335 53.0631 53.6718 53.398 53.9482C53.7382 54.2246 53.9083 54.6312 53.9083 55.1681C53.9083 55.6997 53.7382 56.1063 53.398 56.388C53.0631 56.6698 52.5953 56.8106 51.9947 56.8106H49.9933ZM50.4319 55.9973H51.8671C52.5688 55.9973 52.9196 55.7209 52.9196 55.1681C52.9196 54.6206 52.5688 54.3468 51.8671 54.3468H50.4319V55.9973Z" fill="#252525"/>
<path d="M56.5543 56.8904C56.1503 56.8904 55.7995 56.808 55.5018 56.6432C55.2041 56.4784 54.9729 56.2445 54.8081 55.9415C54.6433 55.6332 54.5609 55.2718 54.5609 54.8571C54.5609 54.4425 54.6433 54.0837 54.8081 53.7807C54.9729 53.4777 55.2041 53.2438 55.5018 53.0791C55.7995 52.9143 56.1503 52.8319 56.5543 52.8319C56.9583 52.8319 57.3091 52.9143 57.6068 53.0791C57.9045 53.2438 58.1357 53.4777 58.3005 53.7807C58.4653 54.0837 58.5476 54.4425 58.5476 54.8571C58.5476 55.2718 58.4653 55.6332 58.3005 55.9415C58.1357 56.2445 57.9045 56.4784 57.6068 56.6432C57.3091 56.808 56.9583 56.8904 56.5543 56.8904ZM56.5543 56.1329C56.852 56.1329 57.0912 56.0266 57.2719 55.8139C57.4526 55.596 57.543 55.2771 57.543 54.8571C57.543 54.4319 57.4526 54.1156 57.2719 53.9083C57.0912 53.6957 56.852 53.5894 56.5543 53.5894C56.2566 53.5894 56.0174 53.6957 55.8367 53.9083C55.656 54.1156 55.5656 54.4319 55.5656 54.8571C55.5656 55.2771 55.656 55.596 55.8367 55.8139C56.0174 56.0266 56.2566 56.1329 56.5543 56.1329Z" fill="#252525"/>
<path d="M59.3935 58.19C59.0905 58.19 58.939 58.0359 58.939 57.7276V56.4678C58.939 56.1541 59.0984 55.9973 59.4174 55.9973H59.4971C59.9968 55.3701 60.2466 54.2565 60.2466 52.6565V51.7316C60.2466 51.3701 60.4273 51.1894 60.7888 51.1894H63.6832C64.0446 51.1894 64.2253 51.3701 64.2253 51.7316V55.9973H64.5443C64.8632 55.9973 65.0227 56.1541 65.0227 56.4678V57.7276C65.0227 58.0359 64.8739 58.19 64.5762 58.19C64.2679 58.19 64.1137 58.0359 64.1137 57.7276V56.8106H59.8479V57.7276C59.8479 58.0359 59.6964 58.19 59.3935 58.19ZM60.5337 55.9973H63.1968V52.0027H61.1954V52.7522C61.1954 53.5176 61.1396 54.1634 61.028 54.6897C60.9217 55.2159 60.7569 55.6518 60.5337 55.9973Z" fill="#252525"/>
<path d="M67.6924 56.8904C67.2512 56.8904 66.8712 56.808 66.5522 56.6432C66.2333 56.4784 65.9861 56.2445 65.8107 55.9415C65.6406 55.6385 65.5555 55.2797 65.5555 54.8651C65.5555 54.4611 65.6379 54.1076 65.8027 53.8046C65.9728 53.5017 66.204 53.2651 66.4964 53.095C66.7941 52.9196 67.1316 52.8319 67.509 52.8319C68.0619 52.8319 68.4977 53.0073 68.8167 53.3581C69.1409 53.709 69.303 54.1874 69.303 54.7933C69.303 54.99 69.1755 55.0884 68.9203 55.0884H66.5123C66.5868 55.7847 66.9854 56.1329 67.7084 56.1329C67.8466 56.1329 68.0007 56.1169 68.1708 56.085C68.3462 56.0478 68.511 55.9867 68.6652 55.9017C68.8034 55.8219 68.9203 55.798 69.016 55.8299C69.1117 55.8565 69.1781 55.9123 69.2153 55.9973C69.2579 56.0824 69.2632 56.1781 69.2313 56.2844C69.2047 56.3854 69.1303 56.4731 69.008 56.5475C68.822 56.6644 68.6067 56.7522 68.3622 56.8106C68.123 56.8638 67.8997 56.8904 67.6924 56.8904ZM67.5489 53.5096C67.2565 53.5096 67.02 53.6 66.8393 53.7807C66.6585 53.9615 66.5496 54.206 66.5123 54.5143H68.4738C68.4525 54.19 68.3622 53.9429 68.2027 53.7728C68.0486 53.5973 67.8306 53.5096 67.5489 53.5096Z" fill="#252525"/>
<path d="M70.6957 56.8744C70.3608 56.8744 70.1934 56.7043 70.1934 56.3641V53.3502C70.1934 53.0153 70.3608 52.8478 70.6957 52.8478C71.0253 52.8478 71.1901 53.0153 71.1901 53.3502V54.4186H72.9123V53.3502C72.9123 53.0153 73.0771 52.8478 73.4067 52.8478C73.7416 52.8478 73.909 53.0153 73.909 53.3502V56.3641C73.909 56.7043 73.7416 56.8744 73.4067 56.8744C73.0771 56.8744 72.9123 56.7043 72.9123 56.3641V55.2H71.1901V56.3641C71.1901 56.7043 71.0253 56.8744 70.6957 56.8744Z" fill="#252525"/>
<path d="M76.368 56.8744C76.0331 56.8744 75.8657 56.7043 75.8657 56.3641V53.693H74.8929C74.6059 53.693 74.4623 53.5628 74.4623 53.3023C74.4623 53.0419 74.6059 52.9116 74.8929 52.9116H77.8351C78.1222 52.9116 78.2657 53.0419 78.2657 53.3023C78.2657 53.5628 78.1222 53.693 77.8351 53.693H76.8623V56.3641C76.8623 56.7043 76.6976 56.8744 76.368 56.8744Z" fill="#252525"/>
</g>
<path d="M121.496 155.648H6.0748V222.545H121.496V155.648Z" fill="#FDFEFF"/>
<path d="M125.454 151.495H2.09132C0.946073 151.495 0 152.415 0 153.584C0 154.728 0.921176 155.673 2.09132 155.673H125.454C126.6 155.673 127.546 154.753 127.546 153.584C127.546 152.415 126.6 151.495 125.454 151.495Z" fill="#51AEA4"/>
<path d="M60.5986 176.911H8.96283V157.812H60.6235V176.911H60.5986ZM9.51056 176.339H60.0259V158.384H9.51056V176.339Z" fill="#CBCBCA"/>
<path d="M33.3617 168.306C34.1454 168.306 34.7808 167.672 34.7808 166.889C34.7808 166.106 34.1454 165.471 33.3617 165.471C32.5779 165.471 31.9426 166.106 31.9426 166.889C31.9426 167.672 32.5779 168.306 33.3617 168.306Z" fill="#466777"/>
<path d="M60.5986 197.129H8.96283V178.03H60.6235V197.129H60.5986ZM9.51056 196.557H60.0259V178.602H9.51056V196.557Z" fill="#CBCBCA"/>
<path d="M33.3616 188.524C34.1453 188.524 34.7807 187.89 34.7807 187.107C34.7807 186.324 34.1453 185.689 33.3616 185.689C32.5778 185.689 31.9425 186.324 31.9425 187.107C31.9425 187.89 32.5778 188.524 33.3616 188.524Z" fill="#466777"/>
<path d="M70.6319 178.055C71.4157 178.055 72.051 177.42 72.051 176.637C72.051 175.854 71.4157 175.22 70.6319 175.22C69.8482 175.22 69.2128 175.854 69.2128 176.637C69.2128 177.42 69.8482 178.055 70.6319 178.055Z" fill="#466777"/>
<path d="M60.5986 217.347H8.96283V198.248H60.6235V217.347H60.5986ZM9.51056 216.775H60.0259V198.82H9.51056V216.775Z" fill="#CBCBCA"/>
<path d="M33.3617 208.743C34.1454 208.743 34.7808 208.108 34.7808 207.325C34.7808 206.542 34.1454 205.908 33.3617 205.908C32.5779 205.908 31.9426 206.542 31.9426 207.325C31.9426 208.108 32.5779 208.743 33.3617 208.743Z" fill="#466777"/>
<path d="M118.135 217.347H63.4865V198.248H118.11V217.347H118.135ZM64.0592 216.775H117.562V198.82H64.0592V216.775Z" fill="#CBCBCA"/>
<path d="M89.3045 208.743C90.1295 208.743 90.7983 208.108 90.7983 207.325C90.7983 206.542 90.1295 205.908 89.3045 205.908C88.4795 205.908 87.8107 206.542 87.8107 207.325C87.8107 208.108 88.4795 208.743 89.3045 208.743Z" fill="#466777"/>
<path d="M118.135 197.129H63.4865V157.812H118.11V197.129H118.135ZM64.0592 196.557H117.562V158.384H64.0592V196.557Z" fill="#CBCBCA"/>
<path d="M269.772 216.385C269.772 216.385 278.496 210.69 279.791 197.577C281.087 184.463 287.565 167.165 287.565 167.165C287.565 167.165 275.862 176.138 273.789 186.922C271.716 197.749 271.154 210.173 266.274 213.408L269.772 216.385Z" fill="#89C658"/>
<path d="M264.288 212.934C264.288 212.934 254.614 204.565 255.219 188.389C255.823 172.212 250.814 150.04 250.814 150.04C250.814 150.04 263.554 162.895 264.288 176.397C265.022 189.898 263.64 205.126 268.995 209.914L264.288 212.934Z" fill="#448C4E"/>
<path d="M264.331 204.004C264.331 204.004 257.724 198.612 264.331 183.644C270.938 168.675 268.045 147.754 261.394 125.581C261.394 125.581 286.485 138.738 280.482 164.793C274.48 190.847 265.886 189.036 271.37 210L264.331 204.004Z" fill="#89C658"/>
<path d="M276.639 207.498C276.639 207.498 282.037 198.612 277.589 186.232C273.141 173.851 271.543 155.432 271.543 155.432C271.543 155.432 264.849 168.546 267.613 179.2C270.377 189.855 275.214 201.33 272.234 206.334L276.639 207.498Z" fill="#448C4E"/>
<path d="M269.125 207.369H253.016L258.371 233.51H269.125H281.044L285.19 207.369H269.125Z" fill="#835A44"/>
<path d="M288.04 201.847H250.166V207.369H288.04V201.847Z" fill="#835A44"/>
<path d="M253.016 207.369L253.189 209.138H285.06L285.19 207.369H269.125H253.016Z" fill="#684734"/>
<path d="M128.471 132.932L126.184 134.826C126.184 134.826 126.261 135.164 126.852 135.164C127.443 135.164 128.882 134.048 128.882 134.048L127.983 135.164C127.983 135.164 128.445 135.501 129.087 135.164C129.73 134.826 130.244 134.307 130.244 134.307L131.94 134.489L131.683 133.321L128.471 132.932Z" fill="#FCBD74"/>
<path d="M125.362 135.034C125.362 135.242 125.182 135.423 124.976 135.423H118.758C118.553 135.423 118.373 135.242 118.373 135.034C118.373 134.826 118.553 134.645 118.758 134.645H124.976C125.182 134.671 125.362 134.826 125.362 135.034Z" fill="#E5E0D7"/>
<path d="M130.706 135.164C130.706 135.527 130.398 135.839 130.038 135.839H124.925C124.565 135.839 124.257 135.527 124.257 135.164C124.257 134.8 124.565 134.489 124.925 134.489H130.038C130.398 134.489 130.706 134.8 130.706 135.164Z" fill="#C4C1BC"/>
<path d="M138.081 135.735C136.77 134.93 134.458 132.568 133.455 132.127C132.428 131.686 128.907 132.127 128.368 132.205C127.828 132.283 125.182 134.126 125.182 134.126C125.182 134.126 125.362 134.671 125.978 134.645C126.621 134.593 128.779 133.581 128.779 133.581L130.86 133.788C130.86 133.788 131.914 134.904 132.222 135.371C132.53 135.839 130.269 137.162 129.293 136.955C128.317 136.747 127.032 135.579 126.235 135.631C125.439 135.683 125.593 136.358 125.593 136.358C125.593 136.358 128.471 138.668 129.113 138.85C129.755 139.031 133.584 138.46 134.046 138.59C134.509 138.72 136.205 139.187 136.205 139.187C136.205 139.187 138.081 135.994 138.081 135.735Z" fill="#F7BD94"/>
<path d="M139.263 135.917C139.263 135.917 138.003 135.112 137.361 135.527C136.719 135.917 135.717 138.798 135.948 139.421C136.179 140.07 137.13 140.07 137.13 140.07L139.263 135.917Z" fill="#028993"/>
<path d="M172.486 125.041C172.486 125.041 171.124 125.145 169.968 127.065C168.812 128.986 154.962 139.914 152.444 139.914C149.926 139.914 140.573 135.449 139.519 135.138C138.466 134.826 136.59 138.097 136.59 139.914C136.59 141.705 151.493 147.441 157.172 146.922C162.85 146.403 171.972 138.538 171.972 138.538L172.486 125.041Z" fill="#EEEFE9"/>
<path d="M195.688 206.829H189.701V240.676H195.688V206.829Z" fill="#F7BD94"/>
<path d="M195.971 241.377H194.352V243.038H195.971V241.377Z" fill="#369FB0"/>
<path d="M182.79 244.647C182.79 244.647 184.357 243.271 187.055 242.623C189.727 241.974 189.727 240.65 189.727 240.65H195.714V242.519L192.502 245.27L189.085 245.374L182.79 244.647Z" fill="#F7BD94"/>
<path d="M183.766 243.894C183.766 243.894 187.543 243.946 190.498 243.946C193.427 243.946 195.971 241.558 195.971 241.558V247.087H193.658V245.607C193.658 245.607 191.808 247.139 189.342 247.139C186.875 247.139 180.374 247.139 180.374 247.139C180.374 247.139 181.196 243.894 183.766 243.894Z" fill="#369FB0"/>
<path d="M183.612 206.829H177.625V240.676H183.612V206.829Z" fill="#F7BD94"/>
<path d="M183.894 241.377H182.276V243.038H183.894V241.377Z" fill="#369FB0"/>
<path d="M170.713 244.647C170.713 244.647 172.28 243.271 174.978 242.623C177.651 241.974 177.651 240.65 177.651 240.65H183.637V242.519L180.426 245.27L177.008 245.374L170.713 244.647Z" fill="#FFD391"/>
<path d="M171.689 243.894C171.689 243.894 175.466 243.946 178.421 243.946C181.351 243.946 183.894 241.558 183.894 241.558V247.087H181.582V245.607C181.582 245.607 179.732 247.139 177.265 247.139C174.798 247.139 168.298 247.139 168.298 247.139C168.298 247.139 169.12 243.894 171.689 243.894Z" fill="#369FB0"/>
<path d="M173.899 183.079L174.053 217.86H198.155L196.279 179.03L173.899 183.079Z" fill="#369FB0"/>
<path d="M200.056 126.053C200.056 126.053 197.693 158.68 197.693 161.068C197.693 163.456 199.26 201.949 199.26 201.949C199.26 201.949 191.063 203.221 184.922 203.221C178.781 203.221 177.985 201.794 177.985 201.794L175.775 184.611L175.312 202.105C175.312 202.105 172.794 202.572 172.332 201.949C171.869 201.3 172.023 162.158 172.023 162.158L170.61 146.247C170.61 146.247 168.4 144.664 168.092 141.16C167.784 137.656 171.561 124.937 171.561 124.937C171.561 124.937 175.98 123.51 185.59 123.016C195.174 122.549 197.847 123.354 200.056 126.053Z" fill="#EEEFE9"/>
<path d="M197.693 161.068C197.693 159.589 198.618 146.325 199.311 136.565L196.639 134.489L194.224 142.12C194.224 142.12 189.393 143.911 178.678 143.703C170.585 143.548 168.735 142.847 168.298 142.509C168.966 145.079 170.585 146.247 170.585 146.247L170.636 146.714C176.546 147.467 193.813 147.208 193.813 147.208L195.2 202.494C197.616 202.209 199.286 201.949 199.286 201.949C199.286 201.949 197.693 163.456 197.693 161.068Z" fill="#C9C9C5"/>
<path d="M197.461 176.979C197.461 176.979 194.892 179.575 194.224 180.691C193.556 181.807 193.89 182.56 193.89 182.56C193.89 182.56 193.992 183.676 194.326 184.117C194.661 184.559 197.384 185.986 198.104 186.064C198.823 186.116 200.082 185.181 200.519 184.351C200.956 183.52 200.365 183.235 200.365 183.235C200.365 183.235 201.341 182.742 201.675 181.132C202.009 179.523 201.393 178.692 201.393 178.692L197.461 176.979Z" fill="#FFD391"/>
<path d="M198.155 174.617L197.179 176.876C197.179 176.876 198.874 179.134 201.958 179.134L202.806 177.421L198.155 174.617Z" fill="#028993"/>
<path d="M197.487 123.977C199.8 124.392 215.165 142.458 215.422 151.646C215.679 160.861 204.45 177.005 203.397 177.94C202.343 178.874 198.772 177.55 197.718 175.941C196.665 174.332 207.354 158.317 207.354 154.865C207.354 151.387 198.361 139.395 198.361 139.395C198.361 139.395 195.174 123.561 197.487 123.977Z" fill="#EEEFE9"/>
<path d="M185.565 123.042C181.608 123.25 178.55 123.587 176.314 123.951C176.032 127.143 175.518 134.177 176.083 140.537C176.083 140.537 186.053 127.377 189.753 122.912C188.494 122.912 187.132 122.964 185.565 123.042Z" fill="#028993"/>
<path d="M175.903 181.054C176.187 181.054 176.417 180.822 176.417 180.535C176.417 180.249 176.187 180.016 175.903 180.016C175.619 180.016 175.389 180.249 175.389 180.535C175.389 180.822 175.619 181.054 175.903 181.054Z" fill="#369FB0"/>
<path d="M175.903 174.903C176.187 174.903 176.417 174.67 176.417 174.384C176.417 174.097 176.187 173.865 175.903 173.865C175.619 173.865 175.389 174.097 175.389 174.384C175.389 174.67 175.619 174.903 175.903 174.903Z" fill="#369FB0"/>
<path d="M175.903 168.751C176.187 168.751 176.417 168.519 176.417 168.232C176.417 167.945 176.187 167.713 175.903 167.713C175.619 167.713 175.389 167.945 175.389 168.232C175.389 168.519 175.619 168.751 175.903 168.751Z" fill="#369FB0"/>
<path d="M175.903 162.6C176.187 162.6 176.417 162.367 176.417 162.08C176.417 161.794 176.187 161.561 175.903 161.561C175.619 161.561 175.389 161.794 175.389 162.08C175.389 162.367 175.619 162.6 175.903 162.6Z" fill="#369FB0"/>
<path d="M175.903 156.448C176.187 156.448 176.417 156.216 176.417 155.929C176.417 155.642 176.187 155.41 175.903 155.41C175.619 155.41 175.389 155.642 175.389 155.929C175.389 156.216 175.619 156.448 175.903 156.448Z" fill="#369FB0"/>
<path d="M175.903 150.27C176.187 150.27 176.417 150.038 176.417 149.751C176.417 149.465 176.187 149.232 175.903 149.232C175.619 149.232 175.389 149.465 175.389 149.751C175.389 150.038 175.619 150.27 175.903 150.27Z" fill="#369FB0"/>
<path d="M120.737 135.423L116.137 133.477C115.932 133.399 115.726 133.477 115.649 133.684C115.572 133.892 115.649 134.1 115.855 134.177L118.784 135.423H120.737Z" fill="#E5E0D7"/>
<path d="M117.319 133.632C117.268 133.736 117.139 133.814 117.037 133.762L115.315 133.139C115.212 133.087 115.135 132.958 115.187 132.854C115.238 132.75 115.366 132.672 115.469 132.724L117.191 133.347C117.293 133.399 117.371 133.529 117.319 133.632Z" fill="#C4C1BC"/>
<path d="M117.884 133.373C117.833 133.529 117.653 133.633 117.473 133.555L115.032 132.646C114.878 132.594 114.775 132.413 114.852 132.231C114.904 132.075 115.084 131.971 115.264 132.049L117.705 132.958C117.859 133.036 117.936 133.217 117.884 133.373Z" fill="#E5E0D7"/>
<path d="M182.353 180.639H192.117V191.567L187.877 195.85L190.447 191.229V182.222H183.715V184.143L182.353 181.574V180.639Z" fill="#D8D4D3"/>
<path d="M180.092 120.265L180.194 125.3C180.194 125.3 180.451 126.936 181.196 126.884C181.942 126.832 185.231 124.703 185.719 123.224C186.181 121.744 186.361 116.372 186.361 116.372L180.092 120.265Z" fill="#F7BD94"/>
<path d="M180.117 120.602L180.169 122.887C180.914 122.653 181.71 122.212 183.175 121.848C184.64 121.511 185.256 121.822 185.899 122.082C186.13 119.954 186.361 116.397 186.361 116.397L180.708 119.902C180.503 120.135 180.297 120.369 180.117 120.602Z" fill="#F7BD94"/>
<path d="M189.624 97.2159C189.624 97.2159 189.727 92.3881 195.406 92.3102C201.084 92.2323 202.163 105.003 194.044 104.406C185.924 103.809 189.624 97.2159 189.624 97.2159Z" fill="#433C35"/>
<path d="M188.134 97.0861C188.134 97.0861 188.185 95.6585 189.65 95.6066C191.115 95.5547 195.868 100.746 195.611 104.302C195.354 107.858 192.297 104.016 192.297 104.016L188.134 97.0861Z" fill="#E54145"/>
<path d="M172.537 108.922C172.537 108.922 170.456 108.091 170.096 103.471C169.762 98.8511 174.619 98.2541 175.492 98.5656C175.492 98.5656 181.145 94.179 187.8 95.8142C194.481 97.4495 199.62 111.44 189.11 115.541C178.627 119.59 172.537 108.922 172.537 108.922Z" fill="#433C35"/>
<path d="M171.818 106.171C171.818 106.171 171.792 113.231 172.332 115.982C172.846 118.734 177.908 122.653 177.908 122.653C177.908 122.653 185.796 122.134 187.158 116.294C187.158 116.294 190.575 117.514 191.295 114.814C192.04 112.115 190.087 109.675 187.877 110.999C187.877 110.999 176.443 110.246 175.595 104.146C175.595 104.146 173.026 106.612 171.818 106.171Z" fill="#F7BD94"/>
<path d="M173.951 113.127C174.149 113.127 174.31 112.813 174.31 112.426C174.31 112.039 174.149 111.725 173.951 111.725C173.752 111.725 173.591 112.039 173.591 112.426C173.591 112.813 173.752 113.127 173.951 113.127Z" fill="#433C35"/>
<path d="M179.475 113.127C179.674 113.127 179.835 112.813 179.835 112.426C179.835 112.039 179.674 111.725 179.475 111.725C179.276 111.725 179.115 112.039 179.115 112.426C179.115 112.813 179.276 113.127 179.475 113.127Z" fill="#433C35"/>
<path d="M172.794 111.154C172.794 111.154 173.257 110.505 173.796 110.505C174.31 110.505 174.953 111.154 175.261 111.025C175.569 110.921 175.775 110.505 175.621 110.272C175.466 110.09 173.539 109.13 172.794 111.154Z" fill="#433C35"/>
<path d="M181.351 111.154C181.351 111.154 180.888 110.505 180.349 110.505C179.835 110.505 179.192 111.154 178.884 111.025C178.576 110.921 178.37 110.505 178.524 110.272C178.678 110.09 180.631 109.13 181.351 111.154Z" fill="#433C35"/>
<path d="M171.432 114.269C171.432 114.269 173.951 113.568 175.749 113.62C177.522 113.672 184.203 114.996 184.203 114.996C184.203 114.996 184.357 118.656 184.151 119.668C183.946 120.68 178.91 122.575 177.702 122.679C176.494 122.783 172.974 119.382 172.357 118.318C171.689 117.306 171.227 115.385 171.432 114.269Z" fill="#EEEFE9"/>
<path d="M175.595 121.641C176.443 122.29 177.239 122.757 177.702 122.731C178.91 122.627 183.946 120.706 184.151 119.72C184.357 118.708 184.203 115.048 184.203 115.048C184.203 115.048 177.522 113.724 175.749 113.672C175.621 113.672 175.492 113.672 175.364 113.672C178.139 113.932 182.712 115.048 182.995 115.904C183.303 116.865 183.355 119.149 183.355 119.149C183.355 119.149 180.939 121.122 178.164 121.641C177.111 121.796 176.237 121.745 175.595 121.641Z" fill="#C9CBC9"/>
<path d="M183.046 115.333L187.774 110.661H188.083L187.928 111.414L183.972 115.541L187.877 116.501L187.389 117.306L183.509 116.398L183.046 115.333Z" fill="#C9CBC9"/>
<path d="M183.201 119.85L186.335 119.59L186.412 120.551L182.558 120.81L183.201 119.85Z" fill="#C9CBC9"/>
<path d="M154.011 162.807C154.011 162.807 160.307 164.598 163.57 166.104C166.833 167.583 187.62 169.712 193.299 171.736C198.951 173.735 237.494 204.182 237.494 204.182L231.507 209.918C231.507 209.918 194.429 185.934 189.83 186.038C185.205 186.142 166.088 187.414 150.029 186.453C133.969 185.493 131.014 182.638 131.014 182.638L154.011 162.807Z" fill="#2D324B"/>
<path d="M102.442 139.576C102.442 139.576 108.018 137.552 114.004 138.305C119.991 139.057 125.028 147.649 126.595 148.272C128.162 148.921 136.77 151.568 142.654 154.32C148.538 157.071 154.731 162.496 154.731 162.496C154.731 162.496 156.298 169.4 148.435 175.214C140.547 181.054 131.014 183.183 131.014 183.183C131.014 183.183 110.536 163.041 105.808 157.304C101.08 151.568 102.442 139.576 102.442 139.576Z" fill="#F29EBB"/>
<path d="M158.405 228.996L145.404 215.836L160.718 210.333L175.312 218.509L166.807 227.101L158.405 228.996Z" fill="#D1D0CC"/>
<path d="M158.405 228.996L165.394 227.412L151.519 219.651L149.772 220.274L158.405 228.996Z" fill="#B4AFAE"/>
<path d="M166.782 213.733L160.718 210.333L145.404 215.836L150.543 221.053L166.782 213.733Z" fill="#B4AFAE"/>
<path d="M149.078 237.795L162.08 224.661L175.312 218.509V239.066L149.078 237.795Z" fill="#14B16A"/>
<path d="M137.515 246.827H180.348L183.509 239.819C183.509 239.819 176.263 231.228 166.191 231.228C156.118 231.228 135.64 241.091 135.64 241.091C135.64 241.091 130.912 246.827 137.515 246.827Z" fill="#D1D0CC"/>
<path d="M183.509 239.819C183.509 239.819 182.378 238.495 180.426 236.886C177.933 240.027 172.075 241.091 172.075 241.091H163.236L157.352 243.427H134.252C133.661 245.01 133.79 246.827 137.515 246.827H180.349L183.509 239.819Z" fill="#B4AFAE"/>
<path d="M163.467 228.995C165.78 228.995 167.655 227.101 167.655 224.765C167.655 222.428 165.78 220.534 163.467 220.534C161.154 220.534 159.279 222.428 159.279 224.765C159.279 227.101 161.154 228.995 163.467 228.995Z" fill="#B4AFAE"/>
<path d="M163.467 227.516C164.971 227.516 166.191 226.284 166.191 224.765C166.191 223.245 164.971 222.013 163.467 222.013C161.963 222.013 160.743 223.245 160.743 224.765C160.743 226.284 161.963 227.516 163.467 227.516Z" fill="#14B16A"/>
<path d="M163.467 226.893C164.631 226.893 165.574 225.94 165.574 224.765C165.574 223.589 164.631 222.636 163.467 222.636C162.303 222.636 161.36 223.589 161.36 224.765C161.36 225.94 162.303 226.893 163.467 226.893Z" fill="#4CC0B6"/>
<path d="M93.3202 159.199H88.4896V162.6L93.6286 167.791L96.7633 164.624L93.3202 159.199Z" fill="#65615E"/>
<path d="M130.192 195.798C128.805 197.147 126.595 197.095 125.259 195.694L91.5987 160.134C90.2625 158.732 90.3139 156.5 91.7014 155.15C93.0889 153.8 95.2987 153.852 96.6348 155.254L130.295 190.814C131.631 192.242 131.58 194.474 130.192 195.798Z" fill="#D1D0CC"/>
<path d="M191.86 193.825H127.443V204.493L140.342 219.288H146.817L183.971 202.494L189.958 204.986H196.588V197.485L191.86 193.825Z" fill="#D1D0CC"/>
<path d="M232.124 217.315C231.121 218.847 229.092 219.288 227.576 218.276L189.136 192.968C187.62 191.956 187.183 189.906 188.185 188.374C189.188 186.843 191.217 186.401 192.733 187.414L231.173 212.721C232.689 213.733 233.126 215.784 232.124 217.315Z" fill="#14B16A"/>
<path d="M131.117 190.269C129.807 191.541 127.726 191.489 126.467 190.165L94.7591 156.656C93.5001 155.332 93.5515 153.229 94.8619 151.958C96.1723 150.686 98.2536 150.738 99.5127 152.061L131.22 185.571C132.453 186.895 132.428 188.997 131.117 190.269Z" fill="#14B16A"/>
<path d="M90.0826 151.101C88.6951 151.62 87.1534 150.893 86.6395 149.492L82.3485 137.474C81.8346 136.072 82.5541 134.515 83.9416 133.996C85.3291 133.477 86.8708 134.203 87.3847 135.605L91.6757 147.623C92.1896 149.024 91.4702 150.582 90.0826 151.101Z" fill="#65615E"/>
<path d="M95.2473 150.893C93.5515 151.516 91.65 150.634 91.0334 148.921L85.7916 134.203C85.1749 132.49 86.0486 130.57 87.7444 129.947C89.4403 129.324 91.3417 130.206 91.9584 131.919L97.2001 146.636C97.8168 148.35 96.9432 150.27 95.2473 150.893Z" fill="#14B16A"/>
<path d="M193.427 189.62C193.427 191.956 191.551 193.825 189.265 193.825H130.989C128.676 193.825 126.826 191.93 126.826 189.62C126.826 187.284 128.702 185.415 130.989 185.415H189.265C191.577 185.415 193.427 187.284 193.427 189.62Z" fill="#14B16A"/>
<path d="M186.13 180.613C186.13 182.067 184.974 183.235 183.535 183.235H132.942C131.503 183.235 130.346 182.067 130.346 180.613C130.346 179.16 131.503 177.992 132.942 177.992H183.535C184.974 177.966 186.13 179.16 186.13 180.613Z" fill="#D1D0CC"/>
<path d="M128.599 199.717C130.912 199.717 132.787 197.823 132.787 195.486C132.787 193.149 130.912 191.255 128.599 191.255C126.286 191.255 124.411 193.149 124.411 195.486C124.411 197.823 126.286 199.717 128.599 199.717Z" fill="#B4AFAE"/>
<path d="M128.599 198.237C130.103 198.237 131.323 197.006 131.323 195.486C131.323 193.967 130.103 192.735 128.599 192.735C127.095 192.735 125.876 193.967 125.876 195.486C125.876 197.006 127.095 198.237 128.599 198.237Z" fill="#14B16A"/>
<path d="M128.599 197.615C129.763 197.615 130.706 196.662 130.706 195.486C130.706 194.311 129.763 193.358 128.599 193.358C127.436 193.358 126.492 194.311 126.492 195.486C126.492 196.662 127.436 197.615 128.599 197.615Z" fill="#4CC0B6"/>
<path d="M141.19 181.262H137.412V195.901H141.19V181.262Z" fill="#D1D0CC"/>
<path d="M180.451 181.262H176.674V195.901H180.451V181.262Z" fill="#D1D0CC"/>
<path d="M81.2436 154.579V144.612L85.3034 140.511L86.2027 141.419L82.5027 145.157V154.06L91.907 163.586L91.0334 164.468L81.2436 154.579Z" fill="#65615E"/>
<path d="M84.0701 153.982V146.74L87.025 143.755L87.4618 144.197L84.6867 147V153.722L91.7014 160.783L91.2389 161.224L84.0701 153.982Z" fill="#65615E"/>
<path d="M177.471 171.944C177.471 174.41 176.314 176.408 174.875 176.408H132.633C131.194 176.408 130.038 174.41 130.038 171.944C130.038 169.478 131.194 167.479 132.633 167.479H174.875C176.314 167.479 177.471 169.478 177.471 171.944Z" fill="#F7BD94"/>
<path d="M100.9 141.705C102.545 139.888 104.729 139.213 105.782 140.199L136.95 169.011C138.003 169.997 137.541 172.255 135.896 174.072C134.252 175.889 132.068 176.564 131.014 175.578L99.8466 146.766C98.7674 145.78 99.2556 143.522 100.9 141.705Z" fill="#F7BD94"/>
<path d="M169.814 167.739C169.814 169.011 168.811 170.023 167.552 170.023C166.293 170.023 165.291 169.011 165.291 167.739V166.571C165.291 165.299 166.293 164.287 167.552 164.287C168.811 164.287 169.814 165.299 169.814 166.571V167.739Z" fill="#F7BD94"/>
<path d="M164.032 176.123C164.032 176.798 163.493 177.343 162.825 177.343C162.156 177.343 161.617 176.798 161.617 176.123V167.635C161.617 166.96 162.156 166.415 162.825 166.415C163.493 166.415 164.032 166.96 164.032 167.635V176.123Z" fill="#89AAC9"/>
<path d="M163.081 174.695C164.472 174.695 165.6 173.556 165.6 172.151C165.6 170.747 164.472 169.608 163.081 169.608C161.691 169.608 160.563 170.747 160.563 172.151C160.563 173.556 161.691 174.695 163.081 174.695Z" fill="#89AAC9"/>
<path d="M163.082 174.176C164.188 174.176 165.086 173.27 165.086 172.151C165.086 171.033 164.188 170.127 163.082 170.127C161.975 170.127 161.077 171.033 161.077 172.151C161.077 173.27 161.975 174.176 163.082 174.176Z" fill="white"/>
<path d="M163.082 172.385C163.209 172.385 163.313 172.28 163.313 172.151C163.313 172.022 163.209 171.918 163.082 171.918C162.954 171.918 162.85 172.022 162.85 172.151C162.85 172.28 162.954 172.385 163.082 172.385Z" fill="#754D29"/>
<path d="M163.21 170.594H162.979V172.177H163.21V170.594Z" fill="#754D29"/>
<path d="M163.62 172.858L163.789 172.698L163.105 171.958L162.936 172.118L163.62 172.858Z" fill="#754D29"/>
<path d="M98.4591 140.433L96.8917 139.914V140.978C96.8917 140.978 90.6993 132.802 88.5923 126.443C86.4853 120.083 88.6951 118.915 88.6951 118.915C88.6951 118.915 88.4895 115.619 91.9583 113.387C95.4271 111.154 102.365 109.571 107.195 109.779C112.026 109.986 113.491 110.298 113.491 110.298L112.643 110.947C112.643 110.947 112.643 111.803 113.696 112.426C114.75 113.075 115.161 113.075 115.161 113.075C115.161 113.075 114.75 113.283 113.696 113.828C112.643 114.347 112.745 115.1 112.745 115.1L113.491 116.06H111.923L112.437 117.124L110.33 117.54C110.33 117.54 108.429 132.386 107.812 132.932C107.17 133.425 98.4591 140.433 98.4591 140.433Z" fill="#65615E"/>
<path d="M110.176 134.593L113.259 133.684L113.67 134.697L111.692 135.294L110.176 134.593Z" fill="#D1D0CC"/>
<path d="M109.534 131.738L112.951 131.089L113.002 130.076C113.002 130.076 109.379 130.881 109.534 131.738Z" fill="#D1D0CC"/>
<path d="M99.7182 142.432L97.3029 139.343L99.6154 138.071L98.3564 134.255L99.7182 133.087L99.6154 132.231C99.6154 132.231 97.5085 133.295 95.8383 131.27C94.1681 129.246 94.1681 125.119 96.0438 124.704C97.9453 124.288 98.973 125.975 98.973 125.975L101.08 129.479L102.545 128.311L100.772 122.575L102.673 122.367L102.776 120.784L107.195 117.28L106.142 115.801L110.022 115.593L111.589 119.201V120.992L114.852 126.079L115.161 127.87L114.005 128.831L113.799 130.518C113.799 130.518 109.879 130.601 109.712 132.266C109.546 133.931 110.227 135.397 114.133 133.996L114.544 135.268L113.593 135.579C113.593 135.579 113.799 136.955 112.643 137.708C111.486 138.46 104.549 140.355 104.549 140.355L99.7182 142.432Z" fill="#F7BD94"/>
<path d="M109.688 160.783L120.094 150.504C120.094 150.504 112.103 139.888 106.116 139.057C100.129 138.201 97.0973 143.08 98.6647 147.649C100.232 152.191 109.688 160.783 109.688 160.783Z" fill="#F29EBB"/>
<path d="M104.934 156.084C105.679 156.863 106.373 157.59 107.015 158.213L117.91 147.83C117.319 147.13 116.6 146.377 115.829 145.572L104.934 156.084Z" fill="white"/>
<path d="M242.119 216.277L242.042 217.393L243.686 218.431C243.686 218.431 245.099 217.783 246.513 216.848C247.926 215.888 249.827 212.721 249.827 212.721L248.954 211.839L249.75 210.878L250.701 211.268C250.701 211.268 255.66 204.83 256.534 202.832C257.407 200.833 257.716 199.717 257.716 199.717L256.379 198.834L255.994 199.068L242.119 216.277Z" fill="#E6C071"/>
<path d="M236.98 204.337C236.98 204.337 240.834 205.998 243.686 204.882C246.513 203.766 252.731 198.367 254.555 198.834C256.354 199.302 256.688 199.38 256.688 199.38C256.688 199.38 244.56 217.211 242.581 217.289C240.603 217.367 232.74 210.281 232.74 210.281L236.98 204.337Z" fill="#65615E"/>
<path d="M243.455 204.571L244.38 207.608L244.945 207.27L244.149 204.026L243.455 204.571Z" fill="#E6C071"/>
<path d="M244.56 203.948L245.485 206.959L246.05 206.647L245.254 203.377L244.56 203.948Z" fill="#E6C071"/>
<path d="M245.639 203.221L246.59 206.258L247.155 205.92L246.359 202.676L245.639 203.221Z" fill="#E6C071"/>
<path d="M247.001 202.261L247.926 205.297L248.491 204.986L247.695 201.716L247.001 202.261Z" fill="#E6C071"/>
<path d="M248.183 201.56L249.108 204.571L249.673 204.259L248.877 200.989L248.183 201.56Z" fill="#E6C071"/>
<path d="M229.811 209.58L236.337 201.949L239.472 204.078L232.226 211.605L229.811 209.58Z" fill="#E5AE6B"/>
<path d="M110.553 123.046C110.997 122.929 111.264 122.472 111.148 122.027C111.033 121.582 110.579 121.317 110.134 121.435C109.69 121.553 109.423 122.009 109.539 122.454C109.654 122.899 110.108 123.164 110.553 123.046Z" fill="#65615E"/>
<path d="M108.374 122.52C108.374 122.52 108.734 121.04 109.788 120.833C110.841 120.625 111.201 120.417 111.201 120.417C111.201 120.417 109.633 120.106 108.734 120.417C107.835 120.703 108.374 122.52 108.374 122.52Z" fill="#65615E"/>
</svg>
