<svg width="300" height="269" viewBox="0 0 300 269" fill="none" xmlns="http://www.w3.org/2000/svg">
<path d="M21.7178 192.934C-13.4985 149.403 -4.66576 73.9572 39.3743 32.1684C92.374 -18.1211 170.651 4.72946 181.956 8.02951C239.765 24.9052 294.373 75.5903 299.569 137.612C302.504 172.643 290.534 221.514 260.602 233.529C247.638 238.732 238.027 234.325 222.342 229.918C211.47 226.863 197.68 223.807 177.834 223.953C141.588 224.219 137.412 234.776 108.492 233.176C102.761 232.859 51.1332 229.295 21.7178 192.934Z" fill="#7A9EBF"/>
<path d="M197.336 214.414L196.865 213.868C219.142 190.115 228.435 153.775 228.526 153.41L229.243 153.504C229.152 153.871 219.798 190.463 197.336 214.414Z" fill="#142A3B"/>
<path d="M228.155 154.269C228.155 154.269 229.457 131.148 235.595 115.441C237.713 110.022 240.194 105.448 242.464 101.821C242.464 101.821 243.521 130.692 228.155 154.269Z" fill="#5CC58B"/>
<path d="M242.464 101.821C242.464 101.821 236.673 112.698 236.45 126.462C236.226 140.226 238.168 150.389 220.901 169.552C220.901 169.552 229.906 118.778 242.464 101.821Z" fill="#142A3B"/>
<path d="M208.421 203.987C206.303 203.161 209.336 189.826 215.53 177.826C222.613 164.102 227.933 163.553 235.31 149.458C242.022 136.635 239.171 134.125 244.907 125.124C255.767 108.085 275.597 102.008 276.117 104.048C276.428 105.266 269.603 108.385 264.871 117.255C259.446 127.425 263.539 132.474 260.006 142.556C255.955 154.118 247.944 154.986 232.161 172.753C216.557 190.318 208.421 203.987 208.421 203.987Z" fill="#5CC58B"/>
<path d="M208.421 203.987C208.421 203.987 232.154 182.869 255.417 150.554C255.417 150.554 226.78 169.295 208.421 203.987Z" fill="#142A3B"/>
<path d="M203.5 215.575C204.977 207.87 209.331 199.832 209.374 199.752C215.568 184.002 223.329 171.145 232.413 161.596C233.263 160.702 234.137 159.823 235.023 158.932C239.206 154.726 243.532 150.376 246.759 143.114C248.506 139.183 249.065 136.333 249.607 133.577C250.157 130.772 250.677 128.124 252.355 124.583C255.631 117.669 261.476 111.53 269.727 106.336L270.01 107.038C261.918 112.131 256.196 118.129 253.004 124.865C251.381 128.29 250.873 130.88 250.336 133.62C249.784 136.431 249.213 139.338 247.42 143.373C244.114 150.809 239.721 155.227 235.473 159.499C234.593 160.385 233.724 161.259 232.878 162.147C223.886 171.6 216.197 184.345 210.025 200.029C209.954 200.166 205.677 208.068 204.23 215.614L203.5 215.575Z" fill="#142A3B"/>
<path d="M205.269 209.902C205.269 209.902 238.543 184.553 263.358 171.178L241.935 172.888L218.054 191.879L205.269 209.902Z" fill="#142A3B"/>
<path d="M205.269 209.902C210.93 198.199 216.874 191.222 221.226 187.027C227.518 180.96 231.087 180.125 239.463 171.812C246.933 164.4 247.984 161.205 251.79 157.727C257.732 152.297 267.977 148.375 286.78 156.095C286.78 156.095 283.853 155.048 280.512 156.688C277.17 158.328 266.995 172.107 256.264 173.988C245.532 175.87 234.863 177.25 222.935 189.456C211.007 201.663 205.269 209.902 205.269 209.902Z" fill="#5CC58B"/>
<path d="M202.216 216.048L201.599 215.701L204.962 209.728C215.266 191.426 228.725 182.716 241.741 174.293C246.829 171.001 251.632 167.892 256.067 164.306C271.68 151.68 280.086 154.647 280.437 154.779L280.096 155.565C280.014 155.534 271.663 152.633 256.439 164.944C251.966 168.56 247.142 171.682 242.035 174.987C229.117 183.347 215.759 191.99 205.577 210.075L202.216 216.048Z" fill="#142A3B"/>
<path d="M106.158 222.217L106.729 221.776C89.6868 194.023 87.8952 156.555 87.8795 156.179L87.1578 156.126C87.1735 156.504 88.9743 194.232 106.158 222.217Z" fill="#142A3B"/>
<path d="M88.0691 157.096C88.0691 157.096 91.4458 134.185 88.5933 117.564C87.6095 111.829 86.0989 106.849 84.6054 102.839C84.6054 102.839 77.7616 130.906 88.0691 157.096Z" fill="#5CC58B"/>
<path d="M84.6053 102.839C84.6053 102.839 88.0893 114.66 85.5394 128.187C82.9895 141.714 79.0428 151.278 92.1008 173.526C92.1008 173.526 93.4943 121.978 84.6053 102.839Z" fill="#142A3B"/>
<path d="M97.3967 209.771C99.6374 209.388 99.3498 195.714 95.6972 182.713C91.5197 167.843 86.4192 166.234 82.0287 150.943C78.0342 137.03 81.3325 135.144 77.5237 125.174C70.3139 106.296 52.1128 96.3488 51.1932 98.2427C50.6436 99.3735 56.7017 103.804 59.5517 113.445C62.8192 124.499 57.7952 128.621 59.2272 139.208C60.8692 151.349 68.5419 153.812 80.4266 174.394C92.1779 194.743 97.3967 209.771 97.3967 209.771Z" fill="#5CC58B"/>
<path d="M97.3967 209.771C97.3967 209.771 78.3983 184.304 62.1129 147.966C62.1129 147.966 86.3931 172.09 97.3967 209.771Z" fill="#142A3B"/>
<path d="M99.8858 222.112C99.989 214.268 97.3424 205.518 97.3156 205.43C94.4167 188.755 89.4018 174.598 82.4248 163.415C81.7724 162.369 81.0926 161.331 80.4043 160.28C77.1524 155.317 73.7907 150.185 72.0905 142.422C71.1708 138.219 71.1957 135.315 71.2199 132.506C71.2454 129.648 71.2682 126.949 70.3381 123.143C68.5196 115.711 64.03 108.521 56.9922 101.772L56.5732 102.401C63.4759 109.02 67.8738 116.048 69.6452 123.289C70.5453 126.971 70.5218 129.609 70.4976 132.402C70.4727 135.267 70.4466 138.228 71.3918 142.543C73.1331 150.493 76.5471 155.705 79.8487 160.745C80.5337 161.789 81.2096 162.821 81.8587 163.86C88.7645 174.932 93.7323 188.965 96.6234 205.57C96.6646 205.719 99.2641 214.32 99.1635 222.004L99.8858 222.112Z" fill="#142A3B"/>
<path d="M99.2942 216.199C99.2942 216.199 71.8016 184.667 50.1861 166.569L70.8257 172.558L90.3973 195.97L99.2942 216.199Z" fill="#142A3B"/>
<path d="M99.2942 216.199C96.1044 203.596 91.6844 195.563 88.2671 190.579C83.3242 183.369 79.9964 181.832 73.4632 172.002C67.6379 163.237 67.2515 159.897 64.223 155.722C59.4955 149.206 50.2479 143.301 30.2768 147.077C30.2768 147.077 33.3548 146.641 36.2978 148.92C39.241 151.199 46.4358 166.746 56.5692 170.75C66.7025 174.755 76.8753 178.255 86.1035 192.614C95.3318 206.973 99.2942 216.199 99.2942 216.199Z" fill="#5CC58B"/>
<path d="M101.05 222.834L101.723 222.618L99.6308 216.091C93.2198 196.087 81.7881 184.845 70.7335 173.973C66.4129 169.724 62.332 165.712 58.7094 161.306C45.9558 145.795 37.1253 147.006 36.7556 147.066L36.9307 147.904C37.0178 147.891 45.7808 146.73 58.2173 161.856C61.8709 166.299 65.9684 170.328 70.306 174.595C81.2782 185.385 92.6224 196.541 98.9576 216.307L101.05 222.834Z" fill="#142A3B"/>
<path d="M94.2212 256.175H216.445V248.762H94.2212V256.175Z" fill="#D3DCE3"/>
<path d="M226.358 69.1014C220.495 57.4191 210.305 52.2814 200.413 49.6445C191.439 47.2522 182.456 49.5902 174.505 55.5232C169.057 59.5878 162.987 61.6505 156.906 61.7191C156.382 61.7132 154.285 61.7132 153.76 61.7191C147.679 61.6505 141.61 59.5878 136.162 55.5232C128.211 49.5902 119.228 47.2522 110.253 49.6445C100.362 52.2814 90.1712 57.4191 84.3086 69.1014C73.9868 89.6682 76.0935 120.098 86.3454 139.854C88.5031 144.013 88.7796 149.419 88.5214 154.476C88.1481 161.788 88.0436 168.646 88.2632 175.963C88.5344 184.994 89.1731 194.032 90.5059 202.899C92.7923 218.106 97.2927 233.322 106.059 243.89C108.246 246.525 110.652 248.822 113.216 250.743C120.402 256.128 128.313 251.096 131.614 241.469C133.704 235.377 134.059 228.512 134.502 221.83C135.48 207.091 139.3 193.331 151.695 191.575C152.384 191.477 153.074 191.44 153.76 191.457C154.283 191.444 154.808 191.494 155.333 191.547C155.859 191.494 156.383 191.444 156.906 191.457C157.593 191.44 158.282 191.477 158.972 191.575C171.367 193.331 175.186 207.091 176.164 221.83C176.608 228.512 176.962 235.377 179.052 241.469C182.354 251.096 190.264 256.128 197.45 250.743C200.014 248.822 202.421 246.525 204.607 243.89C213.374 233.322 217.874 218.106 220.161 202.899C221.494 194.032 222.132 184.994 222.403 175.963C222.623 168.646 222.519 161.788 222.145 154.476C221.887 149.419 222.163 144.013 224.321 139.854C234.573 120.098 236.679 89.6682 226.358 69.1014Z" fill="white"/>
<path d="M213.647 220.073C203.697 225.458 192.745 220.426 188.173 210.799C185.28 204.706 184.789 197.841 184.175 191.159C182.822 176.421 177.533 162.66 160.371 160.904C159.416 160.806 158.461 160.769 157.511 160.786C156.788 160.774 156.06 160.823 155.333 160.876C154.606 160.823 153.879 160.774 153.156 160.786C152.205 160.769 151.25 160.806 150.295 160.904C133.134 162.66 127.845 176.421 126.491 191.159C125.877 197.841 125.386 204.706 122.493 210.799C117.921 220.426 106.969 225.458 97.0202 220.073C95.8802 219.456 94.7729 218.787 93.6813 218.093C96.341 227.825 100.249 236.886 106.06 243.89C108.246 246.525 110.652 248.821 113.216 250.743C120.402 256.128 128.312 251.096 131.614 241.469C133.704 235.377 134.058 228.512 134.502 221.829C135.48 207.091 139.299 193.331 151.695 191.575C152.384 191.477 153.074 191.44 153.76 191.457C154.283 191.444 154.808 191.494 155.333 191.547C155.859 191.494 156.383 191.444 156.906 191.457C157.593 191.44 158.282 191.477 158.972 191.575C171.367 193.331 175.186 207.091 176.164 221.829C176.608 228.512 176.962 235.377 179.052 241.469C182.354 251.096 190.264 256.128 197.45 250.743C200.014 248.821 202.421 246.525 204.607 243.89C210.417 236.886 214.325 227.825 216.985 218.093C215.893 218.787 214.786 219.456 213.647 220.073Z" fill="#CDE6F7"/>
<path d="M155.333 79.9976C172.685 79.9976 187.416 66.9321 192.736 48.7681C186.386 48.9263 180.181 51.2866 174.504 55.5232C169.057 59.5877 162.987 61.6498 156.906 61.7191C156.382 61.7132 154.285 61.7132 153.76 61.7191C147.679 61.6498 141.61 59.5877 136.162 55.5232C130.486 51.2866 124.28 48.9263 117.93 48.7681C123.251 66.9321 137.981 79.9976 155.333 79.9976Z" fill="#CDE6F7"/>
<path d="M44.0157 265.211C32.6143 265.211 23.3716 264.034 23.3716 262.583C23.3716 261.131 32.6143 259.954 44.0157 259.954C55.4171 259.954 64.6596 261.131 64.6596 262.583C64.6596 264.034 55.4171 265.211 44.0157 265.211Z" fill="#D3DCE3"/>
<path d="M32.6733 249.403L25.6524 249.503C26.2359 252.149 26.865 254.858 27.5475 257.632L32.3835 257.564L32.6733 249.403Z" fill="#F9ADAE"/>
<path d="M49.5595 248.217L42.1301 248.321L44.8221 256.107L50.3584 254.153C50.3584 254.153 50.0625 251.91 49.5595 248.217Z" fill="#F9ADAE"/>
<path d="M34.1839 256.706L27.2074 256.685C27.2074 256.685 25.6532 258.031 24.9743 263.989L39.5574 264.033C39.5574 264.033 39.9643 260.513 36.1369 259.147L34.1839 256.706Z" fill="#142A3B"/>
<path d="M44.164 254.875C44.164 254.875 43.7315 259.511 44.3431 261.397L60.415 261.558C60.415 261.558 61.2966 257.443 50.998 254.897L44.164 254.875Z" fill="#142A3B"/>
<path d="M29.0075 256.912L28.0811 254.811C28.0811 254.811 30.957 253.497 34.3887 254.492L34.381 257.039L29.0075 256.912Z" fill="#142A3B"/>
<path d="M48.0668 254.963L47.4607 252.886C47.4607 252.886 49.0337 251.504 51.0126 252.415L51.1084 254.959L48.0668 254.963Z" fill="#142A3B"/>
<path d="M33.947 114.207L40.7148 112.956L36.7679 94.8674L30.561 96.2238L33.947 114.207Z" fill="#F7BD94"/>
<path d="M36.4632 85.8554C36.4632 85.8554 46.4432 83.484 45.7499 89.0927C45.057 94.7007 43.1999 96.4697 43.1999 96.4697L36.4632 85.8554Z" fill="#142A3B"/>
<path d="M44.6226 93.0179C45.7155 98.0262 42.6282 102.955 37.7271 104.025C32.8257 105.095 27.9667 101.904 26.874 96.8948C25.7811 91.8872 28.8683 86.9594 33.7695 85.8881C38.6706 84.8182 43.5298 88.0097 44.6226 93.0179Z" fill="#F9ADAE"/>
<path d="M44.2353 91.7079C44.2353 91.7079 47.4933 102.023 43.1177 107.547C42.8925 107.831 42.554 107.997 42.1937 108.003C40.0085 108.045 30.3472 106.987 27.5902 98.4362L44.2353 91.7079Z" fill="#F7BD94"/>
<path d="M37.1018 99.8084C37.1018 99.8084 44.6711 96.5469 45.4872 98.4847C45.4872 98.4847 46.1347 108.156 42.3139 108.162C35.7238 108.172 37.1018 99.8084 37.1018 99.8084Z" fill="white"/>
<path d="M34.4216 96.8484C34.4364 96.8621 36.2654 99.8502 38.7612 101.051C38.8835 101.109 39.0298 101.057 39.0881 100.935C39.1463 100.813 39.0947 100.666 38.9724 100.608C37.8229 100.061 36.7796 99.0556 36.0338 98.1851C35.6605 97.7502 35.3602 97.3493 35.1542 97.059C35.0512 96.9131 34.9716 96.7954 34.9182 96.7143C34.8646 96.6325 34.8383 96.59 34.8383 96.59C34.7671 96.4749 34.6159 96.4396 34.5007 96.5109C34.3859 96.5822 34.3504 96.7333 34.4216 96.8484Z" fill="white"/>
<path d="M33.1626 101.265C33.1758 101.292 34.8684 105.172 39.4593 106.864C39.5862 106.911 39.7271 106.845 39.7739 106.718C39.8206 106.591 39.7552 106.45 39.6284 106.404C37.432 105.596 35.9268 104.26 34.969 103.123C34.4903 102.556 34.1492 102.038 33.9288 101.664C33.8185 101.478 33.7383 101.327 33.6862 101.224L33.6288 101.106L33.6117 101.069C33.5576 100.945 33.413 100.888 33.2889 100.942C33.1649 100.997 33.1084 101.141 33.1626 101.265Z" fill="white"/>
<path d="M42.6555 88.9867C42.6555 88.9867 39.5272 96.6188 34.5441 97.2336C34.5441 97.2336 32.1557 95.3115 31.4281 97.0733C30.7001 98.8352 31.8844 101.061 33.387 101.167C33.387 101.167 32.1055 104.427 32.4775 106.403C32.4775 106.403 28.9659 105.072 27.5902 103.57C25.7919 101.607 24.7062 96.7346 25.4982 92.1828C26.4105 86.943 38.4372 80.5064 42.6555 88.9867Z" fill="#142A3B"/>
<path d="M29.4388 89.4949C29.2421 87.376 27.0325 85.1641 24.4628 85.2557C22.5274 85.325 21.0125 86.6775 20.3221 88.0921C19.0955 90.6047 20.1549 93.9584 22.1549 94.8851C24.9327 96.1715 29.7531 92.8845 29.4388 89.4949Z" fill="#142A3B"/>
<path d="M42.3234 88.8252L42.3287 88.8396C42.3591 88.9246 42.5023 89.3589 42.5021 90.0128C42.4991 91.0867 42.1288 92.7498 40.2064 94.4992C40.106 94.5908 40.0987 94.7458 40.1896 94.8459C40.2804 94.9466 40.4354 94.9538 40.5358 94.8629C42.5563 93.0323 42.9954 91.2031 42.9924 90.0128C42.9921 89.1836 42.7868 88.6637 42.7786 88.6434C42.7284 88.5172 42.5856 88.4564 42.4597 88.5067C42.3341 88.5571 42.2731 88.6996 42.3234 88.8252Z" fill="#142A3B"/>
<path d="M29.0068 89.0985C29.0091 89.0874 29.0657 88.7925 29.0657 88.3477C29.0652 87.7049 28.9485 86.7402 28.3459 85.8815C27.7444 85.0215 26.65 84.3034 24.8127 84.1602C24.6778 84.1491 24.5596 84.2498 24.5489 84.3852C24.5382 84.5199 24.6388 84.6383 24.7739 84.6494C26.506 84.7913 27.4255 85.4309 27.9451 86.1641C28.4639 86.8992 28.5763 87.7631 28.5755 88.3477C28.5755 88.5492 28.5628 88.7166 28.5497 88.8317L28.5326 88.9638L28.5257 89.005C28.4997 89.1378 28.5865 89.2666 28.7195 89.2928C28.8523 89.3183 28.981 89.2319 29.0068 89.0985Z" fill="#142A3B"/>
<path d="M39.6054 107.769C39.6054 107.769 36.1821 106.965 34.9678 106.208C34.9678 106.208 38.4449 108.55 39.8257 108.814L39.6054 107.769Z" fill="#142A3B"/>
<path d="M32.0521 101.691C32.2678 102.212 32.8648 102.459 33.3852 102.243C33.9058 102.027 34.1525 101.43 33.9365 100.909C33.7205 100.388 33.1235 100.141 32.6028 100.358C32.0827 100.574 31.8361 101.171 32.0521 101.691Z" fill="white"/>
<path d="M56.5492 154.535C45.5967 154.535 27.7398 155.364 27.7398 155.364C27.2881 157.488 28.0041 156.914 26.8765 159.254C25.1645 162.806 24.6285 166.809 25.4127 170.674C25.6943 172.062 25.9946 173.533 26.281 174.923C26.281 174.923 26.4365 183.083 26.281 188.25C26.1258 193.42 24.4258 202.698 23.2937 207.545C22.1618 212.391 21.5199 216.697 21.7839 222.448C22.0477 228.2 25.572 250.671 25.572 250.671C25.572 250.671 28.0592 253.783 33.2364 250.671C33.2364 250.671 33.6857 218.468 34.7152 214.891C35.7447 211.314 35.8285 213.483 38.6696 207.77C39.9526 205.19 42.4309 195.588 44.7628 185.835C44.8182 188.234 44.8083 190.396 44.6908 192.023C44.1181 199.969 41.0493 210.63 40.7431 214.118C40.4375 217.607 41.6026 248.626 41.6026 248.626C41.6026 248.626 44.4973 252.225 50.2091 249.302C50.2091 249.302 52.0477 220.152 51.9277 216.887C51.8077 213.623 58.1639 203.59 59.7291 195.063C61.2946 186.535 59.9184 162.425 56.5492 154.535Z" fill="#142A3B"/>
<path d="M31.5731 155.092C31.5657 155.112 29.9696 158.853 29.9688 164.116C29.9688 165.431 30.069 166.843 30.3192 168.314C30.5487 169.662 30.6559 171.616 30.6557 173.935C30.6559 178.926 30.1637 185.621 29.3824 191.797C28.6026 197.971 27.5268 203.639 26.385 206.537C25.0711 209.876 24.3775 214.005 24.3775 219.993C24.3778 227.163 25.3708 237.008 27.4972 251.398C27.5172 251.532 27.6418 251.625 27.7756 251.605C27.9096 251.585 28.002 251.46 27.9824 251.327C25.857 236.947 24.8675 227.118 24.8678 219.993C24.868 214.041 25.5572 209.98 26.8413 206.716C28.0153 203.727 29.0836 198.056 29.8687 191.859C30.6521 185.664 31.1459 178.957 31.1459 173.935C31.1457 171.599 31.04 169.63 30.8025 168.232C30.5574 166.79 30.4591 165.407 30.4591 164.116C30.4591 161.534 30.8518 159.322 31.244 157.757C31.4401 156.975 31.6362 156.355 31.7827 155.931C31.856 155.719 31.9168 155.557 31.9592 155.448C32.0013 155.338 32.024 155.285 32.024 155.285C32.0771 155.16 32.0194 155.017 31.8948 154.964C31.7705 154.91 31.6265 154.968 31.5731 155.092Z" fill="#5A79C5"/>
<path d="M44.9865 185.935L49.0897 176.758C49.1451 176.634 49.0897 176.489 48.9661 176.434C48.8426 176.379 48.6975 176.434 48.6423 176.558L44.5392 185.735C44.4837 185.858 44.5392 186.003 44.6627 186.058C44.7863 186.114 44.9314 186.058 44.9865 185.935Z" fill="#142A3B"/>
<path d="M44.114 250.088C44.114 250.085 44.0816 249.201 44.0329 247.704C43.8862 243.214 43.5934 233.241 43.5934 225.304C43.5934 222.658 43.6261 220.239 43.707 218.327C43.7476 217.372 43.8005 216.542 43.8668 215.878C43.9325 215.214 44.0149 214.71 44.1033 214.427C44.9977 211.536 47.4183 202.205 47.4193 192.064C47.4193 188.838 47.1739 185.529 46.5543 182.319C46.5287 182.187 46.4 182.1 46.267 182.125C46.1342 182.151 46.0474 182.28 46.0729 182.412C46.6855 185.584 46.9291 188.863 46.9291 192.064C46.9301 202.126 44.5187 211.431 43.635 214.282C43.528 214.631 43.4476 215.148 43.3789 215.829C43.1759 217.864 43.1034 221.328 43.1032 225.304C43.1032 235.901 43.6241 250.104 43.6243 250.106C43.6292 250.241 43.7428 250.346 43.8781 250.342C44.0134 250.337 44.1191 250.223 44.114 250.088Z" fill="#5A79C5"/>
<path d="M65.5743 147.479C69.187 141.342 69.5524 140.478 74.3241 129.468L70.5074 127.648L64.0328 135.729C63.254 134.445 58.2687 126.893 56.9759 121.571C55.0543 113.657 47.296 112.153 47.296 112.153C47.8833 115.37 49.7929 118.88 51.0341 120.314L51.0328 120.313L49.9895 123.435C51.8971 125.315 58.6502 156.459 65.5743 147.479Z" fill="white"/>
<path d="M70.5074 127.648L64.0328 135.729C63.5336 134.906 61.732 131.863 59.5622 128.033C55.9975 129.197 55.2358 131.696 54.0046 134.441C57.052 143.185 61.28 153.047 65.5743 147.479C69.187 141.342 69.3445 141.089 74.7117 128.196L70.5074 127.648Z" fill="#F7BD94"/>
<path d="M55.0517 124.177C55.0517 124.177 50.0699 113.496 50.3229 113.341C50.3229 113.341 48.95 112.038 40.0841 110.803L39.5234 113.054L34.1172 111.884C34.1172 111.884 26.5106 113.199 22.4978 117.089C22.4978 117.089 22.0066 125.973 22.9257 130.365L23.4351 132.799C24.11 136.025 30.777 145.428 30.777 145.428L27.7398 155.364C27.7398 155.364 46.8747 158.765 56.5492 154.534L52.048 142.086L55.0517 124.177Z" fill="white"/>
<path d="M30.777 145.428C30.777 145.428 23.838 161.799 23.7589 170.153C23.68 178.505 22.3666 203.294 22.3666 203.294C22.3666 203.294 42.7473 210.096 60.3734 201.039C60.3734 201.039 64.116 161.171 51.5026 141.578L30.777 145.428Z" fill="white"/>
<path d="M44.244 111.652C43.9695 112.816 43.6005 113.65 43.3031 114.191C43.1545 114.462 43.0237 114.659 42.9316 114.786C42.8854 114.85 42.8488 114.897 42.8246 114.927L42.7978 114.959L42.7911 114.966L42.973 115.131L43.1198 114.935L40.8728 113.253C40.7858 113.188 40.6666 113.188 40.5795 113.253C40.4922 113.318 40.4584 113.432 40.4959 113.534L41.9674 117.516L41.9687 117.519C41.9695 117.521 42.2746 118.314 42.7459 119.562C43.4529 121.434 44.5322 124.326 45.5076 127.084C46.4825 129.839 47.3555 132.469 47.643 133.783C48.1726 136.193 53.0453 157.221 53.0448 177.777C53.0458 187.674 51.9126 197.459 48.6413 204.984C48.5872 205.108 48.6441 205.252 48.7682 205.307C48.8923 205.36 49.0368 205.303 49.0907 205.179C52.405 197.55 53.5343 187.712 53.5351 177.777C53.5348 157.149 48.6513 136.092 48.1217 133.677C47.7208 131.856 46.3004 127.79 44.9758 124.156C43.6518 120.526 42.4262 117.344 42.4261 117.343L42.1973 117.431L42.4273 117.346L41.2436 114.143L42.8262 115.328C42.9272 115.403 43.0697 115.389 43.1547 115.296C43.1775 115.271 44.1513 114.183 44.7212 111.764C44.7521 111.633 44.6706 111.5 44.5389 111.469C44.4071 111.438 44.2752 111.52 44.244 111.652Z" fill="#142A3B"/>
<path d="M33.0673 109.752L39.8681 113.624L35.7172 117.099L30.777 113.539C30.777 113.539 30.6712 111.241 33.0673 109.752Z" fill="white"/>
<path d="M44.4643 111.528C44.4643 111.528 42.4332 109.517 39.9304 109.361L39.5234 113.054" fill="white"/>
<path d="M30.6337 113.738L35.5736 117.298C35.6717 117.369 35.807 117.357 35.8916 117.271L38.88 114.237L43.8398 122.474C43.9098 122.59 44.0604 122.627 44.1763 122.557C44.2922 122.488 44.3295 122.337 44.2598 122.221L39.1368 113.713C39.0975 113.647 39.0314 113.605 38.9558 113.596C38.88 113.587 38.8057 113.613 38.7523 113.667L35.6898 116.777L30.9202 113.34C30.8104 113.261 30.6572 113.286 30.5781 113.396C30.4989 113.506 30.524 113.659 30.6337 113.738Z" fill="#142A3B"/>
<path d="M34.1882 252.781L25.6409 253.561C24.8701 253.631 24.1881 253.063 24.1177 252.292L23.8753 249.636C23.8051 248.864 24.373 248.182 25.1441 248.111L33.6914 247.331C34.462 247.26 35.1442 247.828 35.2146 248.6L35.4569 251.257C35.5272 252.028 34.9593 252.711 34.1882 252.781Z" fill="#142A3B"/>
<path d="M50.5259 251.362H41.9432C41.169 251.362 40.5414 250.734 40.5414 249.96V247.292C40.5414 246.517 41.169 245.89 41.9432 245.89H50.5259C51.3004 245.89 51.9277 246.517 51.9277 247.292V249.96C51.9277 250.734 51.3004 251.362 50.5259 251.362Z" fill="#142A3B"/>
<path d="M97.1444 93.0716L95.4266 91.7087L79.5304 110.899L82.0953 112.933L97.1444 93.0716Z" fill="#ADC0D0"/>
<path d="M84.6655 111.241L80.6383 108.047C80.0546 107.584 79.2055 107.682 78.7428 108.266L77.4734 109.868L83.6151 114.74L84.8845 113.138C85.3479 112.554 85.2498 111.705 84.6655 111.241Z" fill="#ADC0D0"/>
<path d="M83.8308 114.309L82.0953 112.933L79.5304 110.899L78.1433 109.799C77.6485 109.406 76.9302 109.489 76.538 109.984L31.1988 167.202C29.9712 168.752 29.8591 170.827 30.7504 172.46C31.0479 173.005 31.4572 173.5 31.9734 173.91C32.3598 174.215 32.7785 174.453 33.2151 174.622C35.1131 175.358 37.3459 174.814 38.6772 173.134L84.0158 115.916C84.4086 115.422 84.3256 114.702 83.8308 114.309Z" fill="#ADC0D0"/>
<path d="M80.1605 112.001L31.7807 173.758C31.6972 173.865 31.7158 174.019 31.8223 174.103C31.9288 174.186 32.083 174.167 32.1665 174.061L80.5462 112.304C80.6298 112.198 80.6109 112.043 80.5043 111.96C80.3978 111.877 80.2442 111.895 80.1605 112.001Z" fill="#142A3B"/>
<path d="M36.9496 174.467L30.2781 169.174L29.9507 169.587C29.1288 170.625 29.3032 172.132 30.3396 172.955L33.2575 175.269C34.2942 176.091 35.8006 175.917 36.6221 174.88L36.9496 174.467Z" fill="#ADC0D0"/>
<path d="M118.997 89.9997C112.372 98.361 101.355 100.662 94.3912 95.1375C87.4278 89.6139 87.1533 78.3573 93.7787 69.996C100.404 61.6347 111.421 59.3346 118.384 64.8583C125.348 70.3819 125.623 81.6384 118.997 89.9997Z" fill="#8193B4"/>
<path d="M103.843 95.0172C101.16 95.0172 98.5817 94.2115 96.4593 92.5281C90.6961 87.9561 90.4693 78.6406 95.9521 71.72C95.5573 72.219 95.2004 72.7331 94.8644 73.2536C96.3057 72.8488 97.7143 72.6075 99.0491 72.6075C100.694 72.6075 102.227 72.975 103.57 73.8566C109.664 77.8591 107.23 89.3602 108.478 94.2383C111.507 93.2292 114.418 91.2561 116.713 88.4145C113.256 92.6975 108.396 95.0172 103.843 95.0172ZM116.715 88.4106C116.719 88.4053 116.723 88.4008 116.727 88.3962C116.723 88.4014 116.72 88.4053 116.715 88.4106ZM116.732 88.3897C116.738 88.3825 116.744 88.3753 116.749 88.3681C116.743 88.3759 116.738 88.3825 116.732 88.3897ZM116.758 88.3583C116.76 88.3543 116.764 88.3511 116.766 88.3471C116.764 88.3511 116.76 88.3543 116.758 88.3583ZM116.779 88.3314C116.781 88.3288 116.783 88.3256 116.786 88.3229C116.784 88.3256 116.781 88.3288 116.779 88.3314ZM116.8 88.3046C116.802 88.302 116.804 88.3 116.806 88.2981C116.804 88.3 116.802 88.302 116.8 88.3046ZM120.792 77.3673C120.793 73.4577 119.294 69.83 116.316 67.4684C116.311 67.4638 116.305 67.4599 116.3 67.4553C116.305 67.4599 116.311 67.4638 116.316 67.4684C119.294 69.83 120.793 73.4577 120.792 77.3673ZM95.9874 71.6762C95.9959 71.6651 96.0044 71.6546 96.0135 71.6435C96.0044 71.6546 95.9959 71.6651 95.9874 71.6762ZM116.281 67.4409C116.278 67.4383 116.275 67.4357 116.272 67.4331C116.275 67.4357 116.278 67.4383 116.281 67.4409ZM116.263 67.4266C114.151 65.7713 111.595 64.9793 108.935 64.9793C111.596 64.9793 114.151 65.7713 116.263 67.4266ZM108.93 64.9793C108.931 64.9793 108.932 64.9793 108.933 64.9793C108.932 64.9793 108.931 64.9793 108.93 64.9793Z" fill="#BDC6D5"/>
<path d="M116.713 88.4146C116.713 88.4132 116.715 88.4119 116.715 88.4106C116.715 88.4119 116.713 88.4132 116.713 88.4146ZM116.727 88.3962C116.728 88.3943 116.731 88.3917 116.732 88.3897C116.73 88.3917 116.729 88.3943 116.727 88.3962ZM116.749 88.3681C116.753 88.3648 116.755 88.3616 116.758 88.3583C116.755 88.3616 116.753 88.3648 116.749 88.3681ZM116.766 88.3472C116.771 88.342 116.775 88.3374 116.779 88.3315C116.775 88.3367 116.77 88.342 116.766 88.3472ZM116.786 88.323C116.79 88.3171 116.796 88.3106 116.8 88.3047C116.796 88.3106 116.79 88.3171 116.786 88.323ZM116.806 88.2981C116.811 88.2909 116.818 88.2831 116.823 88.2759C119.474 84.9307 120.79 81.0257 120.792 77.3673C120.79 81.0257 119.474 84.9307 116.823 88.2759C116.817 88.2831 116.811 88.2903 116.806 88.2981ZM95.9521 71.7201C95.9638 71.7057 95.9756 71.6913 95.9874 71.6762C95.9756 71.6913 95.9638 71.7057 95.9521 71.7201ZM96.0135 71.6435C99.4726 67.3226 104.355 64.98 108.93 64.9794C104.355 64.9807 99.4726 67.3226 96.0135 71.6435ZM116.3 67.4554C116.294 67.4501 116.288 67.4456 116.281 67.441C116.288 67.4456 116.294 67.4501 116.3 67.4554ZM116.271 67.4331C116.269 67.4312 116.266 67.4286 116.263 67.4266C116.266 67.4286 116.269 67.4312 116.271 67.4331ZM108.935 64.9794C108.934 64.9794 108.934 64.9794 108.933 64.9794C108.934 64.9794 108.934 64.9794 108.935 64.9794Z" fill="#BDC6D5"/>
<path d="M108.478 94.2383C107.23 89.3601 109.664 77.859 103.57 73.8566C102.227 72.975 100.694 72.6074 99.0491 72.6074C97.7143 72.6074 96.3057 72.8488 94.8644 73.2536C95.2004 72.733 95.5573 72.219 95.9521 71.72C95.9638 71.7056 95.9756 71.6912 95.9874 71.6762C95.9959 71.665 96.0044 71.6546 96.0135 71.6435C99.4727 67.3225 104.355 64.9806 108.93 64.9793C108.931 64.9793 108.932 64.9793 108.933 64.9793C108.934 64.9793 108.934 64.9793 108.935 64.9793C111.595 64.9793 114.151 65.7713 116.263 67.4265C116.266 67.4285 116.269 67.4311 116.272 67.4331C116.275 67.4357 116.278 67.4383 116.281 67.4409C116.288 67.4455 116.294 67.4501 116.3 67.4553C116.305 67.4599 116.311 67.4638 116.316 67.4684C119.294 69.8299 120.793 73.4576 120.792 77.3672C120.79 81.0257 119.474 84.9307 116.823 88.2758C116.818 88.283 116.811 88.2909 116.806 88.2981C116.804 88.3 116.802 88.302 116.8 88.3046C116.796 88.3105 116.791 88.317 116.786 88.3229C116.783 88.3255 116.781 88.3288 116.779 88.3314C116.775 88.3373 116.771 88.3419 116.766 88.3471C116.764 88.351 116.76 88.3543 116.758 88.3582C116.755 88.3615 116.753 88.3648 116.749 88.368C116.744 88.3752 116.738 88.3824 116.732 88.3896C116.731 88.3916 116.728 88.3942 116.727 88.3962C116.723 88.4007 116.719 88.4053 116.715 88.4105C116.715 88.4118 116.713 88.4132 116.713 88.4145C114.418 91.2561 111.507 93.2292 108.478 94.2383Z" fill="#DEE2EA"/>
<path d="M26.5573 150.435C26.6674 150.427 25.0075 148.532 23.4254 146.703C24.2445 142.488 30.0012 117.66 22.4978 117.089C22.4978 117.089 15.8783 124.552 15.1286 143.515C15.1088 143.673 15.1371 148.724 15.1384 148.724C15.2987 150.495 25.9195 161.516 31.9561 165.053C33.1112 163.928 34.2298 162.766 35.3586 161.615L26.5573 150.435Z" fill="white"/>
<path d="M35.3586 161.615L26.5573 150.435C26.6674 150.427 25.0075 148.532 23.4254 146.703C23.5661 145.98 23.8531 144.661 24.1922 142.983C19.7834 139.946 17.3659 139.602 15.3909 139.703C15.2729 140.916 15.1813 142.183 15.1286 143.515C15.1088 143.673 15.1371 148.724 15.1384 148.724C15.2987 150.495 25.9195 161.516 31.9561 165.053C33.1112 163.928 34.2298 162.766 35.3586 161.615Z" fill="#F7BD94"/>
<path d="M34.1359 160.609C34.1359 160.609 37.5946 157.222 38.2138 155.268C38.8333 153.313 40.177 155.684 39.3819 157.513C38.5874 159.345 37.9429 160.734 37.9429 160.734L41.3516 161.542C41.3516 161.542 43.4098 165.836 36.3813 167.557L31.0926 165.177C31.0926 165.177 31.8392 161.606 34.1359 160.609Z" fill="#5A79C5"/>
<path d="M40.6887 161.381C40.6887 161.381 45.3003 161.828 45.8038 161.84C48.1154 161.893 48.361 163.208 47.2176 163.169C45.4525 163.107 39.8558 163.277 39.8558 163.277L40.6887 161.381Z" fill="#5A79C5"/>
<path d="M40.3111 165.112C40.3111 165.112 48.9488 166.168 48.8652 165.646C48.7818 165.125 47.2996 164.141 45.8876 164.003C43.7073 163.79 39.2819 163.042 39.2819 163.042L40.3111 165.112Z" fill="#5A79C5"/>
<path d="M38.4549 166.841C38.4549 166.841 46.3334 168.323 46.3137 167.805C46.2938 167.287 45.0301 166.243 43.7382 166.035C41.7438 165.714 37.7299 164.752 37.7299 164.752L38.4549 166.841Z" fill="#5A79C5"/>
<path d="M35.4276 166.992C35.4276 166.992 41.5392 170.552 41.6756 170.115C41.8122 169.679 41.0699 168.438 40.0573 167.883C38.4941 167.027 35.4419 165.041 35.4419 165.041L35.4276 166.992Z" fill="#5A79C5"/>
<path d="M32.4165 165.773C32.4165 165.773 29.295 164.66 28.0352 164.036C26.6317 163.34 30.5722 157.676 32.669 156.966C34.766 156.256 33.3321 158.465 35.8573 159.352L32.4165 165.773Z" fill="#5A79C5"/>
<path d="M38.6527 159.169C38.6527 159.169 37.7557 161.297 40.9242 161.524L36.3113 161.679L38.6527 159.169Z" fill="#5A79C5"/>
<path d="M25.7229 137.007L27.976 128.858C28.0122 128.727 27.9356 128.593 27.8052 128.556C27.6747 128.52 27.5396 128.596 27.5036 128.727L25.2506 136.876C25.2143 137.007 25.2909 137.142 25.4214 137.178C25.5518 137.214 25.6869 137.138 25.7229 137.007Z" fill="#142A3B"/>
<path d="M76.5491 124.945C76.5491 124.945 75.7994 125.741 73.5704 125.907C71.3408 126.073 69.0125 126.846 69.406 127.634C69.7995 128.421 73.6769 128.152 73.6769 128.152C73.6769 128.152 77.8061 127.155 76.5491 124.945Z" fill="#5A79C5"/>
<path d="M75.0483 127.309C75.0483 127.309 74.2986 128.107 72.0696 128.272C69.84 128.438 68.8445 129.281 69.238 130.069C69.6315 130.856 72.1761 130.517 72.1761 130.517C72.1761 130.517 76.3059 129.521 75.0483 127.309Z" fill="#5A79C5"/>
<path d="M73.3115 129.617C73.3115 129.617 72.7814 130.18 71.2061 130.297C69.6302 130.415 68.9269 131.01 69.2047 131.568C69.4831 132.123 71.282 131.884 71.282 131.884C71.282 131.884 74.2005 131.18 73.3115 129.617Z" fill="#5A79C5"/>
<path d="M77.4668 124.109C77.4668 124.109 76.4811 124.582 74.3417 123.933C72.2023 123.284 70.9702 123.71 71.0532 124.587C71.1369 125.464 73.6331 126.065 73.6331 126.065C73.6331 126.065 77.844 126.625 77.4668 124.109Z" fill="#5A79C5"/>
<path d="M52.1353 138.374C52.1353 138.374 54.9302 135.47 54.9343 132.356C54.9383 129.468 51.8381 126.091 51.8381 126.091L51.5026 121.216" fill="white"/>
<path d="M52.3117 138.544C52.3194 138.536 53.028 137.8 53.7408 136.663C54.4522 135.526 55.1753 133.988 55.1794 132.356V132.35C55.1753 130.819 54.3761 129.229 53.5923 128.005C52.8063 126.783 52.0245 125.931 52.0186 125.925L51.8381 126.091L52.0827 126.074L51.7472 121.2C51.7378 121.064 51.6208 120.962 51.4857 120.972C51.3507 120.981 51.2488 121.098 51.258 121.233L51.5935 126.107L51.6576 126.256C51.6578 126.256 51.7027 126.306 51.7858 126.402C52.076 126.737 52.8088 127.623 53.4641 128.73C54.121 129.836 54.692 131.164 54.6891 132.35V132.356C54.6891 133.838 54.0127 135.309 53.3257 136.403C52.9827 136.949 52.6391 137.402 52.3822 137.716C52.2538 137.874 52.1468 137.997 52.0728 138.08C51.9985 138.163 51.9586 138.204 51.9586 138.204C51.8647 138.302 51.8677 138.457 51.9652 138.551C52.0628 138.645 52.2178 138.642 52.3117 138.544Z" fill="#142A3B"/>
<path d="M33.2151 138.374C33.2151 138.374 38.2123 141.677 44.4643 139.688L33.2151 138.374Z" fill="white"/>
<path d="M33.0798 138.579C33.1023 138.592 36.0899 140.568 40.3719 140.57C41.6606 140.57 43.0661 140.39 44.5386 139.922C44.6675 139.88 44.7391 139.742 44.6979 139.614C44.6568 139.485 44.5192 139.413 44.39 139.454C42.9688 139.906 41.6151 140.08 40.3719 140.08C38.3075 140.08 36.5472 139.601 35.3048 139.121C34.6835 138.881 34.1923 138.641 33.8573 138.463C33.6901 138.373 33.5619 138.299 33.4761 138.247L33.3801 138.189L33.3502 138.17C33.2371 138.095 33.0852 138.126 33.0107 138.239C32.9361 138.352 32.967 138.504 33.0798 138.579Z" fill="#142A3B"/>
<path d="M39.3546 130.124L33.3321 131.677L32.7788 129.532L38.8008 127.977L39.3546 130.124Z" fill="#5A79C5"/>
<path d="M31.3533 258.327L31.3847 258.31C31.5468 258.228 32.3112 257.876 33.2854 257.877C33.8425 257.877 34.4671 257.99 35.1021 258.328C35.2216 258.392 35.3701 258.347 35.4337 258.227C35.4975 258.107 35.4524 257.959 35.3329 257.895C34.6184 257.514 33.9081 257.386 33.2854 257.387C32.0383 257.388 31.1372 257.887 31.1166 257.897C30.9981 257.962 30.9549 258.111 31.0203 258.23C31.0856 258.349 31.2348 258.392 31.3533 258.327Z" fill="white"/>
<path d="M32.3901 259.482L32.4218 259.466C32.5837 259.383 33.3482 259.031 34.3223 259.032C34.8794 259.033 35.504 259.145 36.1392 259.483C36.2587 259.547 36.407 259.502 36.4706 259.383C36.5345 259.263 36.4893 259.114 36.3698 259.05C35.6553 258.669 34.945 258.542 34.3223 258.542C33.0752 258.543 32.1742 259.042 32.1535 259.052C32.035 259.118 31.9919 259.267 32.0572 259.385C32.1226 259.504 32.2717 259.547 32.3901 259.482Z" fill="white"/>
<path d="M51.9009 256.562L51.9323 256.546C52.0945 256.463 52.8589 256.111 53.833 256.112C54.011 256.112 54.1958 256.124 54.3855 256.15C54.5196 256.17 54.6437 256.076 54.6626 255.942C54.6815 255.808 54.588 255.684 54.454 255.665C54.2398 255.635 54.0319 255.621 53.833 255.621C52.586 255.623 51.6849 256.122 51.6642 256.132C51.5455 256.198 51.5026 256.347 51.568 256.465C51.6333 256.584 51.7822 256.627 51.9009 256.562Z" fill="white"/>
<path d="M49.7163 255.87L49.7477 255.854C49.9096 255.771 50.674 255.419 51.6481 255.421C51.8261 255.421 52.0109 255.432 52.2009 255.459C52.335 255.478 52.4591 255.384 52.478 255.25C52.4969 255.116 52.4034 254.992 52.2693 254.973C52.0551 254.943 51.8473 254.93 51.6481 254.93C50.4011 254.932 49.5003 255.431 49.4796 255.44C49.3608 255.506 49.3177 255.655 49.3831 255.774C49.4487 255.892 49.5975 255.935 49.7163 255.87Z" fill="white"/>
<path d="M228.155 268.348C210.523 268.348 196.227 267.414 196.227 266.263C196.227 265.111 210.523 264.177 228.155 264.177C245.789 264.177 260.083 265.111 260.083 266.263C260.083 267.414 245.789 268.348 228.155 268.348Z" fill="#D3DCE3"/>
<path d="M253.806 266.263H202.505C200.654 266.263 199.154 264.762 199.154 262.911V190.149C199.154 188.298 200.654 186.797 202.505 186.797H253.806C255.657 186.797 257.156 188.298 257.156 190.149V262.911C257.156 264.762 255.657 266.263 253.806 266.263Z" fill="#5A79C5"/>
<path d="M251.191 260.211H205.12V186.797H251.191V260.211Z" fill="white"/>
<path d="M228.155 185.783C226.684 185.783 225.491 184.59 225.491 183.117C225.491 181.645 226.684 180.452 228.155 180.452C229.627 180.452 230.819 181.645 230.819 183.117C230.819 184.59 229.627 185.783 228.155 185.783ZM238.403 183.117H235.59C235.077 183.117 234.622 182.75 234.552 182.241C234.125 179.088 231.424 176.658 228.155 176.658C224.887 176.658 222.185 179.088 221.758 182.241C221.69 182.75 221.234 183.117 220.72 183.117H217.907C217.342 183.117 216.883 183.576 216.883 184.143V190.089C216.883 190.656 217.342 191.114 217.907 191.114H238.403C238.969 191.114 239.428 190.656 239.428 190.089V184.143C239.428 183.576 238.969 183.117 238.403 183.117Z" fill="#8193B4"/>
<path d="M243.134 199.843C242.711 199.057 241.976 198.712 241.262 198.534C240.615 198.373 239.966 198.531 239.393 198.93C239 199.202 238.562 199.341 238.123 199.346H237.896C237.457 199.341 237.019 199.202 236.626 198.93C236.053 198.531 235.404 198.373 234.757 198.534C234.043 198.712 233.308 199.057 232.885 199.843C232.14 201.225 232.291 203.271 233.031 204.599C233.187 204.879 233.207 205.243 233.188 205.582C233.161 206.074 233.154 206.535 233.17 207.027C233.19 207.634 233.236 208.242 233.331 208.838C233.497 209.86 233.822 210.883 234.454 211.594C234.612 211.771 234.786 211.926 234.971 212.055C235.489 212.417 236.06 212.079 236.298 211.431C236.449 211.022 236.475 210.56 236.507 210.111C236.577 209.12 236.853 208.195 237.747 208.077L237.896 208.069L238.009 208.075L238.123 208.069L238.272 208.077C239.167 208.195 239.442 209.12 239.512 210.111C239.544 210.56 239.57 211.022 239.721 211.431C239.959 212.079 240.53 212.417 241.048 212.055C241.233 211.926 241.407 211.771 241.565 211.594C242.197 210.883 242.522 209.86 242.687 208.838C242.783 208.242 242.829 207.634 242.849 207.027C242.865 206.535 242.857 206.074 242.83 205.582C242.812 205.243 242.832 204.879 242.988 204.599C243.727 203.271 243.879 201.225 243.134 199.843Z" fill="#5A79C5"/>
<path d="M235.135 210.223C234.933 209.809 234.778 209.278 234.677 208.65C234.597 208.161 234.548 207.617 234.529 206.989C234.515 206.547 234.52 206.121 234.546 205.647C234.57 205.226 234.563 204.598 234.239 204.016C233.655 202.968 233.593 201.352 234.099 200.411C234.223 200.182 234.439 199.924 235.107 199.759L235.263 199.74C235.473 199.74 235.678 199.852 235.813 199.945C236.43 200.374 237.145 200.606 237.88 200.614H238.112C238.874 200.606 239.588 200.374 240.206 199.945C240.341 199.852 240.546 199.74 240.756 199.74L240.912 199.759C241.579 199.924 241.796 200.182 241.919 200.411C242.426 201.352 242.364 202.968 241.781 204.015C241.457 204.598 241.45 205.225 241.472 205.647C241.498 206.121 241.504 206.547 241.49 206.99C241.469 207.617 241.422 208.161 241.343 208.649C241.241 209.278 241.085 209.809 240.883 210.223L240.869 210.027C240.697 207.618 239.466 206.954 238.463 206.821C238.356 206.807 238.251 206.801 238.147 206.801L238.012 206.804L237.904 206.801C237.764 206.801 237.661 206.807 237.559 206.821C236.553 206.954 235.322 207.618 235.149 210.026L235.135 210.223Z" fill="white"/>
<path d="M236.508 203.77L237.666 204.974C237.732 205.043 237.823 205.079 237.917 205.074C238.012 205.071 238.098 205.026 238.157 204.952L239.712 203C239.824 202.859 239.801 202.653 239.66 202.541C239.519 202.428 239.313 202.451 239.201 202.593L237.879 204.252L236.979 203.317C236.855 203.186 236.647 203.182 236.517 203.307C236.387 203.432 236.383 203.64 236.508 203.77Z" fill="#5A79C5"/>
<path d="M226.988 217.158H212.347C211.979 217.158 211.68 216.86 211.68 216.491C211.68 216.124 211.979 215.825 212.347 215.825H226.988C227.356 215.825 227.654 216.124 227.654 216.491C227.654 216.86 227.356 217.158 226.988 217.158Z" fill="#5A79C5"/>
<path d="M243.965 221.438H212.347C211.979 221.438 211.68 221.14 211.68 220.772C211.68 220.404 211.979 220.105 212.347 220.105H243.965C244.332 220.105 244.631 220.404 244.631 220.772C244.631 221.14 244.332 221.438 243.965 221.438Z" fill="#5A79C5"/>
<path d="M243.965 225.988H212.347C211.979 225.988 211.68 225.69 211.68 225.322C211.68 224.954 211.979 224.655 212.347 224.655H243.965C244.332 224.655 244.631 224.954 244.631 225.322C244.631 225.69 244.332 225.988 243.965 225.988Z" fill="#5A79C5"/>
<path d="M243.965 230.538H212.347C211.979 230.538 211.68 230.239 211.68 229.872C211.68 229.504 211.979 229.205 212.347 229.205H243.965C244.332 229.205 244.631 229.504 244.631 229.872C244.631 230.239 244.332 230.538 243.965 230.538Z" fill="#5A79C5"/>
<path d="M243.965 235.088H212.347C211.979 235.088 211.68 234.79 211.68 234.422C211.68 234.054 211.979 233.755 212.347 233.755H243.965C244.332 233.755 244.631 234.054 244.631 234.422C244.631 234.79 244.332 235.088 243.965 235.088Z" fill="#5A79C5"/>
<path d="M243.965 239.638H212.347C211.979 239.638 211.68 239.34 211.68 238.971C211.68 238.604 211.979 238.305 212.347 238.305H243.965C244.332 238.305 244.631 238.604 244.631 238.971C244.631 239.34 244.332 239.638 243.965 239.638Z" fill="#5A79C5"/>
<path d="M243.965 244.714H212.347C211.979 244.714 211.68 244.415 211.68 244.047C211.68 243.679 211.979 243.381 212.347 243.381H243.965C244.332 243.381 244.631 243.679 244.631 244.047C244.631 244.415 244.332 244.714 243.965 244.714Z" fill="#5A79C5"/>
<path d="M243.965 249.263H212.347C211.979 249.263 211.68 248.964 211.68 248.597C211.68 248.229 211.979 247.931 212.347 247.931H243.965C244.332 247.931 244.631 248.229 244.631 248.597C244.631 248.964 244.332 249.263 243.965 249.263Z" fill="#5A79C5"/>
<path d="M251.191 260.211H205.12V261.916L228.155 261.063L251.191 261.916V260.211Z" fill="#142A3B"/>
<path d="M152.561 32.2097L154.238 37.1218C154.265 37.199 154.32 37.2644 154.392 37.303L159.496 38.9667C159.783 39.0596 159.783 39.4657 159.495 39.5586L154.419 41.1962C154.347 41.2354 154.293 41.3008 154.267 41.378L152.631 46.315C152.533 46.6119 152.114 46.6139 152.013 46.3183L150.335 41.4068C150.308 41.3283 150.254 41.2642 150.182 41.2249L145.246 39.6148C144.914 39.5063 144.911 39.0367 145.243 38.9301C146.966 38.3775 150.156 37.3324 150.156 37.3324C150.227 37.2925 150.28 37.2271 150.307 37.1493L151.943 32.2123C152.041 31.916 152.46 31.9141 152.561 32.2097Z" fill="white"/>
<path d="M164.408 23.1218L165.318 25.7849L165.401 25.883L168.168 26.7848C168.324 26.8358 168.323 27.0556 168.168 27.1053L165.416 27.9934L165.333 28.0922L164.446 30.7689C164.393 30.9298 164.167 30.9305 164.112 30.7703L163.202 28.1078L163.118 28.0091L160.442 27.136C160.262 27.0771 160.261 26.8227 160.441 26.7652C161.375 26.4657 163.104 25.8987 163.104 25.8987L163.186 25.7999L164.073 23.1231C164.127 22.9622 164.353 22.9616 164.408 23.1218Z" fill="white"/>
<path d="M247.788 72.2294L248.697 74.8918L248.781 74.9906L251.548 75.8925C251.704 75.9428 251.704 76.1632 251.547 76.2129L248.795 77.101L248.713 77.1998L247.826 79.8759C247.773 80.0374 247.546 80.0381 247.491 79.8779L246.582 77.2148L246.499 77.1167L243.823 76.2437C243.643 76.1848 243.641 75.9304 243.821 75.8722C244.755 75.5726 246.484 75.0063 246.484 75.0063L246.566 74.9069L247.454 72.2307C247.506 72.0699 247.733 72.0686 247.788 72.2294Z" fill="white"/>
</svg>
