<svg width="151" height="46" viewBox="0 0 151 46" fill="none" xmlns="http://www.w3.org/2000/svg">
<path d="M11.9066 33.9463C11.9066 33.8236 11.7487 33.4352 11.4483 32.4129C11.3515 32.0654 11.2599 31.7178 11.1682 31.3907L9.38087 23.4429C9.18737 22.574 9.38087 21.8534 10.2822 21.5825C10.4632 21.5047 10.6597 21.4705 10.8562 21.4826C11.0527 21.4947 11.2436 21.5527 11.4138 21.652C11.584 21.7513 11.7287 21.8891 11.8364 22.0546C11.944 22.22 12.0117 22.4084 12.0339 22.6047C12.6551 25.0836 13.2764 27.5727 13.6532 30.1027C13.8823 31.6361 14.4883 33.0825 14.972 34.5545C15.1961 35.2445 15.6849 35.1525 15.8122 35.1321C16.0516 35.0963 16.2298 34.8305 16.5913 33.8952C16.7797 33.4147 17.0089 32.7605 17.2329 31.9632V31.9069C17.3291 31.4024 17.4549 30.9041 17.6098 30.4145C17.7982 29.7479 18.0612 29.1049 18.394 28.4978C18.6834 27.8208 19.1697 27.2472 19.7892 26.852C20.1052 26.6826 20.4512 26.5767 20.8076 26.5403C21.3347 26.4476 21.8773 26.5153 22.3658 26.7345C22.9305 27.0517 23.3867 27.5327 23.6745 28.1145C23.8468 28.4066 23.9982 28.7107 24.1277 29.0243C24.3098 29.4396 24.4696 29.8644 24.6064 30.2969C24.8864 31.1505 25.1156 31.8967 25.3549 32.5254C25.4717 32.8749 25.6112 33.2164 25.7725 33.5476C25.8822 33.7912 26.0116 34.0254 26.1595 34.2478C26.465 34.7078 26.6687 35.0094 26.9131 35.0247C27.2746 35.0247 27.5954 34.4369 27.7635 34.0792C28.6903 32.1012 29.0671 29.1572 29.3675 27.5778C29.5559 26.5556 30.1822 26.3716 31.0072 26.3716C33.3954 26.3716 35.7887 26.2949 38.1718 26.3972C39.3379 26.4432 39.6027 26.0496 39.7555 24.9405C40.3891 20.683 39.5364 16.3365 37.3418 12.638C34.4647 7.7109 30.2128 4.46023 24.5096 3.392C17.0038 2.00689 10.9238 4.63912 5.91822 10.1796C5.57704 10.5578 5.32244 11.0127 4.99145 11.396C4.32947 12.1576 3.4027 12.3007 2.76109 11.7691C2.11948 11.2376 2.12458 10.2358 2.66943 9.48446C4.3766 7.12761 6.52047 5.12325 8.98368 3.58111C12.6701 1.17278 16.9903 -0.0732615 21.3881 0.00333041C27.85 0.192442 33.2172 2.80934 37.464 7.67001C38.87 9.26945 40.0318 11.0694 40.9114 13.0111C43.1417 17.9587 42.9482 21.8431 42.6631 25.9883C42.5969 26.9185 42.4543 28.3292 41.4613 29.0038C41.1354 29.2287 40.7841 29.2696 38.9153 29.2594C36.9344 29.2594 34.9485 29.2594 32.9626 29.2594C32.6729 29.2373 32.3838 29.309 32.1376 29.4638C31.8199 29.7385 31.6179 30.1239 31.5724 30.5423C31.3891 31.4418 30.9206 33.0058 30.223 35.1729C30.0694 35.7512 29.7913 36.2886 29.4082 36.7472L29.0823 37.0896C28.6595 37.5552 28.1005 37.8742 27.4857 38.0009C26.8709 38.1277 26.2319 38.0556 25.6604 37.795C25.5951 37.7691 25.5335 37.7347 25.4771 37.6927C25.1714 37.4632 24.8899 37.2029 24.6369 36.9158C24.3629 36.6044 24.127 36.2612 23.9342 35.8936C23.9342 35.8936 23.9342 35.8578 23.9342 35.8425C23.5806 35.0822 23.2844 34.2963 23.0482 33.4914C23.0074 33.3432 22.8903 32.9138 22.7681 32.418C22.6866 32.0858 22.6204 31.8047 22.5746 31.6105C22.5722 31.5953 22.5722 31.5797 22.5746 31.5645C22.515 31.1913 22.4247 30.8238 22.3047 30.4656C22.2436 30.2969 22.1825 30.1436 22.1214 29.9954C22.1007 29.9401 22.0715 29.8883 22.0348 29.842L21.8973 29.7245C21.815 29.5975 21.6913 29.503 21.5474 29.4574C21.4034 29.4117 21.2482 29.4176 21.1081 29.474C20.9348 29.5642 20.8007 29.7152 20.7312 29.8983C20.4346 30.7163 20.198 31.5551 20.0234 32.4078C19.8194 33.1448 19.5448 33.8603 19.2036 34.5443C19.0967 34.7692 18.9948 34.9583 18.9235 35.0963C18.9216 35.1116 18.9216 35.127 18.9235 35.1423C18.8472 35.3161 18.7402 35.5512 18.5976 35.8221C18.4041 36.1952 18.2208 36.5018 18.1495 36.6092C17.697 37.1859 17.1018 37.6335 16.4233 37.9074C16.3791 37.9273 16.333 37.9427 16.2858 37.9534C15.5277 38.1103 14.7388 37.9964 14.0555 37.6314C13.9611 37.5827 13.8778 37.5148 13.811 37.4321C13.302 36.7972 12.8585 36.1122 12.4871 35.3876C12.2172 34.8152 12.0135 34.1865 12.0084 34.1814C11.9653 34.1074 11.9311 34.0284 11.9066 33.9463Z" fill="#FFFF00"/>
<path d="M7.44584 36.466C8.96586 38.3166 10.8503 39.8322 12.981 40.9178C20.11 44.4956 29.0518 42.4511 34.2407 37.9329C34.7753 37.4729 35.1776 37.0589 35.422 36.8033C36.2039 35.9545 36.9415 35.0657 37.632 34.1404C38.1412 33.43 38.5028 32.9087 39.0731 32.8627C39.3382 32.8772 39.5966 32.9514 39.8293 33.0797C40.062 33.208 40.263 33.3871 40.4174 33.6038C40.4704 33.6666 40.5134 33.7373 40.5447 33.8133C40.6596 34.1039 40.71 34.4161 40.6924 34.7282C40.6626 35.1977 40.4842 35.6454 40.1832 36.006C39.954 36.2718 39.7249 36.5171 39.4907 36.8085C39.2564 37.0998 39.0324 37.3196 38.7981 37.6109C36.8144 39.9168 34.445 41.8575 31.7964 43.3456C27.6259 45.6381 22.8162 46.4793 18.119 45.7376C14.4661 45.1282 11.026 43.6022 8.118 41.3011C6.79339 40.2231 5.59729 38.9951 4.5535 37.6416L4.52295 37.6007C4.07484 36.926 3.56563 36.2565 3.08187 35.5818C2.868 35.2649 2.65413 34.9173 2.45045 34.5596L2.27732 34.2325C2.13474 33.9258 1.98706 33.6089 1.84449 33.2869L1.43711 32.372C0.940311 31.0813 0.558601 29.7489 0.296475 28.3904C0.296475 28.3904 -0.370594 24.9864 0.296475 18.7815C0.321057 18.5347 0.365331 18.2903 0.428871 18.0506C0.489801 17.6997 0.61962 17.3644 0.810781 17.0642C0.980662 16.897 1.18217 16.7656 1.40344 16.6779C1.6247 16.5901 1.86123 16.5477 2.09909 16.5531C3.64018 16.4463 5.18676 16.4463 6.72784 16.5531C7.51203 16.5531 7.87867 16.3691 7.95505 15.4542C8.13327 13.4455 9.43686 12.1575 11.2446 11.5595C13.923 10.6651 16.5709 10.5833 18.9133 12.5817C19.3637 12.8902 19.837 13.1636 20.3289 13.3995C20.6485 13.6254 21.034 13.7375 21.4243 13.718C21.8146 13.6986 22.1873 13.5487 22.4829 13.2922C23.1042 12.8373 23.7305 12.3875 24.3874 11.9889C27.3357 10.2102 31.6895 10.8031 33.7416 13.236C34.2085 13.8059 34.5352 14.478 34.6953 15.1981C34.8554 15.9182 34.8444 16.666 34.6633 17.3811C34.2865 19.2926 33.8333 21.1889 33.3852 23.08C33.1102 24.2402 32.3668 24.7462 31.4094 24.3987C31.1281 24.3394 30.881 24.172 30.7212 23.9322C30.5613 23.6925 30.5013 23.3994 30.554 23.1158C30.7841 21.5908 31.1021 20.0805 31.5062 18.5924C31.827 17.1766 32.2038 15.8069 30.8595 14.754C29.5152 13.7011 27.906 13.8033 26.3428 14.3144C25.4952 14.669 24.7029 15.1441 23.9902 15.7251C22.0144 17.0591 20.1354 16.8598 18.2972 15.4746C16.9121 14.4524 15.4456 13.7471 13.6226 13.9413C11.5857 14.1355 10.3229 15.6535 10.7201 17.6622C10.9696 18.9144 10.5571 19.4511 9.29937 19.4613C7.45093 19.4255 5.60248 19.4255 3.65219 19.4255C3.49069 19.4252 3.33351 19.4779 3.20474 19.5758C3.07598 19.6736 2.98273 19.8112 2.93929 19.9673C2.37407 22.0833 2.59303 24.2198 2.88837 26.346C3.32521 29.1248 4.28612 31.7946 5.7196 34.212L5.77561 34.2938L6.41722 35.1422C6.7584 35.592 7.13012 36.0316 7.44584 36.466Z" fill="white"/>
<path d="M62.0821 44.503C61.4169 44.503 60.8382 44.3687 60.3458 44.1C59.8535 43.8227 59.4734 43.4327 59.2056 42.93C58.9379 42.4273 58.804 41.838 58.804 41.162C58.804 40.486 58.9379 39.9053 59.2056 39.42C59.4734 38.926 59.8535 38.549 60.3458 38.289C60.8382 38.0203 61.4169 37.886 62.0821 37.886C62.3671 37.886 62.6738 37.925 63.002 38.003C63.3389 38.081 63.6542 38.211 63.9478 38.393C64.1206 38.497 64.2199 38.6313 64.2458 38.796C64.2804 38.9607 64.2588 39.1123 64.1811 39.251C64.112 39.3897 64.004 39.4893 63.8571 39.55C63.7189 39.6107 63.5591 39.589 63.3777 39.485C62.9804 39.2597 62.596 39.147 62.2246 39.147C61.6631 39.147 61.2269 39.3247 60.9159 39.68C60.6136 40.0267 60.4625 40.525 60.4625 41.175C60.4625 41.8163 60.6136 42.3233 60.9159 42.696C61.2269 43.06 61.6631 43.242 62.2246 43.242C62.596 43.242 62.9804 43.1337 63.3777 42.917C63.5591 42.813 63.7189 42.7913 63.8571 42.852C63.9953 42.9127 64.0947 43.0167 64.1551 43.164C64.2156 43.3027 64.2286 43.4543 64.194 43.619C64.1595 43.775 64.0601 43.905 63.896 44.009C63.611 44.1823 63.3086 44.308 62.989 44.386C62.6694 44.464 62.3671 44.503 62.0821 44.503Z" fill="white"/>
<path d="M67.593 44.477C67.0488 44.477 66.7767 44.1997 66.7767 43.645V39.29H65.1959C64.7295 39.29 64.4963 39.0777 64.4963 38.653C64.4963 38.2283 64.7295 38.016 65.1959 38.016H69.977C70.4435 38.016 70.6767 38.2283 70.6767 38.653C70.6767 39.0777 70.4435 39.29 69.977 39.29H68.3963V43.645C68.3963 44.1997 68.1285 44.477 67.593 44.477Z" fill="white"/>
<path d="M74.4053 44.503C73.7488 44.503 73.1787 44.3687 72.695 44.1C72.2113 43.8313 71.8355 43.45 71.5678 42.956C71.3 42.4533 71.1661 41.864 71.1661 41.188C71.1661 40.512 71.3 39.927 71.5678 39.433C71.8355 38.939 72.2113 38.5577 72.695 38.289C73.1787 38.0203 73.7488 37.886 74.4053 37.886C75.0618 37.886 75.6319 38.0203 76.1156 38.289C76.5993 38.5577 76.9751 38.939 77.2428 39.433C77.5106 39.927 77.6445 40.512 77.6445 41.188C77.6445 41.864 77.5106 42.4533 77.2428 42.956C76.9751 43.45 76.5993 43.8313 76.1156 44.1C75.6319 44.3687 75.0618 44.503 74.4053 44.503ZM74.4053 43.268C74.889 43.268 75.2777 43.0947 75.5714 42.748C75.8651 42.3927 76.0119 41.8727 76.0119 41.188C76.0119 40.4947 75.8651 39.979 75.5714 39.641C75.2777 39.2943 74.889 39.121 74.4053 39.121C73.9216 39.121 73.5329 39.2943 73.2392 39.641C72.9455 39.979 72.7987 40.4947 72.7987 41.188C72.7987 41.8727 72.9455 42.3927 73.2392 42.748C73.5329 43.0947 73.9216 43.268 74.4053 43.268Z" fill="white"/>
<path d="M79.8581 44.477C79.383 44.477 79.1455 44.2213 79.1455 43.71V38.796C79.1455 38.2067 79.3916 37.912 79.884 37.912C80.1345 37.912 80.3202 37.9727 80.4412 38.094C80.5707 38.2153 80.6787 38.3497 80.7651 38.497L82.6697 41.773L84.5744 38.497C84.6694 38.3323 84.7774 38.1937 84.8983 38.081C85.0279 37.9683 85.2093 37.912 85.4425 37.912C85.9348 37.912 86.181 38.2067 86.181 38.796V43.71C86.181 44.2213 85.9435 44.477 85.4684 44.477C84.9933 44.477 84.7558 44.2213 84.7558 43.71V40.421L83.2139 43.06C83.1707 43.138 83.1059 43.216 83.0196 43.294C82.9418 43.3633 82.8252 43.398 82.6697 43.398C82.5056 43.398 82.3847 43.359 82.3069 43.281C82.2292 43.203 82.1687 43.1293 82.1255 43.06L80.5707 40.421V43.71C80.5707 44.2213 80.3332 44.477 79.8581 44.477Z" fill="white"/>
<path d="M90.1143 44.503C89.6565 44.503 89.2462 44.4163 88.8834 44.243C88.5293 44.061 88.2485 43.8183 88.0412 43.515C87.8426 43.2117 87.7432 42.8693 87.7432 42.488C87.7432 42.02 87.8642 41.6517 88.106 41.383C88.3479 41.1057 88.7409 40.9063 89.2851 40.785C89.8293 40.6637 90.5592 40.603 91.4748 40.603H91.9283V40.33C91.9283 39.8967 91.8333 39.5847 91.6432 39.394C91.4532 39.2033 91.1336 39.108 90.6844 39.108C90.4339 39.108 90.1618 39.1383 89.8681 39.199C89.5831 39.2597 89.2808 39.3637 88.9612 39.511C88.7539 39.6063 88.5811 39.6193 88.4429 39.55C88.3047 39.472 88.2097 39.355 88.1578 39.199C88.1147 39.0343 88.1233 38.8697 88.1838 38.705C88.2529 38.5403 88.3867 38.419 88.5854 38.341C88.9828 38.1763 89.3628 38.0593 89.7256 37.99C90.097 37.9207 90.4339 37.886 90.7362 37.886C91.6605 37.886 92.3472 38.1027 92.7964 38.536C93.2456 38.9607 93.4701 39.6237 93.4701 40.525V43.645C93.4701 44.1997 93.2196 44.477 92.7186 44.477C92.209 44.477 91.9542 44.1997 91.9542 43.645V43.359C91.8073 43.7143 91.5741 43.996 91.2545 44.204C90.9349 44.4033 90.5549 44.503 90.1143 44.503ZM90.4512 43.385C90.8745 43.385 91.2243 43.2377 91.5007 42.943C91.7857 42.6483 91.9283 42.2757 91.9283 41.825V41.539H91.4877C90.6758 41.539 90.11 41.604 89.7904 41.734C89.4794 41.8553 89.324 42.0807 89.324 42.41C89.324 42.696 89.4233 42.93 89.622 43.112C89.8206 43.294 90.097 43.385 90.4512 43.385Z" fill="white"/>
<path d="M97.4291 44.477C96.8849 44.477 96.6128 44.1997 96.6128 43.645V39.29H95.032C94.5656 39.29 94.3324 39.0777 94.3324 38.653C94.3324 38.2283 94.5656 38.016 95.032 38.016H99.8131C100.28 38.016 100.513 38.2283 100.513 38.653C100.513 39.0777 100.28 39.29 99.8131 39.29H98.2324V43.645C98.2324 44.1997 97.9646 44.477 97.4291 44.477Z" fill="white"/>
<path d="M104.241 44.503C103.585 44.503 103.015 44.3687 102.531 44.1C102.047 43.8313 101.672 43.45 101.404 42.956C101.136 42.4533 101.002 41.864 101.002 41.188C101.002 40.512 101.136 39.927 101.404 39.433C101.672 38.939 102.047 38.5577 102.531 38.289C103.015 38.0203 103.585 37.886 104.241 37.886C104.898 37.886 105.468 38.0203 105.952 38.289C106.435 38.5577 106.811 38.939 107.079 39.433C107.347 39.927 107.481 40.512 107.481 41.188C107.481 41.864 107.347 42.4533 107.079 42.956C106.811 43.45 106.435 43.8313 105.952 44.1C105.468 44.3687 104.898 44.503 104.241 44.503ZM104.241 43.268C104.725 43.268 105.114 43.0947 105.408 42.748C105.701 42.3927 105.848 41.8727 105.848 41.188C105.848 40.4947 105.701 39.979 105.408 39.641C105.114 39.2943 104.725 39.121 104.241 39.121C103.758 39.121 103.369 39.2943 103.075 39.641C102.782 39.979 102.635 40.4947 102.635 41.188C102.635 41.8727 102.782 42.3927 103.075 42.748C103.369 43.0947 103.758 43.268 104.241 43.268Z" fill="white"/>
<path d="M113.934 44.477C113.399 44.477 113.131 44.1997 113.131 43.645V39.29H111.135V40.031C111.135 41.2357 110.984 42.189 110.682 42.891C110.388 43.593 109.905 44.087 109.231 44.373C108.998 44.4683 108.795 44.4813 108.622 44.412C108.449 44.3427 108.319 44.23 108.233 44.074C108.155 43.9093 108.138 43.736 108.181 43.554C108.224 43.372 108.354 43.2203 108.57 43.099C109.002 42.8477 109.287 42.475 109.425 41.981C109.572 41.487 109.645 40.8197 109.645 39.979V38.926C109.645 38.3193 109.948 38.016 110.552 38.016H113.843C114.448 38.016 114.75 38.3193 114.75 38.926V43.645C114.75 44.1997 114.478 44.477 113.934 44.477Z" fill="white"/>
<path d="M119.488 44.503C118.832 44.503 118.262 44.3687 117.778 44.1C117.294 43.8313 116.919 43.45 116.651 42.956C116.383 42.4533 116.249 41.864 116.249 41.188C116.249 40.512 116.383 39.927 116.651 39.433C116.919 38.939 117.294 38.5577 117.778 38.289C118.262 38.0203 118.832 37.886 119.488 37.886C120.145 37.886 120.715 38.0203 121.199 38.289C121.682 38.5577 122.058 38.939 122.326 39.433C122.594 39.927 122.728 40.512 122.728 41.188C122.728 41.864 122.594 42.4533 122.326 42.956C122.058 43.45 121.682 43.8313 121.199 44.1C120.715 44.3687 120.145 44.503 119.488 44.503ZM119.488 43.268C119.972 43.268 120.361 43.0947 120.655 42.748C120.948 42.3927 121.095 41.8727 121.095 41.188C121.095 40.4947 120.948 39.979 120.655 39.641C120.361 39.2943 119.972 39.121 119.488 39.121C119.005 39.121 118.616 39.2943 118.322 39.641C118.029 39.979 117.882 40.4947 117.882 41.188C117.882 41.8727 118.029 42.3927 118.322 42.748C118.616 43.0947 119.005 43.268 119.488 43.268Z" fill="white"/>
<path d="M125.045 44.477C124.501 44.477 124.229 44.1953 124.229 43.632V38.926C124.229 38.3193 124.531 38.016 125.136 38.016H128.44C128.897 38.016 129.126 38.2283 129.126 38.653C129.126 39.0777 128.897 39.29 128.44 39.29H125.848V43.632C125.848 44.1953 125.58 44.477 125.045 44.477Z" fill="white"/>
<path d="M130.967 36.716C130.664 36.716 130.427 36.6423 130.254 36.495C130.09 36.339 130.008 36.1267 130.008 35.858C130.008 35.5807 130.09 35.3683 130.254 35.221C130.427 35.0737 130.664 35 130.967 35C131.606 35 131.925 35.286 131.925 35.858C131.925 36.43 131.606 36.716 130.967 36.716ZM130.967 44.464C130.707 44.464 130.509 44.386 130.371 44.23C130.232 44.074 130.163 43.8573 130.163 43.58V38.809C130.163 38.2197 130.431 37.925 130.967 37.925C131.511 37.925 131.783 38.2197 131.783 38.809V43.58C131.783 43.8573 131.714 44.074 131.576 44.23C131.437 44.386 131.234 44.464 130.967 44.464Z" fill="white"/>
<path d="M138.307 44.477C137.806 44.477 137.556 44.2213 137.556 43.71V42.176H136.882C136.632 42.176 136.407 42.2453 136.208 42.384C136.018 42.5227 135.863 42.696 135.742 42.904L135.107 44.022C134.969 44.2733 134.792 44.4163 134.576 44.451C134.368 44.4943 134.174 44.464 133.993 44.36C133.811 44.256 133.686 44.1043 133.617 43.905C133.548 43.7057 133.582 43.4933 133.721 43.268L134.122 42.592C134.217 42.436 134.342 42.293 134.498 42.163C134.653 42.0243 134.818 41.9203 134.99 41.851C133.919 41.6603 133.384 41.0407 133.384 39.992C133.384 39.3767 133.591 38.8957 134.006 38.549C134.42 38.1937 135.029 38.016 135.833 38.016H138.243C138.787 38.016 139.059 38.2847 139.059 38.822V43.71C139.059 43.9527 138.99 44.1433 138.851 44.282C138.713 44.412 138.532 44.477 138.307 44.477ZM136.169 41.11H137.556V39.082H136.169C135.746 39.082 135.431 39.173 135.224 39.355C135.016 39.5283 134.913 39.771 134.913 40.083C134.913 40.4037 135.016 40.655 135.224 40.837C135.431 41.019 135.746 41.11 136.169 41.11Z" fill="white"/>
<path d="M54.6162 24C53.4419 24 52.8548 23.4107 52.8548 22.232V7.43798C52.8548 6.25932 53.4419 5.66998 54.6162 5.66998H64.4077C65.3057 5.66998 65.7547 6.10332 65.7547 6.96998C65.7547 7.87132 65.3057 8.32198 64.4077 8.32198H56.0409V13.314H61.118C63.0694 13.314 64.589 13.7646 65.677 14.666C66.7822 15.5673 67.3348 16.8933 67.3348 18.644C67.3348 20.3773 66.7822 21.7033 65.677 22.622C64.589 23.5406 63.0694 24 61.118 24H54.6162ZM56.0409 21.348H60.7035C62.983 21.348 64.1228 20.4466 64.1228 18.644C64.1228 16.8586 62.983 15.966 60.7035 15.966H56.0409V21.348Z" fill="white"/>
<path d="M75.9309 24.26C74.6185 24.26 73.4787 23.9913 72.5116 23.454C71.5446 22.9167 70.7934 22.154 70.258 21.166C69.7227 20.1607 69.455 18.982 69.455 17.63C69.455 16.278 69.7227 15.108 70.258 14.12C70.7934 13.132 71.5446 12.3693 72.5116 11.832C73.4787 11.2947 74.6185 11.026 75.9309 11.026C77.2433 11.026 78.3831 11.2947 79.3502 11.832C80.3172 12.3693 81.0684 13.132 81.6038 14.12C82.1391 15.108 82.4068 16.278 82.4068 17.63C82.4068 18.982 82.1391 20.1607 81.6038 21.166C81.0684 22.154 80.3172 22.9167 79.3502 23.454C78.3831 23.9913 77.2433 24.26 75.9309 24.26ZM75.9309 21.79C76.898 21.79 77.6751 21.4433 78.2622 20.75C78.8494 20.0393 79.1429 18.9993 79.1429 17.63C79.1429 16.2433 78.8494 15.212 78.2622 14.536C77.6751 13.8426 76.898 13.496 75.9309 13.496C74.9638 13.496 74.1867 13.8426 73.5996 14.536C73.0124 15.212 72.7189 16.2433 72.7189 17.63C72.7189 18.9993 73.0124 20.0393 73.5996 20.75C74.1867 21.4433 74.9638 21.79 75.9309 21.79Z" fill="white"/>
<path d="M85.1545 28.498C84.1702 28.498 83.678 27.9953 83.678 26.99V22.882C83.678 21.8593 84.1961 21.348 85.2323 21.348H85.4913C87.1146 19.3027 87.9262 15.6713 87.9262 10.454V7.43798C87.9262 6.25932 88.5134 5.66998 89.6876 5.66998H99.0906C100.265 5.66998 100.852 6.25932 100.852 7.43798V21.348H101.888C102.924 21.348 103.442 21.8593 103.442 22.882V26.99C103.442 27.9953 102.959 28.498 101.992 28.498C100.99 28.498 100.489 27.9953 100.489 26.99V24H86.631V26.99C86.631 27.9953 86.1389 28.498 85.1545 28.498ZM88.8587 21.348H97.5105V8.32198H91.0087V10.766C91.0087 13.262 90.8274 15.368 90.4648 17.084C90.1194 18.8 89.584 20.2213 88.8587 21.348Z" fill="white"/>
<path d="M112.116 24.26C110.682 24.26 109.448 23.9913 108.411 23.454C107.375 22.9167 106.572 22.154 106.002 21.166C105.45 20.178 105.173 19.008 105.173 17.656C105.173 16.3387 105.441 15.186 105.976 14.198C106.529 13.21 107.28 12.4387 108.23 11.884C109.197 11.312 110.294 11.026 111.52 11.026C113.316 11.026 114.732 11.598 115.768 12.742C116.821 13.886 117.348 15.446 117.348 17.422C117.348 18.0633 116.934 18.384 116.105 18.384H108.282C108.524 20.6547 109.819 21.79 112.167 21.79C112.616 21.79 113.117 21.738 113.67 21.634C114.24 21.5127 114.775 21.3133 115.276 21.036C115.725 20.776 116.105 20.698 116.416 20.802C116.726 20.8887 116.942 21.0707 117.063 21.348C117.201 21.6253 117.219 21.9373 117.115 22.284C117.029 22.6133 116.787 22.8993 116.39 23.142C115.785 23.5233 115.086 23.8093 114.291 24C113.514 24.1733 112.789 24.26 112.116 24.26ZM111.649 13.236C110.7 13.236 109.931 13.5306 109.344 14.12C108.757 14.7093 108.403 15.5066 108.282 16.512H114.654C114.585 15.4546 114.291 14.6487 113.773 14.094C113.273 13.522 112.565 13.236 111.649 13.236Z" fill="white"/>
<path d="M121.872 24.208C120.785 24.208 120.241 23.6533 120.241 22.544V12.716C120.241 11.624 120.785 11.078 121.872 11.078C122.943 11.078 123.478 11.624 123.478 12.716V16.2H129.074V12.716C129.074 11.624 129.609 11.078 130.68 11.078C131.768 11.078 132.312 11.624 132.312 12.716V22.544C132.312 23.6533 131.768 24.208 130.68 24.208C129.609 24.208 129.074 23.6533 129.074 22.544V18.748H123.478V22.544C123.478 23.6533 122.943 24.208 121.872 24.208Z" fill="white"/>
<path d="M140.3 24.208C139.212 24.208 138.668 23.6533 138.668 22.544V13.834H135.508C134.575 13.834 134.109 13.4093 134.109 12.56C134.109 11.7106 134.575 11.286 135.508 11.286H145.066C145.999 11.286 146.465 11.7106 146.465 12.56C146.465 13.4093 145.999 13.834 145.066 13.834H141.906V22.544C141.906 23.6533 141.371 24.208 140.3 24.208Z" fill="white"/>
<path fill-rule="evenodd" clip-rule="evenodd" d="M45.8472 32C45.8472 31.1716 46.5162 30.5 47.3416 30.5H148.963C149.788 30.5 150.457 31.1716 150.457 32C150.457 32.8284 149.788 33.5 148.963 33.5H47.3416C46.5162 33.5 45.8472 32.8284 45.8472 32Z" fill="#FFFF00"/>
</svg>
